<?xml version="1.0" encoding="UTF-8"?>
<!-- Generator: Adobe Illustrator 18.1.1, SVG Export Plug-In . SVG Version: 6.00 Build 0)  -->
<svg version="1.1" id="Layer_1" xmlns:sketch="http://www.bohemiancoding.com/sketch/ns" xmlns="http://www.w3.org/2000/svg" xmlns:xlink="http://www.w3.org/1999/xlink" x="0px" y="0px" viewBox="-343 244.3 154 107" enable-background="new -343 244.3 154 107" xml:space="preserve">
<title>team</title>
<desc>Created with Sketch.</desc>
<g id="Welcome" sketch:type="MSPage">
	<g id="For-clubs" transform="translate(-957.000000, -2610.000000)" sketch:type="MSArtboardGroup">
		<g id="Payment" transform="translate(-30.000000, 1919.000000)" sketch:type="MSLayerGroup">
			<g id="Group" transform="translate(169.000000, 480.000000)" sketch:type="MSShapeGroup">
				
					<g id="team" transform="translate(895.000000, 264.500000) scale(-1, 1) translate(-895.000000, -264.500000) translate(818.000000, 211.000000)">
					<g id="Page-1">
						<g id="Imported-Layers">
							<path id="Fill-1" fill="#4D4D4C" d="M423,262.3l-0.6-1.4l-4.6-0.2c0,0-4.2,3.8-5.5,4.2c-1.3,0.4-3.7,0.3-3.7,0.3         s4.2,2.9,5.3,2.7c0.8-0.1,6.1-3.1,8.7-4.5l-0.1-0.3C422.5,263.2,422.7,262.8,423,262.3"/>
							<path id="Fill-2" fill="#5B5C5A" d="M430.9,254.2l-7,0.4l-2.3,4l1.4,3.7c0.1-0.2,0.3-0.4,0.4-0.5c0.1-0.1,0.2-0.2,0.4-0.2         c0.5,0,1.3,1.1,1.3,1.1l1.9-2.7l0.1-0.3l1.4-0.5l0.8-1.5c0,0,0.9-0.3,1.9-0.2c0.2,0,0.4,0.1,0.6,0.1c0.1,0,0.1,0,0.2,0.1         c0.6,0.2,1.3,0.5,1.8,0.7c0.5,0.2,0.8,0.4,0.8,0.4L430.9,254.2"/>
							<path id="Fill-3" fill="#C0C0C0" d="M426,270.6c0.1,0.1,0.2,0.1,0.3,0.1c0.3-0.3,0.7-0.6,1.1-0.9l-0.7-0.5l-2.5-1.8         C424.4,269,425,270.2,426,270.6"/>
							<path id="Fill-4" fill="#D7D8D7" d="M426,270.6c-1-0.4-1.5-1.7-1.8-3l-0.1-0.1c-0.1,0.3-0.2,0.6-0.3,0.9         c-0.2,0.8-0.4,1.8-0.2,2.6c0.2,1.8,0.9,3.5,0.9,3.5s0.9-2.9,1.8-3.7c0,0,0,0,0.1-0.1C426.2,270.7,426.1,270.7,426,270.6"/>
							<path id="Fill-5" fill="#D7D8D7" d="M434.4,261.4c-0.1-1.1-0.4-2.4-0.6-2.9c-0.5-0.2-1.1-0.5-1.8-0.7l-0.7-0.2         c-1.1-0.2-1.9,0.2-1.9,0.2l-0.8,1.5l-1.4,0.5L427,260l-1.9,2.7c0,0-0.8-1.1-1.3-1.1c-0.1,0-0.2,0.1-0.4,0.2         c-0.1,0.1-0.3,0.3-0.4,0.5c-0.3,0.4-0.5,0.9-0.5,0.9l0.3,2.1l0.7,0.2l-0.2,1.5l4.6,3.2l1.3,0.9c0,0,1.4-1.1,1.8-2         c0.4-0.9,0.8-1.7,0.8-1.7l1.2-0.1C433,267.4,434.5,262.8,434.4,261.4"/>
							<path id="Fill-6" fill="#F3B329" d="M427.4,269.9c-0.4,0.3-0.8,0.6-1.1,1c-0.8,0.9-1.8,3.7-1.8,3.7s-0.7-1.7-0.9-3.5         c-0.1-0.8,0-1.8,0.2-2.6l-0.6-0.2c0,0-2,2.5-3.4,4.1l-4.1,8.5l0.5,0l6.6-0.6l1.2,0.7l0.4,0l3.3-9.9l0.2-0.7L427.4,269.9"/>
							<path id="Fill-7" fill="#4A4B4A" d="M422.8,280.3l-6.6,0.6l7.8,0.2L422.8,280.3"/>
							<path id="Fill-8" fill="#D7D8D7" d="M427.8,277.2c0.3,0.3,0.7,0.4,1,0.5c0-0.4,0-0.7,0-0.7c0.2,0,0.5,0,0.7,0         c-0.1-0.4-0.3-0.9-0.4-1.1c-0.1-0.2-0.3-0.5-0.4-0.7l-1.2,1.7C427.6,277,427.7,277.1,427.8,277.2"/>
							<path id="Fill-9" fill="#D79329" d="M427.7,271l-1.7,5c0.5,0.6,1.2,1.2,1.2,1.2l0.3-0.4l1.5-2.3L427.7,271"/>
							<path id="Fill-10" fill="#D7D8D7" d="M428.8,277.6c0.1,0.6,0.3,1.5,0.8,1.9c0.6,0.4,2.5,0.8,3.5,1l0.1-0.3         c-0.6-0.6-1.6-1.5-1.9-1.9c-0.3-0.5-0.8-1.1-1.8-1.3c0.1,0.4,0.2,0.7,0.2,0.7S429.3,277.7,428.8,277.6"/>
							<path id="Fill-11" fill="#C0C0C0" d="M428.8,277c0,0,0,0.3,0,0.7c0.4,0.1,0.8,0,0.8,0s-0.1-0.3-0.2-0.7         C429.3,277,429,277,428.8,277"/>
							<path id="Fill-12" fill="#B4B5B4" d="M433.7,280.6c0,0-0.2-0.2-0.5-0.5l-0.1,0.3C433.5,280.6,433.7,280.6,433.7,280.6"/>
							<path id="Fill-13" fill="#D7D8D7" d="M438.1,281.4c-0.1,0.9-0.5,2.1-1.3,2.5c0,0,3.8-0.3,4.3-1c0.4-0.7,0.7-1.1,0.6-1.4         c-0.1-0.2-2.6-1-3.7-1.3C438.1,280.5,438.2,280.9,438.1,281.4"/>
							<path id="Fill-14" fill="#D7D8D7" d="M437.9,280.1c-0.1-0.3-0.3-0.4-0.3-0.4l-2-0.1c0.2-0.4,0.5-0.9,0.5-1.5         c0-1-0.2-1.5-0.5-1.5c-0.3,0-1.4,2.6-1.5,2.9l-0.7,0l-0.2,0.8c0.3,0.3,0.5,0.5,0.5,0.5s-0.2,0-0.6-0.1L433,281         c0,0,3,3.1,3.8,2.8c0.8-0.3,1.2-1.6,1.3-2.5C438.2,280.9,438.1,280.5,437.9,280.1"/>
							<path id="Fill-15" fill="#D7D8D7" d="M415,273.4c0.2,0,0.4,0,0.4,0s-0.2,0.4-0.5,0.8c0.2,0.2,0.7,0.1,1.2-0.1l0.1-1.9         C415.8,272.5,415.3,273,415,273.4"/>
							<path id="Fill-16" fill="#D79329" d="M416.3,270.9l-0.2,4.7c0,0,1.9-1.3,3.4-2.9c0.1-0.1,0.2-0.2,0.3-0.4         c1.4-1.6,3.4-4.1,3.4-4.1L416.3,270.9"/>
							<path id="Fill-17" fill="#D7D8D7" d="M414.9,273.8c0-0.1,0.1-0.3,0.2-0.4c-0.6,0.1-1.6,0.3-2.1,0.8c-0.5,0.5-1.5,1.6-2.1,2.2         c0.1,0,0.2,0.1,0.2,0.1s0,0.1,0,0.2c1-0.4,2.7-1.1,3-1.3c0.2-0.2,0.6-0.7,0.9-1.2C414.8,274.1,414.8,274,414.9,273.8"/>
							<path id="Fill-18" fill="#C0C0C0" d="M415,273.4c-0.1,0.1-0.1,0.2-0.2,0.4c-0.1,0.2,0,0.3,0.1,0.4c0.3-0.4,0.5-0.8,0.5-0.8         S415.3,273.4,415,273.4"/>
							<path id="Fill-19" fill="#C0C0C0" d="M410.8,276.4c-0.3,0.3-0.6,0.6-0.6,0.6s0.3-0.1,0.8-0.3c0-0.1,0-0.2,0-0.2         S411,276.5,410.8,276.4"/>
							<path id="Fill-20" fill="#C0C0C0" d="M409.7,281.6c0.4,0.7,0.7,0.7,0.7,0.7l0.4-0.2c0,0-0.3-1-0.3-1.3c0-0.2,0.1-0.7,0.1-1.1         c-0.3,0.2-0.8,0.4-1.4,0.5C409.3,280.6,409.5,281.2,409.7,281.6"/>
							<path id="Fill-21" fill="#D7D8D7" d="M411.1,276.7c-0.5,0.2-0.8,0.3-0.8,0.3s0.2-0.2,0.6-0.6c-0.3-0.1-0.8-0.1-1.3,0.1         c-0.7,0.3-1.8,1.3-3.2,2c-1.4,0.7-2.8,1.3-2.8,1.7c0,0.4,3.4,0.6,4.4,0.3c0.4-0.1,0.9-0.2,1.4-0.4c0.5-0.1,1-0.3,1.4-0.5         c0.2-0.1,0.3-0.2,0.4-0.3C411.3,278.9,411.1,277.3,411.1,276.7"/>
							<path id="Fill-22" fill="#D7D8D7" d="M411.6,288.4l0.1,0.6c0.3,0.1,0.5,0.2,0.6,0.3c0.5,0.5-0.3,1.5-0.3,1.5s2.1-1.9,2.5-2.5         c0.2-0.4,0.6-1.2,0.9-1.8l-1.9-1.2L411.6,288.4"/>
							<path id="Fill-23" fill="#4D4D4C" d="M407.6,288.8c-0.9,0.3-2.9,1.5-4.4,2.4c0.1,0.1,0.2,0.2,0.2,0.4c0,0.1,0,0.2,0,0.4         l4.8-0.7c-0.2-0.8-0.3-1.7-0.4-2.5C407.8,288.8,407.7,288.8,407.6,288.8"/>
							<path id="Fill-24" fill="#F3B329" d="M407.9,288.7c0.1,0.8,0.3,1.7,0.4,2.5l1.7-0.3c-0.3-0.8-0.6-1.6-0.9-2.5         C408.7,288.6,408.2,288.6,407.9,288.7"/>
							<path id="Fill-25" fill="#4D4D4C" d="M411.6,290.5l0.2-1.2l-0.1-0.4c-0.6-0.2-1.6-0.4-2.6-0.3c0.3,0.8,0.5,1.6,0.9,2.5         l1.9-0.3L411.6,290.5"/>
							<path id="Fill-26" fill="#C0C0C0" d="M412.3,289.2c-0.1-0.1-0.3-0.2-0.6-0.3l0.1,0.4l-0.2,1.2l0.4,0.3         C411.9,290.7,412.8,289.7,412.3,289.2"/>
							<path id="Fill-27" fill="#777776" d="M403.3,291.2c-0.2-0.2-0.3-0.2-0.3-0.2l-2.8,0.4c0,0-2.7,4.8-2.7,5.8         c0,1,2.4,3.5,2.4,3.5l0.3-0.3c0,0-0.2-0.5-0.1-1.2c0.1-0.7,2.5-4.6,2.5-4.6s0.8-1.7,1-2.5l-1.9,0.3         C401.6,292.3,402.3,291.8,403.3,291.2"/>
							<path id="Fill-28" fill="#4A4B4A" d="M403.5,291.6c0-0.2-0.1-0.3-0.2-0.4c-1,0.6-1.7,1.1-1.7,1.1l1.9-0.3         C403.5,291.8,403.5,291.7,403.5,291.6"/>
							<path id="Fill-29" fill="#D7D8D7" d="M429.8,285.9l0-0.3c0,0-1.5-0.9-2.4-1.2c-0.5-0.2-1.2-0.4-1.7-0.6l-0.9,1.6l2.9,1.3         l0.9-0.7l0.2,0.1l0.1-0.5L429.8,285.9"/>
							<path id="Fill-30" fill="#777776" d="M424,281l-7.8-0.2l-0.3,0l-3.4,3.8l0.9,0.5l3,1.9l3.1-2.7l4.9,1.7l2-3.6L424,281"/>
							<path id="Fill-31" fill="#4D4D4C" d="M431.3,288l-0.7-1.8l-0.8-0.3l-0.1,0.6l-0.8-0.4l-0.3,2.4l0.7,0.9         C430,288.9,430.7,288.5,431.3,288"/>
							<path id="Fill-32" fill="#F3B329" d="M431.3,288c-0.6,0.5-1.3,0.9-1.9,1.4l0.8,1c0.6-0.3,1.2-0.5,1.7-0.9L431.3,288"/>
							<path id="Fill-33" fill="#4D4D4C" d="M433.5,294.2l-1.7-4.7c-0.5,0.4-1.1,0.6-1.7,0.9l3.2,4L433.5,294.2"/>
							<path id="Fill-34" fill="#C0C0C0" d="M429.8,285.9l-0.8-0.3l-0.1,0.5l0.8,0.4L429.8,285.9"/>
							<path id="Fill-35" fill="#777776" d="M440.7,290.5l-0.8,1.3l-5.9,1.9l-0.6,0.4l0.3,0.9l-0.6-0.7l-0.2,0.2l1.8,4.3         c0,0,2.9-2,3.7-3c0.8-1,3.1-4.2,3.1-4.2l-0.2-1.2L440.7,290.5"/>
							<path id="Fill-36" fill="#4A4B4A" d="M433.5,294.2l-0.2,0.2l0.6,0.7L433.5,294.2"/>
							<path id="Fill-37" fill="#4D4D4C" d="M421.2,274.9c0,0-1.1,2.5,0.5,3.9c2.5-0.8,2.9-2.7,3-3.6c0,0-1.3-0.1-1.6-0.9         C422.4,274.9,421.7,275.1,421.2,274.9"/>
							<path id="Fill-80" fill="#D79329" d="M427,336.2l0.5,4c0,0-4.6,2.4-10.5,2.4c-5.9,0-8.5-6.3-8.5-6.3l2.2-4.8l-3.6-1.1l-9,9.3         l30.3,11.2l9-11.7L427,336.2"/>
							<path id="Fill-81" fill="#F3B329" d="M427,336.2l-2.7-19.9c-0.7,0.3-1.7,0.4-2.8,0.2c-1.6-0.3-2.8-1.2-3.1-2.1l-9.9,22         c0,0,2.7,6.3,8.5,6.3c5.9,0,10.5-2.4,10.5-2.4L427,336.2"/>
							<path id="Fill-82" fill="#D79329" d="M421.5,316.4c1,0.2,2,0.1,2.8-0.2l-0.1-1c0,0-2.2-1.6-3.2-1.6c-1,0-2.4,0.4-2.4,0.4         l-0.1,0.3C418.7,315.2,419.9,316.1,421.5,316.4"/>
							<path id="Fill-84" fill="#D79329" d="M433.9,298.4l0.2,1.2c0,0-0.5,3.8-4.5,3.6c-4-0.2-4.7-3.1-4.7-3.1l0.3-0.6l-3.7,0.5         l3.4,5.5l13.6-1.6l-1.2-5.8L433.9,298.4"/>
							<path id="Fill-85" fill="#F3B329" d="M434.1,299.6l-1.5-8.2c-0.3,0.3-0.9,0.4-1.5,0.3c-0.7-0.1-1.2-0.4-1.4-0.8l-4.8,9.1         c0,0,0.6,2.9,4.7,3.1C433.6,303.4,434.1,299.6,434.1,299.6"/>
							<path id="Fill-86" fill="#D79329" d="M431.2,291.8c0.6,0.1,1.1-0.1,1.5-0.3l-0.2-0.9c0,0-0.2-0.7-0.9-1c-0.1,0-0.1,0-0.2,0         c-0.4,0-0.8,0-1.1,0.1c-0.5,0.4-0.6,1.2-0.6,1.2l0,0.1C429.9,291.3,430.5,291.7,431.2,291.8"/>
							<path id="Fill-87" fill="#477484" d="M397.1,278.6c0.1,0.1,0.1,0.3,0.2,0.5v-0.6L397.1,278.6"/>
							<path id="Fill-88" fill="#7E9EAA" d="M396.1,309.3v0.6c0.5,0.9,1.4,2.7,2.3,3.5c1.2,1.1,1.6,1.4,1.6,1.4l2-1.8         c0,0-0.7-1.9-1.6-3.1c-0.6-0.8-1.8-1.8-2.7-2.4l0.5,1.2L396.1,309.3"/>
							<path id="Fill-89" fill="#7E9EAA" d="M346.5,307.5c-0.6,0.5-1.5,1.3-1.9,1.9c-0.7,1-1.6,3.8-1.6,3.8l2,1.1c0,0-1,1.9-0.7,2.9         c0.3,0.9,3.1,1.8,3.1,1.8s2.3-4.7,3.6-7.1c-0.9-0.4-1.6-0.7-2-1C348.1,310.3,346.9,308.2,346.5,307.5"/>
							<path id="Fill-90" fill="#C0C0C0" d="M369.9,276l-0.2-0.7l-0.2,0.1c0.7,3.1,3.4,5.7,5.9,7.5c0.5-2.1,1.1-4,2-6L369.9,276"/>
							<path id="Fill-91" fill="#D7D8D7" d="M369.6,275.3l-0.5,0.2c1.1,3.7,2.9,8.3,5.6,10.7c0.3-1.2,0.5-2.3,0.8-3.4         C373,281.1,370.3,278.4,369.6,275.3"/>
							<path id="Fill-92" fill="#D79329" d="M364.7,269.1c-0.4-0.3-1.3-1.1-2.2-2c-0.7,1.9-1.6,4.7-1.8,6.5c0.9-0.6,1.8-0.8,1.8-0.8         s0,0.6-0.1,1.5c1.3-0.6,2.7-1.6,3.6-2.2c-0.3-0.3-0.5-0.6-0.9-1C364.6,270.4,364.5,269.7,364.7,269.1"/>
							<path id="Fill-93" fill="#D79329" d="M375.3,247.7l-10.6,5.4c0,0-4.9,9.4-4.2,11.3c0.3,0.8,1.1,1.8,1.9,2.7         c0.9,0.9,1.8,1.7,2.2,2c0.1-0.4,0.3-0.8,0.5-1.2c0.5-0.9,1.3-1.5,1.4-1.8c0.3-0.5,4,0.3,4,0.3l0.3-4.2l-1.7-2.8         c0,0,2.3-4.2,3.8-6.9c1.6-2.8,7.1-2.4,8.8-2.3L375.3,247.7"/>
							<path id="Fill-94" fill="#D7D8D7" d="M381.9,250.3c-1.7-0.2-7.3-0.5-8.8,2.3c-1.6,2.8-3.8,6.9-3.8,6.9l1.7,2.8l-0.3,4.2         c0,0-3.6-0.9-4-0.3c-0.2,0.2-0.9,0.9-1.4,1.8c-0.2,0.4-0.4,0.8-0.5,1.2c-0.2,0.6-0.1,1.3,0.4,1.9c0.3,0.4,0.6,0.7,0.9,1         c1,1,1.6,1.3,1.6,1.3l1.4-0.9l0.8,2.9l0.2,0.7l7.5,0.9l3.4,0.4l5.4,0.6l2.4-1.2v-7.8l2.1-1.6         C390.8,267.3,383.6,250.5,381.9,250.3"/>
							<path id="Fill-95" fill="#D79329" d="M360.7,273.5c-1.1,0.7-2.2,1.7-2.1,3.3c0.7-0.4,1.3-0.6,1.3-0.6s0,0.8-0.2,1.8         c1.9-0.9,2.5-2.6,2.7-3.8c-0.6,0.3-1.1,0.5-1.6,0.6C360.6,274.5,360.6,274.1,360.7,273.5"/>
							<path id="Fill-96" fill="#F3B329" d="M362.5,272.7c0,0-0.9,0.3-1.8,0.8c-0.1,0.6-0.1,1,0,1.3c0.5-0.1,1.1-0.3,1.6-0.6         C362.5,273.3,362.5,272.7,362.5,272.7"/>
							<path id="Fill-97" fill="#D79329" d="M358.6,276.8c-1.1,0.7-2.6,2.1-2.7,4.6l1-0.9c0,0,0.2,0.5,0.5,1.2         c1.3-1.1,2-2.6,2.2-3.7c-0.2,0.1-0.4,0.2-0.6,0.3C358.8,277.7,358.6,277.3,358.6,276.8"/>
							<path id="Fill-98" fill="#F3B329" d="M359.9,276.2c0,0-0.6,0.2-1.3,0.6c0,0.4,0.2,0.9,0.4,1.4c0.2-0.1,0.4-0.2,0.6-0.3         C359.9,277,359.9,276.2,359.9,276.2"/>
							<path id="Fill-99" fill="#D79329" d="M356,281.4l-3.4,3c0,0,4.2,4.2,5.4,2.6c0.8-1.1,0-3.7-0.5-5.2c-0.4,0.3-0.8,0.6-1.4,0.9         C356,282.2,356,281.7,356,281.4"/>
							<path id="Fill-100" fill="#F3B329" d="M356,281.4c0,0.4,0,0.8,0.1,1.2c0.5-0.3,1-0.5,1.4-0.9c-0.3-0.7-0.5-1.2-0.5-1.2         L356,281.4"/>
							<path id="Fill-101" fill="#F3B329" d="M359.2,291.8c0,0.1,0,0.3,0,0.4c1-1.4,1.7-2.3,1.7-2.3c0.3,1.1,0.5,2.1,0.4,3.1         l2.9-4.2l1.4-9.3C363.4,282.2,359.2,287.9,359.2,291.8"/>
							<path id="Fill-102" fill="#F3B329" d="M382.7,289.1c-0.4-0.7-0.9-1.6-1.2-2.5c-2.3-6-1.4-9.2-1.4-9.2s0.3,0.2,0.8,0.6         l-0.1-0.7l-3.4-0.4c-1.3,3-2,6-2.8,9.4c-2.6-2.4-4.4-7-5.6-10.7l-2.9,1.2l-4.3,28.1l1.5-0.1l-0.1-1.4l20.6-0.3l0.1,0.3         l1.2-0.1L382.7,289.1"/>
							<path id="Fill-103" fill="#F3B329" d="M359.2,292.2c-1.5,2-3.5,5.1-4.6,7.5c0.9,0.5,1.9,1.4,2.8,2.1c1.6-1.8,3.9-5.1,4-8.9         l-0.6,0.9C360.8,293.9,359.3,297,359.2,292.2"/>
							<path id="Fill-104" fill="#D79329" d="M360.9,289.9c0,0-0.7,0.9-1.7,2.3c0.1,4.8,1.6,1.7,1.6,1.7l0.6-0.9         C361.4,292,361.3,290.9,360.9,289.9"/>
							<path id="Fill-105" fill="#7E9EAA" d="M357.4,301.8c-0.8-0.8-1.9-1.6-2.8-2.1c-0.5-0.3-1-0.5-1.3-0.4         c-1.4,0.2-2.3,4.2-2.3,4.2l5.6,3.6l2.3-3.8C358.8,303.2,358.2,302.6,357.4,301.8"/>
							<path id="Fill-106" fill="#7E9EAA" d="M357.8,315.9c0,0,1-0.2,1.4-1.4c0.4-3.3-1.8-5.9-3.1-7.3l-0.7,4.4         C356.8,313.1,357.8,315.9,357.8,315.9"/>
							<path id="Fill-107" fill="#7E9EAA" d="M350.7,315.9c0.1,2.5,0.7,4.7,0.7,4.7l0.8,0.6l3.2-1.1l0.1-1.2l-0.7-5.6         c-0.5-0.2-2-0.8-3.4-1.4C351.1,312.8,350.6,314.3,350.7,315.9"/>
							<path id="Fill-108" fill="#96B1BB" d="M351,303.4l-4.7,3.8c0,0,0.1,0.1,0.1,0.3c0.4,0.7,1.6,2.8,2.6,3.4c0.4,0.2,1.2,0.6,2,1         c0.1,0,0.2,0.1,0.3,0.1c1.4,0.6,2.9,1.2,3.4,1.4c0.1,0.1,0.2,0.1,0.2,0.1l1-6.2l0.1-0.5L351,303.4"/>
							<path id="Fill-109" fill="#4A4B4A" d="M383.8,303l-20.6,0.3l0.1,1.4l20.5-1.4L383.8,303"/>
							<path id="Fill-110" fill="#D7D8D7" d="M366.1,321l1.2,2.4l0-2.6l1.4,1.6l0.2-1.2l1.4-1.7l0-3l-4.4,0.1L366.1,321"/>
							<path id="Fill-111" fill="#D7D8D7" d="M381.6,322.7l1.2-0.9l0.3-6.4l-4.6,0.6l0.1,2.8l2.1,2.5v0.8l1.3-1.2L381.6,322.7"/>
							<path id="Fill-112" fill="#777776" d="M385.4,313.4c-0.9,0.1-1.6,0-1.6,0v-1.6c0,0,0.6-0.5,1.2-1l-1.2-7.5l-20.5,1.4         l0.6,12.1l1.8,0l4.4-0.1l2.2,0l0.7-4.6l3.3-0.3l0.3,4.5l1.8-0.2l4.6-0.6l2.7-0.3L385.4,313.4"/>
							<path id="Fill-113" fill="#4D4D4C" d="M372,326.7l-3.4-4.1l-0.2,1.2h-1l-0.1-0.3l0.1,3.2C368.8,326.7,370.4,326.7,372,326.7"/>
							<path id="Fill-114" fill="#F3B329" d="M372,326.7c-1.6,0.1-3.1,0.1-4.7,0l0.1,3.8c1,0.1,2.1,0.2,3.1,0.2L372,326.7L372,326.7         "/>
							<path id="Fill-115" fill="#4D4D4C" d="M367.5,336.2l0.3-0.2l0.5,0.5l2.2-5.8c-1,0-2.1-0.1-3.1-0.2L367.5,336.2"/>
							<path id="Fill-116" fill="#C0C0C0" d="M367.2,323.5l0.1,0.3h1l0.2-1.2l-1.4-1.6L367.2,323.5"/>
							<path id="Fill-117" fill="#4D4D4C" d="M381.6,322.7l-1,0.7v-1.3l-3.9,3.5l0.1,0.8c1.4-0.1,2.7-0.2,4.1-0.3L381.6,322.7"/>
							<path id="Fill-118" fill="#4D4D4C" d="M377.5,330.2l1.2,6.7l0.2,0l1.4-7.2C379.3,329.9,378.4,330.1,377.5,330.2"/>
							<path id="Fill-119" fill="#F3B329" d="M380.9,326c-1.4,0.1-2.7,0.2-4.1,0.3l0.7,3.9c0.9-0.1,1.8-0.3,2.7-0.4L380.9,326"/>
							<path id="Fill-120" fill="#C0C0C0" d="M381.6,322.7l0.3-1.8l-1.3,1.2v1.3L381.6,322.7"/>
							<path id="Fill-121" fill="#777776" d="M367.5,336.2l-4.6,3.4l-4.7,2l-5-0.2l-0.1,1.4l4.6,2.3l6.9-1.4l5.5-0.5l-0.4-5.1         l-1.4-1.6l-0.7,1.8L367.5,336.2"/>
							<path id="Fill-122" fill="#4A4B4A" d="M367.5,336.2l0,2.1l0.7-1.8l-0.5-0.5L367.5,336.2"/>
							<path id="Fill-123" fill="#777776" d="M380.1,337.1l-1.2-0.2l-0.1,0.5l-0.1-0.5l-1.2-0.2l-1.4,5.4l8.8,2.7l5.9-0.9v-1.5         l-2-0.5L380.1,337.1"/>
							<path id="Fill-124" fill="#4A4B4A" d="M378.9,337l-0.2,0l0.1,0.5L378.9,337"/>
							<path id="Fill-125" fill="#F3B329" d="M386.9,293.4c0-1.2,0-2.2,0-2.2s0.5,0.5,1.2,1.3c-0.3-2.2-1.1-6.3-2.5-9         c-1.5-2.7-3.5-4.6-4.6-5.5l1.8,11.1C384.1,291.4,385.7,292.7,386.9,293.4"/>
							<path id="Fill-126" fill="#D79329" d="M381.5,286.6c0.4,0.9,0.8,1.8,1.2,2.5l-1.8-11.1c-0.5-0.4-0.8-0.6-0.8-0.6         S379.2,280.5,381.5,286.6"/>
							<path id="Fill-127" fill="#F3B329" d="M386.9,293.4c0,1.5,0.2,3.4,0.4,4.6c0.3,1.4,1,2.9,1.4,3.9l3.7-2.4         c-0.5-1.1-1.2-2.7-2-4c-0.6-1.1-1.6-2.2-2.4-3c0.1,1,0.2,1.6,0.2,1.6S387.7,293.9,386.9,293.4"/>
							<path id="Fill-128" fill="#D79329" d="M386.8,291.2c0,0,0,0.9,0,2.2c0.8,0.5,1.4,0.7,1.4,0.7s-0.1-0.6-0.2-1.6         C387.4,291.7,386.8,291.2,386.8,291.2"/>
							<path id="Fill-129" fill="#7E9EAA" d="M394.1,298.3l-1.7,1.1l-4.7,3l0.8,3.9l0.4-0.2l0-1.1l6.8-2.8l0.3,0.8l0.4-0.2         L394.1,298.3"/>
							<path id="Fill-130" fill="#477484" d="M388.9,305l0,1.1l7.1-3.1l-0.3-0.8L388.9,305"/>
							<path id="Fill-131" fill="#7E9EAA" d="M389,311l-0.1-4.6l-1.3,0.2c0,0-1,2.5-1.6,3.3c-0.2,0.3-0.6,0.6-1,1         c-0.6,0.5-1.2,1-1.2,1v1.6c0,0,0.7,0.1,1.6,0c0.7-0.1,1.6-0.3,2.4-0.8c0.6-0.4,1.1-1,1.5-1.4L389,311"/>
							<path id="Fill-132" fill="#7E9EAA" d="M390.2,311.4l-0.1,0l-0.9,5.9l1.6,0.1l0.2,1.3l3.1-0.8l0.5-1.4l1.5-1.5v-5.1         c-0.1-0.2-0.2-0.4-0.2-0.5L390.2,311.4"/>
							<path id="Fill-133" fill="#96B1BB" d="M397.6,307.3l-1.6-4.2l-7.1,3.1l0,0.2l0.1,4.6l0.3,0.1l0.8,0.3l0.1,0l5.7-2l0.2-0.1         l2-0.7L397.6,307.3"/>
							<path id="Fill-134" fill="#4D4D4C" d="M377.9,290.4c0,0,0.7,5.1-2.5,7c-3.8-2.4-3.6-6.1-3.4-7.8c0,0,2.2,0.4,3.1-0.9         C375.9,289.9,377,290.4,377.9,290.4"/>
							<path id="Fill-135" fill="#477484" d="M446.7,278.1c0,0,1.2-1,2.6-1.8c0.4-0.2,1.7-0.6,3.4-1.1c0-0.1,0-0.3-0.1-0.4         c-1.9-2.2-4.5-5.2-4.5-6c0-1.2,1.9-12.5,1.9-12.5l7.2-1.2c0,0,13.5,2,13.6,2.6c0.2,1-4.9,14.5-4.9,14.5l-1.2,0.9l0.3,1.6         l2.5,1.6l6.8-12.5c0,0-3.9-14.7-4.4-15.2c-0.5-0.5-7.7-3.3-10-3.7c-2.3-0.4-10,5.6-10,5.6s-2.5,5.4-3,6.7         c-0.5,1.3-6,12.2-6,12.2l-7.7,3.4c0,0,3.8,0.1,7.9-0.3c-0.3,2-5.1,6-5.1,6s3.6-0.5,7.3-2.3c-1.3,1.2-0.9,4-0.9,4l4-0.3         l0.3-0.5L446.7,278.1"/>
							<path id="Stroke-136" fill="none" stroke="#D79329" stroke-width="0.569" d="M452.7,274.9c0,0.1,0,0.3,0.1,0.4         c0.1,0,0.1,0,0.2-0.1C452.9,275.1,452.8,275,452.7,274.9L452.7,274.9L452.7,274.9z"/>
							<path id="Fill-137" fill="#C0C0C0" d="M460.3,281.7c0.5-1.1,0.9-2.2,1.2-3c0.2-0.5,0.3-1,0.3-1.2c0-0.5,0-1.3,0-2.1l-3.7,2.8         l-3.3-1c0,0-0.4-0.5-1.1-1.2C454.8,279,457.3,280.7,460.3,281.7"/>
							<path id="Fill-138" fill="#D7D8D7" d="M453.7,276c-0.2-0.2-0.5-0.5-0.7-0.8c-0.1,0-0.1,0-0.2,0.1c0.2,1.3,0.5,2.8,0.9,4         c0.3,1,0.7,1.9,1.1,2.4c1.6,2,3.5,3.1,3.5,3.1s1.1-0.9,2.1-3.2C457.3,280.7,454.8,279,453.7,276"/>
							<path id="Fill-139" fill="#D7D8D7" d="M470.8,257.8c-0.1-0.6-13.6-2.6-13.6-2.6l-7.2,1.2c0,0-1.9,11.2-1.9,12.5         c0,0.8,2.6,3.8,4.5,6c0.1,0.1,0.2,0.2,0.3,0.3c1,1.2,1.8,2,1.8,2l3.3,1l3.7-2.8l4.1-3.1C465.9,272.3,471,258.8,470.8,257.8"/>
							<path id="Stroke-140" fill="none" stroke="#D79329" stroke-width="0.569" d="M446.8,279.4l-0.3,0.5l0.4,0L446.8,279.4         L446.8,279.4z"/>
							<path id="Fill-141" fill="#F3B329" d="M466.9,283.3c-0.8-1.5-1.8-3.5-2.3-4.9c-0.2-0.5-0.3-1-0.3-1.2c0-1.3,0.5-2.7,0.5-2.7         l0.3,0.2l-0.3-1.6l-3,2.2c0,0.8,0,1.6,0,2.1c0,0.2-0.1,0.7-0.3,1.2c-0.9,2.5-3.3,6.2-3.3,6.2s-2-1.1-3.5-3.1         c-0.4-0.5-0.8-1.4-1.1-2.4c-0.4-1.3-0.7-2.8-0.9-4c-1.7,0.5-3,0.9-3.4,1.1c-1.4,0.8-2.6,1.8-2.6,1.8l0.1,1.3l2,20.7l2-0.4         l0-0.1c0,0,7-3.4,10.3-4.4c3.3-0.9,6.9-1.9,6.9-1.9l1.5,2.6L466.9,283.3"/>
							<path id="Fill-142" fill="#D7D8D7" d="M442.8,290.3c-0.1,0.4-0.1,0.9-0.1,1.4c0.6-0.3,1.3-0.7,1.6-0.7c0.3,0,0.9,0.3,1.3,0.9         c0.4-0.5,0.7-0.9,0.8-1.3c0.2-0.6,0.3-1.1,0.3-1.5l-3.1-1.9C443.4,288.2,442.9,289.6,442.8,290.3"/>
							<path id="Fill-143" fill="#D79329" d="M446.9,279.8l-0.4,0l-4.2,6.5l1.4,0.9l3.1,1.9l1,0.6L446.9,279.8"/>
							<path id="Fill-144" fill="#D7D8D7" d="M443.2,294.4c-0.3,0.1-0.5-1.4-0.5-2.7c-0.4,0.2-0.7,0.4-0.7,0.4s-1.3,4.2-1.4,6.4         c0,1.3,0.2,3.6,0.5,5.3l1.4-0.8c0.2-0.5,0.3-0.9,0.4-1.2c0.3-0.8,2.8-6,3.2-7.9c0.2-0.9-0.1-1.6-0.4-2.1         C444.8,293.1,443.5,294.3,443.2,294.4"/>
							<path id="Fill-145" fill="#C0C0C0" d="M444.4,291.1c-0.3,0-1.1,0.3-1.6,0.7c0,1.3,0.2,2.8,0.5,2.7c0.3-0.1,1.6-1.4,2.5-2.5         C445.3,291.4,444.7,291.1,444.4,291.1"/>
							<path id="Fill-146" fill="#D7D8D7" d="M441.1,303.8l-0.8,0.4l-0.9,6l2.7,2.3l4-3.8l0.6-2.3l-4-3.5l-0.2,0.1         c-0.5,1.3-1.1,3.1-1.1,3.1S441.3,305.1,441.1,303.8"/>
							<path id="Fill-147" fill="#C0C0C0" d="M441.4,306.1c0,0,0.6-1.8,1.1-3.1l-1.4,0.8C441.3,305.1,441.4,306.1,441.4,306.1"/>
							<path id="Fill-148" fill="#D7D8D7" d="M471.1,287c0.4,0.3,1.4,1,2,1.5l0.3-0.9c0,0,0.4-0.3,1.2-0.5c-0.5-0.7-1-1.4-1.3-2         c-0.6-0.8-1.5-2.1-2.1-3l-2.4,2.1C469.4,285,470.7,286.7,471.1,287"/>
							<path id="Fill-149" fill="#D79329" d="M467.6,276.4l-2.8-1.9c0,0-0.5,1.4-0.5,2.7c0,0.2,0.1,0.7,0.3,1.2         c0.5,1.4,1.6,3.4,2.3,4.9c0.5,1,1,1.8,1,1.8l5.5-4.9L467.6,276.4"/>
							<path id="Fill-150" fill="#D7D8D7" d="M473.6,288.8c0,0-0.2-0.1-0.5-0.4l-0.4,1.2c1.3,1.6,9,2.4,10.4,3         c0.7,0.3,1.4,0.6,1.9,0.9l0.4-0.5c0,0,0.4,0.2,1,0.4l0.1-0.1c0,0-0.9-1.5-2-2.5c-1-1-2.5-1.9-6.1-3.3c-1.8-0.7-3-0.7-3.8-0.6         c0.6,0.9,1.1,1.7,1.1,1.7L473.6,288.8"/>
							<path id="Fill-151" fill="#C0C0C0" d="M473.1,288.5c0.3,0.2,0.5,0.4,0.5,0.4l2.1-0.1c0,0-0.5-0.8-1.1-1.7         c-0.8,0.1-1.2,0.5-1.2,0.5L473.1,288.5"/>
							<path id="Fill-152" fill="#D7D8D7" d="M485,293.5l-3.7,5.1l1.9,2c0,0,1.3,3.4,2.1,3.2c0.8-0.2,4.1-4.3,4.1-4.3         s-1.1-4-1.8-4.9c-0.3-0.4-0.8-0.7-1.2-1l-0.5,0.5C485.8,294,485.5,293.8,485,293.5"/>
							<path id="Fill-153" fill="#C0C0C0" d="M485,293.5c0.5,0.3,0.8,0.4,0.8,0.4l0.5-0.5c-0.5-0.3-1-0.4-1-0.4L485,293.5"/>
							<path id="Fill-154" fill="#D79329" d="M469.6,295.9l-1.5-2.6c0,0-3.6,1-6.9,1.9c-3.3,0.9-10.3,4.4-10.3,4.4l0,0.1l18.8-3.7         L469.6,295.9"/>
							<path id="Fill-155" fill="#D7D8D7" d="M449.4,316.2c0.1,1.4,0.3,1.6,0.3,1.6l1-0.3l0.2-0.7l-0.7-1.4l2.2-1.4l0.6,0.6l0.6-0.4         l0.8-3.2l-4.3-0.7C449.8,312.2,449.3,315.3,449.4,316.2"/>
							<path id="Fill-156" fill="#D7D8D7" d="M475,315.6l-0.2-1l0.1-1.8l-2.3-6.6l-4.8,2.4c0.7,1.6,1.8,3.8,2.5,4.6         c1.2,1.4,3.8,4.4,3.8,4.4l0.7-0.5l-0.6-1.1C474.2,315.9,474.5,315.8,475,315.6"/>
							<path id="Fill-157" fill="#777776" d="M469.6,295.9l0,0.1l-18.8,3.7l-2.2,10.3l1.5,0.2l4.3,0.7l1.6,0.3l2-7.9l2.9-0.7         l4.3,7.2l7.2-3.6l2.5-1.2L469.6,295.9"/>
							<path id="Fill-158" fill="#4D4D4C" d="M475,315.6l0.2,1.1l-0.4,0.3l0.8,1.4c0,0,1.5-0.1,3.1-0.2c-0.4-1.1-0.8-2.3-1-3.5         C476.6,315,475.6,315.3,475,315.6"/>
							<path id="Fill-159" fill="#F3B329" d="M481.5,318.1c-0.5-1.4-1.2-2.7-1.7-4c-0.6,0.1-1.4,0.4-2.2,0.6c0.2,1.2,0.5,2.4,1,3.5         c0.9-0.1,1.8-0.1,2.5-0.1C481.2,318.1,481.3,318.1,481.5,318.1"/>
							<path id="Fill-160" fill="#4D4D4C" d="M481,314c-0.2-0.1-0.7,0-1.2,0.1c0.6,1.3,1.2,2.6,1.7,4c1.4,0.3,4.7,1.6,7.1,2.7         l0.5-0.7C486.2,317.8,481.7,314.2,481,314"/>
							<path id="Fill-161" fill="#C0C0C0" d="M475,315.6c-0.5,0.2-0.8,0.3-0.8,0.3l0.6,1.1l0.4-0.3L475,315.6"/>
							<path id="Fill-162" fill="#4D4D4C" d="M456.3,317.7l-3.3-3.1l-1.7,1.1l-0.4,1.1l2,3.9C454,319.8,455.2,318.8,456.3,317.7"/>
							<path id="Fill-163" fill="#F3B329" d="M457.7,319l-1.4-1.4c-1.1,1.1-2.2,2.1-3.4,3.1l1.1,2.2         C455.2,321.6,456.4,320.2,457.7,319"/>
							<path id="Fill-164" fill="#4D4D4C" d="M457.7,319c-1.3,1.2-2.5,2.6-3.8,3.9l3.5,7.2c0.1,0,0.3-0.1,0.4-0.1L457.7,319         L457.7,319"/>
							<path id="Fill-165" fill="#C0C0C0" d="M450.2,315.4l0.7,1.4l0.4-1.1l1.7-1.1l-0.6-0.6L450.2,315.4"/>
							<path id="Fill-166" fill="#777776" d="M457.5,330.1c-0.1,0-0.2,0.1-0.3,0.1c0,0-4.1,2.9-6.3,4c-2.3,1.1-7.1,3-7.1,3v2.2         l9.9-0.5c0,0,3.4-0.7,5.6-1c2.2-0.3,4.8-0.2,4.8-0.2s-2.8-7.8-6-7.7l0,1L457.5,330.1"/>
							<path id="Fill-167" fill="#4A4B4A" d="M457.9,331l0-1c-0.1,0-0.3,0-0.4,0.1L457.9,331"/>
							<path id="Fill-168" fill="#777776" d="M490.3,318.6l-1.2,1.6c1.4,1.1,2.5,2,2.5,2s-1.3-0.6-3-1.3l-0.3,0.5l3.2,6.3l2.8,5.3         l-0.3,1.8l1.4,0.3l1.6-6.4c0,0-1.6-10.3-2.5-11.7L490.3,318.6"/>
							<path id="Fill-169" fill="#4A4B4A" d="M489.1,320.1l-0.5,0.7c1.7,0.7,3,1.3,3,1.3S490.6,321.3,489.1,320.1"/>
							<path id="Fill-170" fill="#4D4D4C" d="M455.6,287.4c0,0,0.8,3.7,4.4,5.3c2.1-3.2,2.4-4.5,2.1-6.2c0,0-2.5,0-3.5-1.1         C457.7,286.7,456.6,287.3,455.6,287.4"/>
						</g>
					</g>
				</g>
			</g>
		</g>
	</g>
</g>
</svg>