<?xml version="1.0" encoding="UTF-8" standalone="no"?>
<svg width="497px" height="340px" viewBox="0 0 497 340" version="1.1" xmlns="http://www.w3.org/2000/svg" xmlns:xlink="http://www.w3.org/1999/xlink" xmlns:sketch="http://www.bohemiancoding.com/sketch/ns">
    <!-- Generator: Sketch 3.3.3 (12072) - http://www.bohemiancoding.com/sketch -->
    <title>Group</title>
    <desc>Created with Sketch.</desc>
    <defs></defs>
    <g id="Welcome" stroke="none" stroke-width="1" fill="none" fill-rule="evenodd" sketch:type="MSPage">
        <g id="Front" sketch:type="MSArtboardGroup" transform="translate(-821.000000, -1492.000000)">
            <g id="Communication" sketch:type="MSLayerGroup" transform="translate(121.000000, 1360.000000)">
                <g id="Group" transform="translate(700.000000, 132.000000)" sketch:type="MSShapeGroup">
                    <path d="M412.61,201.865 C412.76,201.795 412.93,201.74 413.08,201.673 L412.28,199 L412,199.223 L412.61,201.865" id="Fill-86" fill="#EADAD0"></path>
                    <path d="M426.97,204.055 L443.14,175 L421,192.55 L426.97,204.055" id="Fill-87" fill="#EADAD0"></path>
                    <path d="M441.69,146.889 C438.78,147.908 435.34,149.905 433.35,151.436 C431.94,143.225 423.46,131.941 423.46,131.941 L427.27,122.982 C427.27,122.982 408.72,114.582 399.86,114 L385,157.484 L395.47,164.786 L393.75,191.604 L411.73,199.872 L412.14,199.545 L412.42,199.322 L420.6,192.847 L442.74,175.297 L446.92,171.985 C442.6,162.866 439.7,153.442 441.69,146.889" id="Fill-88" fill="#EADAD0"></path>
                    <path d="M478.820328,167.699 C476.460328,154.513 459.370328,139.551 453.080328,136 C453.090328,136.55 453.100328,137.102 453.100328,137.658 C453.190328,144.673 450.880328,150.139 449.100328,148.691 C448.190328,147.947 447.100328,147.212 445.860328,146.689 C445.810328,146.666 445.750328,146.659 445.690328,146.639 C445.230328,147.25 444.860328,147.551 444.620328,147.44 C444.620328,147.44 444.550328,147.083 444.390328,146.522 C443.590328,146.579 442.650328,146.802 441.640328,147.155 C439.650328,153.708 442.550328,163.132 446.870328,172.251 C453.740328,186.735 464.170328,200.409 464.170328,200.409 L496.430328,209.853 C482.690328,200.893 481.390328,182.121 478.820328,167.699" id="Fill-89" fill="#F3B329"></path>
                    <path d="M452.82,135.654443 C452.71,129.071443 452.4,122.902443 452.4,122.902443 L439.68,102.000443 C439.68,102.000443 401.52,101.737443 397,114.029443 C397.71,113.882443 398.57,113.856443 399.55,113.920443 C408.41,114.502443 426.96,122.902443 426.96,122.902443 L423.15,131.861443 C423.15,131.861443 431.63,143.145443 433.04,151.356443 C435.03,149.825443 438.47,147.828443 441.38,146.809443 C442.39,146.456443 443.33,146.233443 444.13,146.176443 C444.29,146.737443 444.36,147.094443 444.36,147.094443 C444.6,147.205443 444.97,146.904443 445.43,146.293443 C445.49,146.313443 445.55,146.320443 445.6,146.343443 C446.84,146.866443 447.93,147.601443 448.84,148.345443 C450.62,149.793443 452.93,144.327443 452.84,137.312443 C452.84,136.756443 452.83,136.204443 452.82,135.654443" id="Fill-90" fill="#F3B329"></path>
                    <path d="M218.851249,143.904 C217.751249,142.147 217.171249,140.156 217.041249,138 C208.271249,139.633 199.081249,140.531 189.761249,140.531 C181.441249,140.531 173.661249,139.871 166.491249,138.7 C159.691249,145.747 155.861249,153.307 157.301249,159.714 C159.301249,168.629 166.031249,179.018 176.421249,187.468 C177.831249,188.608 166.951249,214.037 166.951249,214.037 C166.951249,214.037 184.181249,192.995 185.971249,194.02 C196.161249,199.88 208.661249,203.77 222.861249,203.77 C227.251249,203.77 231.641249,203.341 235.951249,202.573 L255.951249,224.427 L247.971249,199.495 C267.021249,193.164 282.801249,180.879 287.671249,170.156 C255.461249,166.986 230.121249,161.853 218.851249,143.904" id="Fill-91" fill="#D0D1D0"></path>
                    <path d="M360.85,145.228 C365.02,140.686 367.48,135.822 367.48,130.908 C367.48,116.308 348.08,100.139 323.79,91 C316.75,100.938 292.76,108.502 287.38,108.143 C285.69,108.029 281.77,107.065 277.07,105.528 C271.91,113.018 263.52,119.77 253,125.264 C270.21,134.893 284.28,148.989 288.65,158.945 C289.99,162.009 289.62,165.601 287.9,169.387 C288.22,169.418 288.53,169.453 288.86,169.485 C309.93,171.523 336.52,163.74 352.74,152.245 L377.18,154.518 L360.85,145.228" id="Fill-92" fill="#D0D1D0"></path>
                    <path d="M288.38,159.681 C284.01,149.725 269.94,135.629 252.73,126 C242.48,131.351 230.23,135.507 217,137.967 C217.13,140.123 217.71,142.114 218.81,143.871 C230.08,161.82 255.42,166.953 287.63,170.123 C289.35,166.337 289.72,162.745 288.38,159.681" id="Fill-93" fill="#B0B1B0"></path>
                    <path d="M223.73,115.347 C224.93,115.486 226.13,115.677 227.33,115.89 C233.74,107.937 242.93,100.143 253.31,94.259 C250,91.534 248.3,88.707 249.66,86.046 C253.61,78.312 256.27,69.165 271.69,65.323 C258.44,54.769 234.67,50 204.12,50 C156.16,50 122.34,80.776 117.28,99.747 C115.33,107.031 118.64,114.686 126.15,121.356 L108,133.896 L132.79,126.294 C141.39,131.724 153.17,136.073 167.36,138.389 C180.49,124.799 204.71,113.124 223.73,115.347" id="Fill-94" fill="#D0D1D0"></path>
                    <path d="M217.55,137.615149 C217.18,131.271149 220.79,123.478149 226.97,115.816149 C225.77,115.603149 224.57,115.412149 223.37,115.273149 C204.35,113.050149 180.13,124.725149 167,138.315149 C174.17,139.486149 181.95,140.146149 190.27,140.146149 C199.59,140.146149 208.78,139.248149 217.55,137.615149" id="Fill-95" fill="#AEAFAD"></path>
                    <path d="M227,115.631 C236.01,117.231 245.02,120.824 253.31,125.463 C263.83,119.969 272.22,113.217 277.38,105.727 C269.23,103.07 258.69,98.695 252.98,94 C242.6,99.884 233.41,107.678 227,115.631" id="Fill-96" fill="#A5A6A5"></path>
                    <path d="M217.025941,137.799 C230.255941,135.339 242.505941,131.183 252.755941,125.832 C244.465941,121.193 235.455941,117.6 226.445941,116 C220.265941,123.662 216.655941,131.455 217.025941,137.799" id="Fill-97" fill="#989998"></path>
                    <path d="M282.34,83.967 C284.44,83.781 286.53,83.697 288.6,83.767 C300.4,84.165 312.58,86.881 323.74,91.076 C324.97,89.334 325.7,87.521 325.7,85.664 C325.7,82.432 325.15,79.33 323.82,76.516 L338.34,61 L318.95,70.361 C313.29,65.754 303.47,62.885 287.33,63.108 C280.67,63.201 275.33,63.863 271,64.941 C277.28,69.946 281.2,76.247 282.34,83.967" id="Fill-98" fill="#D0D1D0"></path>
                    <path d="M282.32,84.2245122 C282.55,85.7865122 282.67,87.4045122 282.67,89.0835122 C282.67,94.9175122 280.64,100.569512 277,105.861512 C281.7,107.398512 285.62,108.362512 287.31,108.476512 C292.69,108.835512 316.68,101.271512 323.72,91.3335122 C312.56,87.1385122 300.38,84.4225122 288.58,84.0245122 C286.51,83.9545122 284.42,84.0385122 282.32,84.2245122" id="Fill-99" fill="#B2B3B2"></path>
                    <path d="M249.470653,85.723 C248.110653,88.384 249.810653,91.211 253.120653,93.936 C262.450653,88.647 272.730653,84.922 282.840653,84.026 C281.700653,76.306 277.780653,70.005 271.500653,65 C256.080653,68.842 253.420653,77.989 249.470653,85.723" id="Fill-100" fill="#B2B3B2"></path>
                    <path d="M282.72,84 C272.61,84.896 262.33,88.621 253,93.91 C258.71,98.605 269.25,102.98 277.4,105.637 C281.04,100.345 283.07,94.693 283.07,88.859 C283.07,87.18 282.95,85.562 282.72,84" id="Fill-101" fill="#9C9D9C"></path>
                    <path d="M56.08,53.69 L57.02,48.08 L43,47.145 L44.83,42 L21.5,52.754 C21.5,52.754 23,51.549 22.07,48.746 C21.14,45.941 9.35,63.971 9.35,63.971 L5.63,60.129 L5.61,82.664 L0,92.012 C0,92.012 2.81,119.119 10.28,112.576 C17.76,106.033 23.37,108.836 23.37,108.836 L33.65,98.555 L29.91,84.536 C29.91,84.536 38.32,75.188 41.13,73.317 C42.62,72.326 54.39,68.696 65.1,65.51 C74.56,62.698 83.19,60.231 83.19,60.231 L56.08,53.69" id="Fill-102" fill="#595A59"></path>
                    <path d="M66.4279025,67.266 C66.4279025,67.266 65.9679025,66.778 65.1579025,66 C54.4479025,69.186 42.6779025,72.816 41.1879025,73.807 C38.3779025,75.678 29.9679025,85.026 29.9679025,85.026 L33.7079025,99.045 L23.4279025,109.326 C23.4279025,109.326 20.0179025,98.984 13.2779025,101.092 C6.5279025,103.199 12.6879025,111.014 10.3379025,113.066 C10.3379025,113.066 11.1679025,125.965 22.1279025,124.701 C23.4679025,124.701 23.4879025,150.352 28.9879025,152.868 C37.7579025,156.887 49.4979025,162.814 56.8079025,166.562 C60.9079025,168.664 63.6179025,170.084 63.6179025,170.084 L81.5679025,160.536 L82.4779025,159.525 C82.4779025,159.525 83.2579025,129.338 72.9679025,127.085 C80.7779025,119.273 86.2079025,111.209 86.2079025,111.209 L66.4279025,67.266" id="Fill-103" fill="#EEE9C0"></path>
                    <path d="M370,242.006 L370,242.145 L370.04,242 L370,242.006" id="Fill-104" fill="#EEE9C0"></path>
                    <path d="M305.87,308.951 L343.81,290.4 L353.05,259.348 L353.05,259.21 L341.28,260.89 C341.28,260.89 339.6,242.34 342.13,238.123 C344.66,233.907 336.23,222.104 333.7,222.104 C331.17,222.104 305.03,221.26 305.03,221.26 L304.67,221 C298.35,223.727 292.56,228.062 288.16,234.751 C287.42,235.886 286.16,248.769 285,262.691 L287.32,287.871 L305.87,308.951" id="Fill-105" fill="#EEE9C0"></path>
                    <path d="M304.84,220.951018 C306.09,220.369018 305.2,221.211018 305.2,221.211018 C305.2,221.211018 331.34,222.055018 333.87,222.055018 C336.4,222.055018 344.83,233.858018 342.3,238.074018 C339.77,242.291018 341.45,260.841018 341.45,260.841018 L353.22,259.161018 L353.26,259.154018 L353.22,259.299018 L343.98,290.351018 L306.04,308.902018 L287.49,287.822018 L285.17,262.642018 L274,298.784018 L297.61,338.413018 L306.53,338.802018 L317,339.257018 C317,339.257018 317.24,339.042018 317.65,338.674018 C319.16,337.316018 323.2,333.613018 328.14,328.690018 C334.53,322.332018 342.37,313.971018 348.08,306.059018 C352.28,300.246018 355.33,294.683018 355.79,290.351018 C357.48,274.331018 364.22,241.447018 364.22,241.447018 L360.01,233.858018 C360.01,233.858018 339.82,183.269018 304.84,220.951018" id="Fill-106" fill="#595A59"></path>
                    <path d="M314.94,54.2399469 C314.94,54.2399469 316.86,52.6429469 319.2,51.3649469 C319.85,51.0159469 322.01,50.3539469 324.81,49.5769469 C324.77,49.3659469 324.73,49.1579469 324.7,48.9539469 C321.52,45.3769469 317.29,40.3809469 317.29,39.1179469 C317.29,37.0939469 320.38,18.6689469 320.38,18.6689469 L332.2,16.7519469 C332.2,16.7519469 354.26,20.0409469 354.46,21.0119469 C354.78,22.6099469 346.36,44.7629469 346.36,44.7629469 L344.45,46.1839469 L345,48.7449469 L349.1,51.4159469 L360.31,31.0239469 C360.31,31.0239469 353.93,6.95294688 353.07,6.09994688 C352.22,5.24894688 340.51,0.668946878 336.67,0.0299468777 C332.84,-0.609053122 320.38,9.18994688 320.38,9.18994688 C320.38,9.18994688 316.22,18.0299469 315.48,20.1589469 C314.73,22.2889469 305.68,40.0759469 305.68,40.0759469 L293,45.7209469 C293,45.7209469 299.29,45.8269469 305.89,45.1879469 C305.46,48.4899469 297.58,54.9859469 297.58,54.9859469 C297.58,54.9859469 303.55,54.2399469 309.62,51.1529469 C307.49,53.0689469 308.13,57.6499469 308.13,57.6499469 L314.62,57.1199469 L315.14,56.3289469 L314.94,54.2399469" id="Fill-107" fill="#477484"></path>
                    <path d="M336.81,38.343 L330,36 L332.55,39.407 L336.81,38.343" id="Fill-108" fill="#B4B5B4"></path>
                    <path d="M354.17,21.26 C353.97,20.289 331.91,17 331.91,17 L320.09,18.917 C320.09,18.917 317,37.342 317,39.366 C317,40.629 321.23,45.625 324.41,49.202 C324.57,49.38 324.72,49.555 324.88,49.726 C326.57,51.618 327.86,52.998 327.86,52.998 L333.18,54.596 L339.3,50.05 L344.16,46.432 L346.07,45.011 C346.07,45.011 354.49,22.858 354.17,21.26" id="Fill-109" fill="#EADAD0"></path>
                    <path d="M79.66,91.108 L73.48,76.493 L77.42,74.806 L83.6,89.422 L79.66,91.108 L79.66,91.108 Z M54.93,104.599 L46.5,88.297 L61.11,82.676 L66.17,95.606 L54.93,104.599 L54.93,104.599 Z M79.1,72 L71.23,74.249 L71.79,80.994 L64.49,83.805 L62.8,79.866 L42,87.736 L54.37,109.1 L68.98,98.418 L67.86,87.739 L74.04,84.366 L80.22,95.045 L86.41,91.673 L79.1,72 L79.1,72 Z" id="Fill-110" fill="#477484"></path>
                    <path d="M149.54,221.458 L136.4,218 L100.45,232.522 L99.18,235.611 C100.01,238.145 100.45,240.128 100.45,240.128 L98.37,256.033 L88.5,261.73 L88,262.948 L104.6,287.843 L106.22,286.009 L100.45,280.237 L107.36,267.789 L116.91,273.925 L116.98,273.848 L120.5,269.863 L114.97,246.352 L120.5,235.288 L149.54,221.458" id="Fill-230" fill="#595A59"></path>
                    <path d="M91.2166414,225.02188 C84.9866414,225.71388 72.5366414,231.93688 72.5366414,231.93688 C72.5366414,231.93688 67.0066414,247.14988 69.7766414,254.75788 C72.5366414,262.36388 80.8366414,266.51188 80.8366414,266.51188 L88.9466414,261.83688 L99.6266414,235.71788 C98.1066414,231.07288 95.2366414,224.57488 91.2166414,225.02188" id="Fill-231" fill="#595A59"></path>
                    <path d="M100.95,239.517 C100.95,239.517 100.51,237.534 99.68,235 L89,261.119 L98.87,255.422 L100.95,239.517" id="Fill-232" fill="#595A59"></path>
                    <path d="M171.53,269.405 L150.09,221 L121.05,234.83 L115.52,245.894 L121.05,269.405 L117.53,273.39 L117.59,273.555 L117.46,273.467 L107.91,267.331 L101,279.779 L106.77,285.551 L112.64,291.419 L112.75,291.533 L117.59,304.672 L128.36,309.284 L141.79,315.045 L147.32,313.049 L166.69,306.056 L157.7,272.862 L171.53,269.405" id="Fill-233" fill="#9B8877"></path>
                </g>
            </g>
        </g>
    </g>
</svg>