<?xml version="1.0" encoding="utf-8"?>
<!-- Generator: Adobe Illustrator 19.1.0, SVG Export Plug-In . SVG Version: 6.00 Build 0)  -->
<svg version="1.1" id="Lager_2_1_" xmlns="http://www.w3.org/2000/svg" xmlns:xlink="http://www.w3.org/1999/xlink" x="0px" y="0px"
	 viewBox="-469 490.9 477.7 436.4" style="enable-background:new -469 490.9 477.7 436.4;" xml:space="preserve">
<style type="text/css">
	.st0{fill:#B4CDB6;}
	.st1{fill:#835F7F;}
	.st2{fill:#AE9B8B;}
	.st3{fill:none;}
	.st4{fill:#547B8C;}
	.st5{fill:#1C3B4D;}
	.st6{fill:#AE8C8C;}
	.st7{fill:#BCC9D5;}
	.st8{fill:#3E6175;}
	.st9{fill:#1D1D1B;}
	.st10{fill:#C7C7C7;}
	.st11{fill:#797979;}
	.st12{fill:#162E3C;}
	.st13{fill:#BB9BA7;}
	.st14{fill:#BFC0C0;}
	.st15{fill:#E0E0E0;}
	.st16{fill:#A48893;}
	.st17{fill:#3B6364;}
	.st18{fill:#919292;}
	.st19{fill:#304650;}
	.st20{fill:#774D4D;}
	.st21{fill:#8B9EB2;}
	.st22{fill:#806E75;}
	.st23{fill:#4A6C7B;}
	.st24{fill:#CBD5DF;}
	.st25{fill:#816958;}
	.st26{fill:#8C7C51;}
	.st27{fill:#A28E5E;}
	.st28{fill:#977292;}
	.st29{fill:#6B8B6E;}
	.st30{fill:#799187;}
	.st31{fill:#4E404D;}
	.st32{fill:#F2D1BA;}
	.st33{fill:#98AD9A;}
	.st34{fill:#927982;}
	.st35{fill:#895F6D;}
	.st36{fill:#B89201;}
	.st37{fill:#664A62;}
	.st38{fill:#FAB900;}
	.st39{fill:#775E4C;}
</style>
<path class="st0" d="M-308.8,697.7c-0.1-0.2-0.2-0.3-0.3-0.4c-3.3-6.1,6.5-18.4,6.5-18.4l-6.3-9.7l-15.6-1.4l-0.8-9.9l-34.7-40.5
	c0.4,0.8,0.8,1.6,1.2,2.5c0.9,1.8,1.9,3.9,3,6.2c2.2,4.7,4.8,10.4,7.9,17.4c1.7,4,3.6,8.4,5.7,13.2c0.1,0.2,0.2,0.4,0.3,0.6
	c1.4,3.2,2.6,6.3,3.7,9.1l-20-1.8l-4.9-0.5c-0.5-3.7-1.1-7.4-1.7-11c-0.8-4.3-1.7-8.5-2.6-12.4c-1.3-5.7-2.7-10.9-4.1-15.4
	c-0.5-1.6-0.9-3.1-1.4-4.5c-0.6-1.8-1.1-3.4-1.6-4.8c-4.3,1.1-8.6,1.5-12.2,0c-1.5-0.6-3-1.3-4.5-2.1c0.4,0.8,0.7,1.7,1.2,2.6
	c0.8,1.8,1.8,3.7,2.8,5.8c1.4,3,3,6.5,4.5,10.4c2.1,5.5,4.1,12,5.5,19.7c0.6,3.3,1.1,6.9,1.4,10.7l-5.6-0.5l-0.6-0.1l1.3,5.4l2.4,10
	c0,0.4,0,0.6,0,0.7c-0.1,0.1-0.2,0.1-0.3,0.2c-1.2,0.6-5.7,2.8-10.6,2.5c-0.1,0-0.1,0-0.2,0c-1,0-2,0-3,0c-1.6-3.9-0.4-10-0.2-11
	c0.2-0.3,0.6-0.6,1-1.1c1.8-1.9,5.1-5.1,8.8-6.3c0.3-0.1,0.5-0.2,0.8-0.3c0,0,0-0.1-0.1-0.1c0-0.1-0.1-0.1-0.1-0.2
	c-1.2-1.8-3.3-4.8-6.1-8.4c-0.2-0.3-0.4-0.6-0.6-0.8c-3.2-4.2-7.2-9.2-11.4-14.3c-2.9-3.5-5.9-7.1-8.7-10.4c-0.7-0.8-1.3-1.5-2-2.3
	c-3.9-4.5-7.5-8.5-10.3-11.4c-0.4-0.4-0.8-0.8-1.1-1.1c0.2-3,0.7-5.7,1.4-8.1c-9,4.7-18.3,13.7-25.9,30.2c-0.9,2-1.9,4.2-2.7,6.4
	c-0.2,0.5-0.4,1.1-0.6,1.7c-0.7,1.8-1.3,3.6-1.9,5.6c-0.3,0.9-0.6,1.8-0.9,2.8c-0.3,1-0.6,2-0.9,3.1c-9.7,34.2-15,67.8-15,67.8
	s7.1,6.8,15.3,12.8c3.9,2.9,8,5.5,11.7,7.1c6.3,2.7,19.2,5,31.9,6.7c2.1,0.3,4.3,0.6,6.4,0.8c15,1.8,28.2,2.9,28.2,2.9l15.2-6.6
	l17-7.4l2.6-4.3l4-6.5l1.7-2.7l0.1-0.2c1.6-0.1,3.2,0.1,4.9,0.5c3.6,0.9,7.3,2.9,9.4,5.7c0,0,1,3,1.9,7.1h0.1l-3.2-39.4v-0.5
	l8.4-0.4l5.2-0.2c0,0,0,0,0-0.1C-308.4,698.3-308.6,698-308.8,697.7z M-378.2,678.3L-378.2,678.3L-378.2,678.3L-378.2,678.3z
	 M-427.6,712.9l3.9-15.8c1.6-3,3.3-6.6,4.6-11.1c0.1-0.5,0.3-1,0.4-1.5c0.7-2.7,1.1-5.4,1.4-8.2c0.1-1.5,0.2-3,0.3-4.5
	c0-0.6,0-1.1,0-1.7c5.1,4.8,10.9,8.6,17.3,10.4c1.7,0.5,3.4,0.8,5.1,1c0.6,0.1,1.3,0.1,1.9,0.1c0,0.1,0.1,0.1,0.1,0.2
	c0.1,0.1,0.2,0.3,0.2,0.5c1.6,2.7,6.7,6.4,9.5,8.3c1.2,0.8,2,1.3,2,1.3l3.8,0.9c-0.2,0.7-0.3,1.4-0.5,2c-0.1,0.6-0.3,1.1-0.5,1.7
	c-2,7-5.2,13.9-9,19.3l-11.4,10.1L-427.6,712.9z M-330,707.8c-0.7,3.7-2,6.2-3.5,8c-0.4,0.4-0.7,0.8-1.1,1.2c-0.9,0.8-1.8,1.5-2.6,2
	c-0.9,0.6-2.5,1.7-4.5,2.8c-0.6,0.3-1.3,0.7-2.1,1c-5.7,2.4-15.4,4.6-15.4,4.6s-6.2-2.8-6.7-8.4c0,0,0.2-7.9,1.7-13.9
	c0-0.1,0.1-0.3,0.1-0.4c0.3-1.1,0.5-2.3,0.7-3.4c0.3-1.6,0.6-3.2,0.8-4.8l9.5,2.3l6.3,1.5l12.7-0.6h0.6l3.9-0.2c0,0.3,0,0.7,0.1,1
	C-329.5,703.4-329.7,705.8-330,707.8z"/>
<path class="st1" d="M-394.3,617.9c-3.8,1.4-7.6,3.1-11.1,4.9c-2,1-3.8,2-5.6,3.1c0.6,0.8,1.3,1.5,2,2.3c2.9,3.3,5.8,6.9,8.7,10.4
	c5.3-2.4,11.3-4.6,17.6-6c-1.5-3.9-3-7.3-4.5-10.4c-1-2.1-1.9-4-2.8-5.8C-391.4,616.9-392.8,617.4-394.3,617.9z"/>
<path class="st2" d="M-181,662.6c-1.2-1.5-3.1-3.1-6-4.8l-5.6,0.6l-4.2,0.4l-1.7,0.2l-16.4,17.7l-2.5,2.7l-4.2,6.9l-5.1,8.5h8.9
	l1.4-1.5c-1.7-1.2-2.9-3.2-2.9-5.5c0-0.8,0.1-1.5,0.4-2.2c0.9-2.6,3.4-4.5,6.4-4.5c0.4,0,0.8,0,1.1,0.1c-0.1,0.3-0.2,0.5-0.4,0.8
	c0,0,0,0,0,0.1c0,0.2-0.1,0.6-0.1,1.2c0,1.1,0.4,2.6,2.1,3.3c0.3,0.1,0.6,0.1,1,0c0.3,0.2,0.6,0.5,1,0.6c0.5,0.2,1.2,0.1,2-0.3
	c0,0.3,0.1,0.6,0.1,0.9c0,0.8-0.1,1.5-0.4,2.2l1.5,1.2l5.1,3.8l2.7,2c0,0-0.6-8.5-2.7-10.1c4.6-0.2,11.7-3,11.7-3l-8.1-3.2
	c1.7-1.1,3.2-2,4-2c2.1,0,12.6-3.3,13.8-9.4c0.3-1.4,0.1-2.9-0.8-4.5C-179.4,663.8-180.1,663.1-181,662.6z"/>
<g>
	<path class="st3" d="M-453,636.7l3.4,5.2c0.9-2.3,1.8-4.4,2.7-6.4c-3.8-1.7-6.4-3.2-6.4-3.2L-453,636.7z"/>
	<path class="st3" d="M-50.2,598.5c-0.7,0.8-1.2,1.5-1.6,1.8C-51.3,599.8-50.8,599.2-50.2,598.5z"/>
	<path class="st3" d="M-308.1,864.6c6.2-2.2,16.7-9.5,23.3-14.3c-1.1-4.1-2.9-11.3-4.7-19.8l-6.2-0.8L-308.1,864.6z"/>
	<path class="st3" d="M-458.4,634c-0.6,3.8,0.2,9,0.2,9s2.7,3,6,6.2c0.6-1.9,1.3-3.8,1.9-5.6l-4.9-3.8
		C-455.2,639.8-457.7,635.7-458.4,634z"/>
	<path class="st3" d="M-308.2,698.6L-308.2,698.6L-308.2,698.6z"/>
	<path class="st3" d="M-44.1,589.3C-44.1,589.4-44.1,589.4-44.1,589.3h0.1C-44,589.4-44,589.4-44.1,589.3z"/>
	<path class="st3" d="M-451.5,893c5,3.1,25.2,8.4,25.2,8.4L-451.5,893z"/>
	<path class="st3" d="M-205.2,849.2c3.3,2.2,9,5.8,11.5,7.2c4.1,2.2,10.9,3.6,17.7,5.7l-11.5-33.7c-4.5,0.9-9.2,1.7-13.9,2.4
		l-0.7,16.1L-205.2,849.2z"/>
	<polygon class="st3" points="-23.6,558.5 -24.1,562.4 -9.8,573.9 -4.2,581.7 3.8,571.2 	"/>
	<path class="st3" d="M-205.9,788.5c0.8-5.7,1.5-11.1,2.1-15.5c-2.2-1.3-4.3-3.7-6.3-6.8l-1.3,21.4L-205.9,788.5z"/>
	<path class="st3" d="M-281.3,584.4c0.3-1.6,0.2-3.7-0.1-5.9l-19.6-1.7c8.1,7.4,22.1,20.5,30.5,30.3c1.6,1.9,2.9,3.8,3.8,5.5l6-35.5
		C-266.8,580.7-275.5,584.9-281.3,584.4z"/>
	<path class="st3" d="M-309,697.3c0.1,0.1,0.2,0.3,0.3,0.4C-308.9,697.6-309,697.4-309,697.3z"/>
	<path class="st3" d="M-52.2,600.8c-0.1,0.4-0.2,0.8-0.3,1.2C-52.4,601.6-52.3,601.2-52.2,600.8L-52.2,600.8z"/>
	<path class="st3" d="M-232.9,566.5c0.3,0.9,0.5,1.8,0.8,2.7l-0.2-1.1C-232.5,567.6-232.7,567.1-232.9,566.5z"/>
	<path class="st3" d="M-156.6,640.6c-6.4-1.8-13.2-17.2-16.5-25.5l-4.6,4.8c0,0-3.3-5.2-6.2-11.9c-2.6,10.5-8.4,34.4-12.8,50.8
		l4.2-0.4c0-0.3,0-0.7,0-1c-0.1-2.8,21.5-0.4,36.2,1.6c-0.3-3.6-0.6-6.6-0.8-8.4C-157.5,647.2-157.1,643.6-156.6,640.6z"/>
	<path class="st3" d="M-192,678.6c-0.8,0-2.2,0.8-4,2l8.1,3.2c0,0-7.2,2.8-11.7,3c2.2,1.5,2.7,10.1,2.7,10.1l-2.7-2
		c3.2,18.8,7.4,47.2,6.2,64.4c2.8-1.3,7.5-3.7,8.4-4.6c1.3-1.3,1.3-9.8,1.6-14.3c0.3-4.6,7.2-13,7.2-13l-9.1-0.3l-3.9-6.8
		c0,0,9.1,3.3,14.7,0.3c4-2.1,9.2-3.5,12.5-3.9c1.6-5.3,4.5-15.2,6.1-22.1c1.1-4.9,1-14,0.5-22.9c-7.6-0.1-15.9-0.7-22.7-2.4
		C-179.3,675.3-189.8,678.6-192,678.6z"/>
	<path class="st3" d="M-32.1,570c0.4,0.2,0.8,0.4,1.2,0.6l-0.4-0.6C-31.4,570-31.7,570-32.1,570z"/>
	<path class="st3" d="M-245.9,706.4c2.4,1.8,4.6,2.6,4.6,2.6s-0.3,0.6-0.9,1.5c-2.2,4.2-8.6,16.3-11,19.4c-1.1-0.5-2.2-1.2-3.3-2.1
		c-1.2,2.3-2.5,4.6-3.7,6.8l0.6-0.3l18.9-2.7l18,2.3c-5.4-19.3-9-39.6-10.1-46.3c-1.3,0-2.7-0.1-4.3-0.5
		C-238.9,691.1-242,698.1-245.9,706.4z"/>
	<path class="st3" d="M-379.1,884c4.6,3.1,23.3,8.4,23.3,8.4L-379.1,884z"/>
	<path class="st4" d="M-284.4,762.7c0,0,0,1.8,0.1,4.5c3.3-2.2,7-6.3,10.7-11.4c0.4-8.4,0.7-14.7,0.7-14.7l12.5-6.5
		c1.3-2.3,2.5-4.5,3.7-6.8c-4-3.2-8.2-8.4-11.2-13.5c-2.3-4.1-6.6-6.6-9.4-7.9c-10.7,23.2-22.4,52.8-16.2,60.8
		c1.7-5.1,3.5-8.3,3.5-8.3L-284.4,762.7z"/>
	<path class="st4" d="M-262,687.8c4.4,2.1,8.8,7.1,10.4,11.2c1.3,3.4,3.6,5.8,5.7,7.4c3.9-8.3,7-15.3,8.8-19.3
		c-7.2-1.5-17.3-6.2-25.4-10.5c-0.3,0.5-1,2-2.2,4.3l3.7,6.4L-262,687.8z"/>
	<path class="st4" d="M-267.8,714.3c2.9,5.1,7.1,10.4,11.2,13.5c0.2-0.4,0.4-0.7,0.6-1.1c-4.2-3.1-8.7-8.6-11.7-13.9
		c-2.2-3.8-6-6.3-8.9-7.7c-0.2,0.4-0.4,0.8-0.6,1.2C-274.4,707.7-270.1,710.2-267.8,714.3z"/>
	<path class="st5" d="M-253.3,728.4c-0.9-0.4-1.8-1-2.8-1.7c-4.2-3.1-8.7-8.6-11.7-13.9c-2.2-3.8-6-6.3-8.9-7.7
		c-0.5-0.2-0.9-0.4-1.3-0.6c-0.3,0.4-0.6,0.8-1,1.1c0.5,0.2,1,0.4,1.7,0.7c2.9,1.3,7.1,3.9,9.4,7.9c2.9,5.1,7.1,10.4,11.2,13.5
		c1.1,0.9,2.3,1.6,3.3,2.1c2.4-3.1,8.8-15.2,11-19.4C-244.6,714.5-250.9,725.3-253.3,728.4z"/>
	<path class="st6" d="M-155.5,671.6c0.5,8.9,0.7,18-0.5,22.9c-1.6,6.9-4.5,16.8-6.1,22.1c1.3-0.2,2.3-0.2,2.8,0
		c1.1,0.4,1.9,1.2,2.3,2.3c4.2-8.5,13.7-28.5,15-36.1c0.7-4.3,1.3-8.1,1.7-11.4C-144.4,671.5-149.8,671.7-155.5,671.6z"/>
	<path class="st6" d="M-153.6,640.4c-1,0.5-2,0.5-3,0.2c-0.5,3-0.9,6.6-0.6,9.9c0.2,1.8,0.5,4.8,0.8,8.4c7.6,1,13.3,1.9,13.4,1.9
		c0.8-0.6,2-1.4,3.5-2.5c-0.1-4.1-0.5-7.4-1.1-10.5c-0.8-4.6-6.1-8.5-10.1-10.9C-151.2,638.5-152.2,639.7-153.6,640.4z"/>
	<path class="st4" d="M-139.9,668c-0.1,1.1-0.2,2.2-0.3,3.3c5.1-0.3,8.4-0.6,8.4-0.6l-2.7-2.4l-3.6,2.1L-139.9,668z"/>
	<path class="st6" d="M-144.5,661.9c0,0,0.5-0.4,1.5-1c-0.1,0-5.8-0.9-13.4-1.9c0.3,3.7,0.7,8.2,1,12.7c5.7,0.1,11-0.1,15.2-0.3
		c0.1-1.2,0.2-2.3,0.3-3.3L-144.5,661.9z"/>
	<path class="st4" d="M-193.3,759.3c1.2-17.2-3-45.6-6.2-64.4l-5.1-3.8c-1,2.5-3.4,4.3-6.3,4.3c-1.5,0-2.8-0.5-3.9-1.3
		c-0.6-0.2-1.1-0.5-1.6-0.8l-1.4,1.5h-8.9l5.1-8.5c-3.8,0.8-7.6,1.3-11.2,1.4c0,0,0,0-0.1,0c1.1,6.7,4.7,27,10.1,46.3l5.3,0.7
		l8.8,6.5l-1.5,25.1c2,3.1,4.1,5.5,6.3,6.8c0.8-6.2,1.2-10.3,1.2-10.3l4.1,4.3l-0.3,6.8c3.1-1.1,4.7-5.8,5.4-12.6l-1.9-0.9
		C-195.3,760.3-194.5,759.9-193.3,759.3z"/>
	<path class="st7" d="M-235.6,683.6c0,0-0.5,1.3-1.5,3.5c1.6,0.3,3,0.5,4.3,0.5c-0.2-1.5-0.4-2.3-0.4-2.3s9.8-5.6,18.3-8.8
		l16.4-17.7l1.7-0.2c4.3-16.4,10.2-40.2,12.8-50.8c-2-4.6-3.8-10-4.3-14.8c-0.5-5.9,2-15.7,2-15.7l4.7,3.6l0.2-3.6l-17.2-12.5
		c0,0,0,0,0,0.1c-1,9.2-28.1,27.1-28.1,27.1l-5.3-22.8c-0.3-0.9-0.6-1.8-0.8-2.7c-0.9-2.7-1.5-5.6-1.9-8.7c-0.2-0.8-0.3-1.4-0.3-1.5
		c-6.5-0.4-15.1,0.7-19.5,1.4l1.6,14.6c0,0-3.2,2.3-7.6,4.9l-6,35.5c0.2,0.4,0.4,0.7,0.6,1.1c0.5-2.5,1.4-4.3,2.3-4.9
		c3.4-2.3,22.5,15.8,22.5,15.8l2,16.8c0,0,0.3,1.4,0.7,3.2c0.9,0.3,1.8,0.7,2.6,1.3c3.3,1.2,5.7,4.4,5.7,8.1c0,4.7-3.9,8.6-8.6,8.6
		l0,0c-1.9,0-3.6-0.6-5-1.6c-3.3-1.2-5.7-4.4-5.7-8.1c0-0.2,0-0.4,0-0.6c-4.9-0.4-7.9-13.5-7.9-13.5l-5.9,9.1c0,0-0.3-8.1,2.9-13
		c-4.5-3-6.1-9.2-6.2-14.8l-1.3,0.2l-8.2,48.8c0,0,5.9,3.6,13.6,7.6l0,0C-260.2,672.1-235.6,683.6-235.6,683.6z M-238.1,610.2
		c0,0,9.1-1.3,11.1-5.5c2,4.9,9.4,5.9,9.4,5.9s0.3,11.1-11.1,18.6C-240.4,620.3-238.1,610.2-238.1,610.2z"/>
	<path class="st7" d="M-235,556.3L-235,556.3l0.1,0.9C-234.9,556.9-234.9,556.6-235,556.3z"/>
	<path class="st4" d="M-235.6,683.6c0,0-24.6-11.5-26.9-7l0,0c8.1,4.3,18.2,9,25.4,10.5C-236.2,684.9-235.6,683.6-235.6,683.6z"/>
	<path class="st8" d="M-235.6,683.6c0,0-24.6-11.5-26.9-7l0,0c8.1,4.3,18.2,9,25.4,10.5C-236.2,684.9-235.6,683.6-235.6,683.6z"/>
	<path class="st4" d="M-214.9,676.6c-8.5,3.2-18.3,8.8-18.3,8.8s0.1,0.8,0.4,2.3c0,0,0,0,0.1,0c3.6-0.1,7.4-0.6,11.2-1.4l4.2-6.9
		L-214.9,676.6z"/>
	<path class="st8" d="M-214.9,676.6c-8.5,3.2-18.3,8.8-18.3,8.8s0.1,0.8,0.4,2.3c0,0,0,0,0.1,0c3.6-0.1,7.4-0.6,11.2-1.4l4.2-6.9
		L-214.9,676.6z"/>
	<path class="st4" d="M-18.5,694.8l-1.9-2.5l-1.4,8.2c2.1,1.1,3.6,1.4,3.6,1.4L-18.5,694.8z"/>
	<path class="st9" d="M-38.8,572c1.1-1.5,5-1.9,6.7-1.9C-34.4,569.2-37,569.5-38.8,572z"/>
	<path class="st9" d="M-30.9,570.6l3.4,4.8C-27.7,573.6-29.1,571.7-30.9,570.6z"/>
	<path class="st9" d="M-44.7,589.5c0,0-2.9,5.5-5.5,9c1.9-2.2,4.7-5.9,6.2-9.1L-44.7,589.5z"/>
	<path class="st9" d="M-52.9,603.4c0.1-0.5,0.3-1,0.4-1.4C-52.6,602.4-52.8,602.9-52.9,603.4z"/>
	<path class="st9" d="M-51.8,600.3c-0.1,0.1-0.2,0.2-0.3,0.3v0.1C-52.1,600.6-52,600.5-51.8,600.3z"/>
	<path class="st4" d="M-41.3,630.5c-1.9-0.9-3-0.8-3-0.8l-4.2,17.8l5.4,20.8C-41.8,652.5-40.8,636.7-41.3,630.5z"/>
	<path class="st10" d="M-69.8,617.7c-0.8,0.5-1.6,0.9-2.3,1.2c-0.2,0.1-0.4,0.2-0.6,0.2c0,0.1-0.1,0.2-0.1,0.4
		c-0.2,0.5-0.4,1-0.6,1.5c-2.4,6.8,0.1,11.6,0.1,11.6l4,0.4c0.3-0.2,0.6-0.4,1-0.7c0.1-0.1,0.3-0.2,0.4-0.3c0.3-0.2,0.5-0.4,0.8-0.6
		c0.2-0.1,0.3-0.2,0.5-0.3c0.3-0.2,0.5-0.4,0.8-0.6c0.1-0.1,0.3-0.2,0.4-0.3c5.8-4.5,12.1-10.6,12.7-13.1c0.1-0.6,0.2-1.3,0.1-2.1
		c0.1,0,0.1,0.1,0.2,0.1c-0.4-2.7-1-6.4-1.4-7.4c0-0.1-0.1,0-0.3,0.1c0,0.1-0.1,0.2-0.1,0.3C-54.4,607.6-63.8,614.3-69.8,617.7z"/>
	<path class="st10" d="M-54.2,608.1c0-0.1,0.1-0.2,0.1-0.3c-1.7,0.7-10.2,6.8-15.7,9.9C-63.8,614.3-54.4,607.6-54.2,608.1z"/>
	<path class="st4" d="M-52.7,617.2c-0.6,2.4-6.9,8.5-12.7,13.1c-0.1,0.1-0.3,0.2-0.4,0.3c-0.3,0.2-0.5,0.4-0.8,0.6
		c-0.2,0.1-0.3,0.2-0.5,0.3c-0.3,0.2-0.5,0.4-0.8,0.6c-0.1,0.1-0.3,0.2-0.4,0.3c-0.3,0.2-0.7,0.5-1,0.7l0,0c0,0-0.2,0.5-0.5,1.5
		l1.8-0.2l15.9-16.2c0,0-0.2-1.2-0.4-2.9c-0.1,0-0.1-0.1-0.2-0.1C-52.6,615.8-52.6,616.6-52.7,617.2z"/>
	<path class="st10" d="M-83.5,728.2c0,0,1-23.7,5.3-58.9c1.9-15.6,4.9-26.8,8.2-34.8l-9.3,1.1c0,0,3.5-7.9,5.9-14.6
		c0,0-5.5,7.7-9.5,6.9c-10.2,22.1-35.8,79.3-33.2,92.3c0,0.2-3.4,9.7,2.3,17.4c4.2-2.8,18-2.1,18-2.1l27.6,12.5
		c3.2-0.8,5.4-2,6.1-3.7l-18.8-8.6L-83.5,728.2z"/>
	<path class="st4" d="M-78.2,669.3c1.7-13.9,6.8-30,8.4-34.8h-0.3C-73.2,642.5-76.2,653.7-78.2,669.3z"/>
	<path class="st4" d="M-78.2,669.3c-4.3,35.2-5.3,58.9-5.3,58.9l2.5,7.6l18.8,8.6c0.1-0.3,0.2-0.6,0.2-1
		C-62.9,735-82.5,704.5-78.2,669.3z"/>
	<path class="st10" d="M-69.3,633l-4-0.4c0,0-2.5-4.8-0.1-11.6c-2.4,6.8-5.9,14.6-5.9,14.6l9.3-1.1c0.2-0.5,0.4-0.9,0.6-1.4
		C-69.4,633.1-69.3,633-69.3,633z"/>
	<path class="st11" d="M-69.3,633l-4-0.4c0,0-2.5-4.8-0.1-11.6c-2.4,6.8-5.9,14.6-5.9,14.6l9.3-1.1c0.2-0.5,0.4-0.9,0.6-1.4
		C-69.4,633.1-69.3,633-69.3,633z"/>
	<path class="st4" d="M-69.3,633l-0.1,0.1c-0.2,0.5-0.4,0.9-0.6,1.4h0.3C-69.4,633.5-69.2,633-69.3,633L-69.3,633z"/>
	<path class="st10" d="M-69.3,633l-0.1,0.1c-0.2,0.5-0.4,0.9-0.6,1.4h0.3C-69.4,633.5-69.2,633-69.3,633L-69.3,633z"/>
	<path class="st12" d="M-69.3,633l-0.1,0.1c-0.2,0.5-0.4,0.9-0.6,1.4h0.3C-69.4,633.5-69.2,633-69.3,633L-69.3,633z"/>
	<g>
		<path class="st4" d="M-139.9,668l-4.6-6.1c0,0,0.5-0.4,1.5-1c-0.1,0-5.8-0.9-13.4-1.9c-14.7-2-36.3-4.4-36.2-1.6c0,0.3,0,0.7,0,1
			l5.6-0.6c2.9,1.7,4.8,3.3,6,4.8c0.8,0.5,1.5,1.2,2,2.1c0.9,1.6,1.1,3.1,0.8,4.5c6.8,1.6,15,2.2,22.7,2.4c5.7,0.1,11-0.1,15.2-0.3
			C-140.1,670.1-140,669-139.9,668z"/>
		<path class="st4" d="M-18.5,694.8l-0.9-20.5c0,0-8.5-29.3-12.5-34.7c-4.1-5.6-7.3-8-9.4-9c0.5,6.2-0.5,22-1.7,37.9l1.3,5
			c0,0,8.5,13.8,11.4,18.7c2.7,4.7,6,7.1,8.5,8.4l1.4-8.2L-18.5,694.8z"/>
		<path class="st4" d="M-44.3,629.7c0,0,1-0.2,3,0.8c-0.1-1.1-0.2-1.8-0.4-2.3c-2-5.2-6.6-11.4-10.7-13.1c0.3,1.6,0.4,2.9,0.4,2.9
			l-15.9,16.2l-1.8,0.2c-1.6,4.9-6.7,21-8.4,34.8c-4.3,35.2,15.3,65.7,16.2,74c0,0.3-0.1,0.7-0.2,1l22.7,10.3l-7-46.3
			c0,0,1.9-20,3.5-40l-5.4-20.8L-44.3,629.7z"/>
		<path class="st4" d="M-84,627.4c-4.3,7.7-12.6,19-12.6,19l-8.9,5.1c-8.2,11.6-16.6,24.9-21.7,36.6c-5.3,12.1-11.2,30.4-11.2,30.4
			l-2.3,20c0,0,15.5-13,24.6-18.4c-2.6-13,23-70.2,33.2-92.3C-83.3,627.8-83.7,627.7-84,627.4z"/>
		<path class="st4" d="M-88.4,626.3c0.7-1.2,1.6-2.6,2.7-3.9c-11.1,6.1-41.8,27.5-53.9,36c0,1.7,0,3.5-0.1,5.4l5.1,4.5l29-16.7
			c8-11.3,15.7-21.1,19.9-26.3L-88.4,626.3z"/>
	</g>
	<path class="st6" d="M-143,660.8l3.4,3c0.1-2,0.1-3.8,0.1-5.4C-141,659.4-142.2,660.2-143,660.8L-143,660.8z"/>
	<path class="st4" d="M-143,660.8l3.4,3c0.1-2,0.1-3.8,0.1-5.4C-141,659.4-142.2,660.2-143,660.8L-143,660.8z"/>
	<path class="st4" d="M-139.9,668l1.8,2.4l3.6-2.1l-5.1-4.5C-139.7,665.1-139.8,666.5-139.9,668z"/>
	<path class="st6" d="M-143,660.8c-1,0.7-1.5,1-1.5,1l4.6,6.1c0.1-1.5,0.2-2.9,0.3-4.2L-143,660.8L-143,660.8z"/>
	<path class="st4" d="M-143,660.8c-1,0.7-1.5,1-1.5,1l4.6,6.1c0.1-1.5,0.2-2.9,0.3-4.2L-143,660.8L-143,660.8z"/>
	<path class="st4" d="M-84,627.4c-0.6-0.4-1.1-1.1-1.6-2.1c-4.2,5.2-12,15-19.9,26.3l8.9-5.1C-96.6,646.5-88.3,635.2-84,627.4z"/>
	<path class="st13" d="M-104.8,825.3c-1.1,3.7-1.8,9.7-0.5,18.8c1.7,12,1.5,27.4,2.8,36.1c0.3,1.9,1,3.4,1.7,4.5l1.9-1.4
		c0.3,0.4,0.6,0.9,1,1.5c0.3-0.9,0.7-2.1,0.9-3.6c2.4-15.6,3.5-57.2,3.5-57.2l-6.2-2.7l-2.8,7.5
		C-102.5,828.9-103.6,827.6-104.8,825.3z"/>
	<path class="st13" d="M-69.8,829.1l1.7,28.7c0,0,1.6,22,4.6,33.1c0.3,1.2,0.8,2.3,1.3,3.2l1.1-1.3c0.4,0.4,0.9,0.8,1.3,1.2l3.9-48
		l-5-19.2l-3.6-2c-1.2,4.5-2.7,7.2-2.7,7.2S-68.3,830.9-69.8,829.1z"/>
	<path class="st14" d="M-131.5,906.4c-0.2,1.9-0.3,4.4,1.4,5c3.7,0.7,15.1-0.6,15.1-0.6s22.5-6.2,23.5-10.9c0.4-1.9-0.3-5.5-0.3-5.5
		l-33.6,12.7C-125.2,907.1-129.8,906.9-131.5,906.4z"/>
	<path class="st15" d="M-100.8,884.8l-18.6,13.6l-11.9,6.3c0,0-0.1,1-0.1,1.7c1.6,0.5,6.2,0.7,6.2,0.7l33.6-12.7
		c0,0-3.9-6.2-6.3-9.5c-0.5,1.5-1,2.2-1,2.2S-99.9,886.3-100.8,884.8z"/>
	<path class="st13" d="M-100.8,884.8c0.9,1.5,1.9,2.3,1.9,2.3s0.5-0.8,1-2.2c-0.4-0.6-0.8-1.1-1-1.5L-100.8,884.8z"/>
	<path class="st16" d="M-100.8,884.8c0.9,1.5,1.9,2.3,1.9,2.3s0.5-0.8,1-2.2c-0.4-0.6-0.8-1.1-1-1.5L-100.8,884.8z"/>
	<path class="st14" d="M-88,920.6c0.1,2,0.3,3.7,0.4,4.9c0.1,1,0.6,1.6,1.5,1.7c2.5,0.2,14.9-0.4,14.9-0.4s16.7-3.8,22.9-10.4
		c-0.2-2.2-1-6.2-1-6.2l-27.4,10.7C-76.7,921-85.3,921-88,920.6z"/>
	<path class="st15" d="M-62.2,894L-75,909l-13,9.1c0,0,0,1.6,0.1,2.4c2.7,0.5,11.2,0.4,11.2,0.4l27.4-10.7c0,0-5.2-11.1-10.4-16.3
		L-60,897C-60,897.1-61.1,895.9-62.2,894z"/>
	<path class="st13" d="M-62.2,894c1,1.9,2.2,3.1,2.2,3.1l0.3-3.1c-0.4-0.4-0.9-0.9-1.3-1.2L-62.2,894z"/>
	<path class="st16" d="M-62.2,894c1,1.9,2.2,3.1,2.2,3.1l0.3-3.1c-0.4-0.4-0.9-0.9-1.3-1.2L-62.2,894z"/>
	<path class="st9" d="M-52.1,600.7L-52.1,600.7L-52.1,600.7L-52.1,600.7L-52.1,600.7z"/>
	<path class="st9" d="M-52.1,600.7L-52.1,600.7L-52.1,600.7c0-0.1,0.1-0.1,0.1-0.1C-52.1,600.6-52.1,600.6-52.1,600.7
		C-52.1,600.6-52.1,600.7-52.1,600.7z"/>
	<path class="st4" d="M-212.5,694.5c-0.8,0-1.6-0.1-2.3-0.4c1.1,0.8,2.5,1.3,3.9,1.3c2.8,0,5.3-1.8,6.3-4.3l-1.5-1.2
		C-207.1,692.6-209.6,694.5-212.5,694.5z"/>
	<path class="st4" d="M-453.6,735.9l-1.4-0.1l38.4,82.2l3.6-3l2.4,6.7c5.4-9.5,18-33.3,15.2-44.2c-2-7.8-9-19.3-14.7-27.9
		c-12.8-1.7-25.6-4-31.9-6.7C-445.7,741.4-449.8,738.8-453.6,735.9z"/>
	<path class="st17" d="M-453.6,735.9c3.9,2.9,8,5.5,11.7,7.1c6.3,2.7,19.2,5,31.9,6.7c-4.3-6.5-7.8-11.2-7.8-11.2L-453.6,735.9z"/>
	<path class="st4" d="M-403.6,750.5c7.4,9.7,19.5,25.4,24.6,32.6c4.4,6.3,13.3,20.6,18.7,29.5l2.7-5.1c0,0,4.9-0.2,8,2.6l4.1-6.5
		l-14.7-56.8l-15.2,6.6C-375.4,753.4-388.7,752.3-403.6,750.5z"/>
	<path class="st17" d="M-408.8,743.7c1.1,1.4,2.9,3.8,5.2,6.8c15,1.8,28.2,2.9,28.2,2.9l15.2-6.6l-1.6-6.1
		C-361.8,740.7-413.5,737.6-408.8,743.7z"/>
	<path class="st4" d="M-416.6,818l-21.8,18.2l-11.7,39.9l3,7.4l0.1-0.1l2.5-5.5c0,0,1.4,0.5,3.6,1.3l3.7-2.5l29.5-47l-2.8-8
		c-1.4,2.5-2.4,4.1-2.4,4.1L-416.6,818z"/>
	<path class="st4" d="M-416.6,818l3.6,7.7c0,0,0.9-1.5,2.4-4.1l-2.4-6.7L-416.6,818z"/>
	<path class="st5" d="M-416.6,818l3.6,7.7c0,0,0.9-1.5,2.4-4.1l-2.4-6.7L-416.6,818z"/>
	<path class="st4" d="M-360.3,812.6l-16.5,31.1l1,22.3l2.3,3.4c0.3-0.2,0.6-0.4,0.8-0.5c2.2-0.4,4.8,0.3,7.6,1.6l4.5-5.4
		c0,0,14.2-46.8,13-51.5c-0.4-1.6-1.2-2.7-2.1-3.6l-6.2,9.9C-355.8,820-357.6,817-360.3,812.6z"/>
	<path class="st4" d="M-357.6,807.5l-2.7,5.1c2.7,4.4,4.5,7.4,4.5,7.4l6.2-9.9C-352.7,807.3-357.6,807.5-357.6,807.5z"/>
	<path class="st5" d="M-357.6,807.5l-2.7,5.1c2.7,4.4,4.5,7.4,4.5,7.4l6.2-9.9C-352.7,807.3-357.6,807.5-357.6,807.5z"/>
	<path class="st18" d="M-451.5,893l25.2,8.4c0,0,20.9,1,23.5-1.8c0-0.2,0-0.3-0.1-0.5c-0.5-4.1-9.7-7.2-18.6-11.7
		c-6.1-3.1-14.7-6.4-19.5-8.1l-6.2,4.2L-451.5,893z"/>
	<path class="st4" d="M-447.1,883.4l6.2-4.2c-2.2-0.8-3.6-1.3-3.6-1.3L-447.1,883.4z"/>
	<path class="st19" d="M-447.1,883.4l6.2-4.2c-2.2-0.8-3.6-1.3-3.6-1.3L-447.1,883.4z"/>
	<path class="st14" d="M-426.3,901.3c0,0-20.2-5.3-25.2-8.4c0,0.1,0.1,0.1,0.1,0.2c6.2,12.4,19.5,14.7,25.7,15
		c4.2,0.3,19.7-0.2,19.7-0.2s3.8-3.9,3.2-8.3C-405.4,902.3-426.3,901.3-426.3,901.3z"/>
	<path class="st18" d="M-373.5,869.4c-3,2.6-5.6,14.6-5.6,14.6l23.3,8.4c0,0,19.3,1,21.8-1.8c0-0.2,0-0.3-0.1-0.5
		c-0.5-4.1-9-7.2-17.2-11.7c-4.9-2.7-9.6-5.9-13.8-7.8l-4.3,5L-373.5,869.4z"/>
	<path class="st4" d="M-372.6,868.9c-0.3,0.1-0.6,0.2-0.8,0.5l4.2,6.2l4.3-5C-367.9,869.3-370.4,868.5-372.6,868.9z"/>
	<path class="st19" d="M-372.6,868.9c-0.3,0.1-0.6,0.2-0.8,0.5l4.2,6.2l4.3-5C-367.9,869.3-370.4,868.5-372.6,868.9z"/>
	<path class="st14" d="M-355.7,892.4c0,0-18.7-5.3-23.3-8.4c0,0.1,0.1,0.1,0.1,0.2c5.7,12.4,23.8,15,23.8,15l18.7-0.6
		c0,0,3.1-3.9,2.5-8C-336.4,893.4-355.7,892.4-355.7,892.4z"/>
	<path class="st6" d="M-235.1,556.2C-235.1,556.2-235.1,556.3-235.1,556.2C-235.1,556.3-235.1,556.3-235.1,556.2L-235.1,556.2z"/>
	<path class="st6" d="M-216.1,581.4c-3.2,1.4-7.1,0.6-9.3-2.4c-2.3-3-4.8-6.4-5.7-8.3c-0.4-0.8-0.8-1.7-1.1-2.6l0.2,1.1
		c3.1,9.5,7.8,20,7.8,20L-216.1,581.4z"/>
	<path class="st7" d="M-206.6,573.8c-2.2,1.9-5,4.3-7.5,6.5c-0.6,0.5-1.3,0.9-1.9,1.2l-8.1,7.8c0,0-4.7-10.5-7.8-20l5.4,22.9
		c0,0,27.1-17.9,28.1-27.1C-201.1,568.4-203.8,571.4-206.6,573.8z"/>
	<path class="st20" d="M-206.6,573.8c-2.2,1.9-5,4.3-7.5,6.5c-0.6,0.5-1.3,0.9-1.9,1.2l-8.1,7.8c0,0-4.7-10.5-7.8-20l5.4,22.9
		c0,0,27.1-17.9,28.1-27.1C-201.1,568.4-203.8,571.4-206.6,573.8z"/>
	<path class="st7" d="M-234.9,557.1l-0.2-0.9l0,0c0,0.1,0.1,0.7,0.3,1.5C-234.8,557.6-234.8,557.4-234.9,557.1z"/>
	<path class="st6" d="M-234.9,557.1l-0.2-0.9l0,0c0,0.1,0.1,0.7,0.3,1.5C-234.8,557.6-234.8,557.4-234.9,557.1z"/>
	<path class="st7" d="M-183.9,608c2.9,6.7,6.2,11.9,6.2,11.9l4.6-4.8c-1.3-3.2-2-5.3-2-5.3s5.2-17.9,12.4-8.8
		c0.5,0.6,0.9,1.2,1.4,1.9l3.5-3.6l-23.6-18.2l-1.1,21.5C-182.6,602.6-183.1,604.6-183.9,608z"/>
	<path class="st7" d="M-188.2,593.2c0.4,4.8,2.3,10.2,4.3,14.8c0.8-3.4,1.3-5.4,1.3-5.4l1.1-21.5l-4.7-3.6
		C-186.2,577.5-188.8,587.3-188.2,593.2z"/>
	<path class="st21" d="M-188.2,593.2c0.4,4.8,2.3,10.2,4.3,14.8c0.8-3.4,1.3-5.4,1.3-5.4l1.1-21.5l-4.7-3.6
		C-186.2,577.5-188.8,587.3-188.2,593.2z"/>
	<path class="st7" d="M-276.5,578.8l-4.9-0.4c0.3,2.3,0.4,4.3,0.1,5.9c5.9,0.6,14.5-3.6,20.7-7.2l3.2-19c0,0,1.1-0.2,2.8-0.5v-0.4
		c0,0-29.1-1.9-33.9-2.3c0,0,0.6,1.4,1.4,3.6l4.1-1L-276.5,578.8z"/>
	<path class="st7" d="M-260.6,577.2c4.4-2.6,7.6-4.9,7.6-4.9l-1.6-14.6c-1.8,0.3-2.8,0.5-2.8,0.5L-260.6,577.2z"/>
	<path class="st21" d="M-260.6,577.2c4.4-2.6,7.6-4.9,7.6-4.9l-1.6-14.6c-1.8,0.3-2.8,0.5-2.8,0.5L-260.6,577.2z"/>
	<path class="st6" d="M-322.4,568.7l15,2.3c0,0,2.6,2.3,6.4,5.8l19.6,1.6c-0.9-6.7-3.9-15.1-5.7-19.8l-41.5,9.8l4.2,6.4l2.9,0.2
		C-322.7,571-322.4,568.7-322.4,568.7z"/>
	<path class="st7" d="M-276.5,578.8l-6.5-21.2l-4.1,1c1.8,4.7,4.8,13.1,5.7,19.8L-276.5,578.8z"/>
	<path class="st22" d="M-276.5,578.8l-6.5-21.2l-4.1,1c1.8,4.7,4.8,13.1,5.7,19.8L-276.5,578.8z"/>
	<path class="st4" d="M-284.8,850.2c3.6-2.7,6.1-4.6,6.1-4.6s4.1,2,7.6,5c0.9-2.2,1.6-4.7,1.8-6.9c0.3-3.6,0.1-7.4-0.6-10.7
		l-19.6-2.5C-287.7,839-285.9,846.1-284.8,850.2z"/>
	<path class="st4" d="M-284.3,767.1c-2.6,1.7-4.9,2.4-7,1.6c-0.9-0.3-1.6-0.9-2.2-1.6c-1.2,3.8-2.4,8.6-2.6,14.1
		c-0.1,1.8-0.1,3.6,0,5.6l12.3-1.1C-283.9,780.4-284.1,772.2-284.3,767.1z"/>
	<path class="st4" d="M-291.2,768.8c2,0.8,4.4,0.1,7-1.6c-0.1-2.7-0.1-4.5-0.1-4.5l-5.6-3.9c0,0-1.8,3.2-3.5,8.3
		C-292.8,767.8-292.1,768.4-291.2,768.8z"/>
	<path class="st5" d="M-291.2,768.8c2,0.8,4.4,0.1,7-1.6c-0.1-2.7-0.1-4.5-0.1-4.5l-5.6-3.9c0,0-1.8,3.2-3.5,8.3
		C-292.8,767.8-292.1,768.4-291.2,768.8z"/>
	<path class="st4" d="M-201.3,774c-0.9-0.2-1.7-0.5-2.5-1c-0.6,4.4-1.3,9.8-2.1,15.5l6.3,1.1l0.7-15.7
		C-199.6,774.1-200.4,774.1-201.3,774z"/>
	<path class="st4" d="M-207.8,847.5c0,0,1,0.7,2.6,1.7l3.1-2.2l0.7-16.1c-4.6,0.7-9.1,1.4-13.5,1.9c-1.7,9-2.7,18.6-3.1,23.2
		c1.7-3.2,3.8-5.8,3.8-5.8L-207.8,847.5z"/>
	<path class="st4" d="M-202.6,762.7c0,0-0.5,4.1-1.2,10.3c0.8,0.5,1.7,0.8,2.5,1c0.9,0.2,1.7,0.1,2.4-0.2l0.3-6.8L-202.6,762.7z"/>
	<path class="st5" d="M-202.6,762.7c0,0-0.5,4.1-1.2,10.3c0.8,0.5,1.7,0.8,2.5,1c0.9,0.2,1.7,0.1,2.4-0.2l0.3-6.8L-202.6,762.7z"/>
	<path class="st14" d="M-300.6,880.8c0,0-6.5-1.3-12.1-3.3l-2.1,5.9c0.8,0.4,1.8,0.7,2.9,0.9c14.3,3.3,27-1.3,27-1.3
		s19.2-11.4,18.6-19.2c-0.2-1.8-0.2-3.9-0.3-6C-272.5,868-300.6,880.8-300.6,880.8z"/>
	<path class="st15" d="M-283.8,853.9c0,0-0.4-1.3-1-3.7c-6.6,4.9-17.1,12.1-23.3,14.3l-4.6,13c5.6,1.9,12.1,3.3,12.1,3.3
		s28-12.8,33.9-22.9c-0.2-2.7-2.2-5.2-4.5-7.3c-1.3,3.3-2.8,5.9-2.8,5.9L-283.8,853.9z"/>
	<path class="st4" d="M-284.8,850.2c0.6,2.3,1,3.7,1,3.7l9.9,2.7c0,0,1.5-2.6,2.8-5.9c-3.4-3-7.6-5-7.6-5S-281.2,847.6-284.8,850.2z
		"/>
	<path class="st23" d="M-284.8,850.2c0.6,2.3,1,3.7,1,3.7l9.9,2.7c0,0,1.5-2.6,2.8-5.9c-3.4-3-7.6-5-7.6-5S-281.2,847.6-284.8,850.2
		z"/>
	<path class="st15" d="M-171.8,874.4l-4.2-12.3c-6.8-2.1-13.6-3.5-17.7-5.7c-2.6-1.4-8.2-5-11.5-7.2l-13,9.5c0,0,0.1-1,0.2-2.7
		c-1.1,2-2.1,4.4-2.4,6.6c6.5,6.4,26.7,15.7,26.7,15.7S-181.9,877-171.8,874.4z"/>
	<path class="st4" d="M-205.2,849.2c-1.5-1-2.6-1.7-2.6-1.7l-6.4,2.7c0,0-2,2.5-3.8,5.8c-0.2,1.7-0.2,2.7-0.2,2.7L-205.2,849.2z"/>
	<path class="st23" d="M-205.2,849.2c-1.5-1-2.6-1.7-2.6-1.7l-6.4,2.7c0,0-2,2.5-3.8,5.8c-0.2,1.7-0.2,2.7-0.2,2.7L-205.2,849.2z"/>
	<path class="st14" d="M-193.7,878.2c0,0-20.2-9.3-26.7-15.7c-0.2,1.7-0.3,3.6,0,5.9c1,9.8,28,16,28,16s13.5-1.3,22.7-3.8l-2.1-6.2
		C-181.9,877-193.7,878.2-193.7,878.2z"/>
	<path class="st6" d="M-156.6,640.6c0.6-3.5,1.4-6.1,1.4-6.1s2,0.9,4.6,2.4c2.9-7.9-4.7-25.3-10.7-34l-11.8,12.2
		C-169.8,623.4-163,638.8-156.6,640.6z"/>
	<path class="st6" d="M-156.6,640.6c1,0.3,2,0.2,3-0.2c1.4-0.7,2.4-1.9,3-3.4c-2.6-1.5-4.6-2.4-4.6-2.4S-156,637.1-156.6,640.6z"/>
	<path class="st20" d="M-156.6,640.6c1,0.3,2,0.2,3-0.2c1.4-0.7,2.4-1.9,3-3.4c-2.6-1.5-4.6-2.4-4.6-2.4S-156,637.1-156.6,640.6z"/>
	<path class="st7" d="M-175.1,609.8c0,0,0.7,2.2,2,5.3l11.8-12.2c-0.5-0.7-1-1.4-1.4-1.9C-169.9,591.8-175.1,609.8-175.1,609.8z"/>
	<path class="st22" d="M-175.1,609.8c0,0,0.7,2.2,2,5.3l11.8-12.2c-0.5-0.7-1-1.4-1.4-1.9C-169.9,591.8-175.1,609.8-175.1,609.8z"/>
	<path class="st6" d="M-163.1,720.2c0,0,0.4-1.4,1.1-3.6c-3.3,0.4-8.5,1.8-12.5,3.9c-5.5,2.9-14.7-0.3-14.7-0.3l3.9,6.8l9.1,0.3
		c0,0-6.8,8.5-7.2,13c-0.3,4.6-0.3,13-1.6,14.3c-0.9,0.9-5.6,3.3-8.4,4.6c0,0.6-0.1,1.2-0.2,1.8l3.7,1.7c0,0,8.1-0.7,8.8-2.3
		c0.7-1.6,2.9-5.9,2.9-5.9l10.1-6.5c0,0,14.1-21.7,11.1-29.3c-1.2,2.4-1.9,3.9-1.9,3.9L-163.1,720.2z"/>
	<path class="st6" d="M-159.2,716.6c-0.5-0.2-1.5-0.2-2.8,0c-0.7,2.2-1.1,3.6-1.1,3.6l4.2,2.6c0,0,0.8-1.5,1.9-3.9
		C-157.3,717.8-158,717.1-159.2,716.6z"/>
	<path class="st20" d="M-159.2,716.6c-0.5-0.2-1.5-0.2-2.8,0c-0.7,2.2-1.1,3.6-1.1,3.6l4.2,2.6c0,0,0.8-1.5,1.9-3.9
		C-157.3,717.8-158,717.1-159.2,716.6z"/>
	<path class="st4" d="M-195.3,760.3l1.9,0.9c0.1-0.6,0.1-1.2,0.2-1.8C-194.5,759.9-195.3,760.3-195.3,760.3z"/>
	<path class="st6" d="M-195.3,760.3l1.9,0.9c0.1-0.6,0.1-1.2,0.2-1.8C-194.5,759.9-195.3,760.3-195.3,760.3z"/>
	<path class="st24" d="M-399.2,611.2c-2,4.6-3.9,7.6-3.9,7.6s-0.8,1.7-2.3,4c3.5-1.8,7.3-3.5,11.1-4.9
		C-396.3,615.9-397.9,613.6-399.2,611.2z"/>
	<path class="st24" d="M-405.4,622.8c1.5-2.4,2.3-4,2.3-4s1.9-3,3.9-7.6c-0.8-1.5-1.6-3.1-2.2-4.6c-8.1,1.5-14.9,4.8-19.9,7.9
		c2.8,2.8,6.4,6.8,10.3,11.4C-409.2,624.9-407.4,623.8-405.4,622.8z"/>
	<path class="st24" d="M-418.8,684.5c-0.1,0.5-0.3,1-0.4,1.5c-1.3,4.5-2.9,8.1-4.6,11.1l36.7,18.8c3.8-5.4,6.9-12.3,9-19.3
		C-395.9,698.4-410.6,690.4-418.8,684.5z"/>
	<path class="st24" d="M-417.9,598.2c-0.1,0.1-0.1,0.2-0.2,0.3c0.2-0.1,0.4-0.1,0.6-0.2L-417.9,598.2z"/>
	<path class="st24" d="M-415.7,597.8h0.2h0.1C-415.5,597.7-415.6,597.7-415.7,597.8z"/>
	<path class="st24" d="M-377.2,652.3c-1.4-7.7-3.4-14.2-5.5-19.7c-6.3,1.4-12.3,3.6-17.6,6c4.2,5.1,8.1,10,11.4,14.3
		c0.3,0.3,0.5,0.5,0.8,0.8C-384.4,653-380.7,652.5-377.2,652.3z"/>
	<path class="st24" d="M-359.9,617.3c-1.2-2.4-2.3-4.4-3.1-5.9c-0.2,0.4-0.5,0.8-0.9,1.3L-359.9,617.3z"/>
	<path class="st24" d="M-364.8,613.9c2.2,1.9,4.3,3.9,6.1,5.9c-0.4-0.9-0.8-1.7-1.2-2.5l-4-4.7
		C-364.2,613.1-364.5,613.5-364.8,613.9z"/>
	<path class="st24" d="M-372.9,620.8c0.4,1.4,0.9,2.9,1.4,4.5c1.8,0,5-0.1,9,0.2l-2.8-10.9C-367.1,616.7-369.6,619.1-372.9,620.8z"
		/>
	<path class="st24" d="M-362.5,625.5c2.1,0.1,4.4,0.3,6.9,0.6c-1.1-2.3-2.1-4.4-3-6.2c-1.9-2-3.9-4-6.1-5.9
		c-0.2,0.2-0.4,0.4-0.5,0.7L-362.5,625.5z"/>
	<path class="st24" d="M-365.9,719c0.5,5.6,6.7,8.4,6.7,8.4s9.7-2.2,15.4-4.6c-0.4-0.5-0.8-1.1-1.2-1.7
		C-353,719.7-365.9,719-365.9,719z"/>
	<path class="st24" d="M-342.5,721.6c-0.8-0.2-1.6-0.4-2.5-0.5c0.4,0.6,0.8,1.2,1.2,1.7c0.8-0.3,1.5-0.7,2.1-1
		C-342,721.8-342.2,721.7-342.5,721.6z"/>
	<path class="st6" d="M-235.4,522.4l-5.6-2.5l-3.8,8.8l4.5,10.1l4.8-1.7c0.2-4.5,0.6-8.7,1-12.2L-235.4,522.4z"/>
	<path class="st6" d="M-182.8,538.5C-182.9,538.5-182.9,538.5-182.8,538.5C-182.9,538.5-182.9,538.5-182.8,538.5
		C-182.9,538.5-182.9,538.5-182.8,538.5z"/>
	<path class="st6" d="M-187.8,548.2l-1,3.3l7.5-1.6c0,0,4.1-2.7,6.3-6.3c-2.8-1.3-5.7-3.1-7.9-4.9
		C-184.2,541.4-185.9,544.7-187.8,548.2z"/>
	<path class="st6" d="M-234.2,559.8c-0.1-0.3-0.2-0.5-0.2-0.8c0.2,2.1,0.8,4.7,1.6,7.5c0.2,0.6,0.4,1.1,0.6,1.7L-234.2,559.8z"/>
	<path class="st6" d="M-234.5,558.8l0.2,1c1,3.3,3,8.1,6.7,11.4c1.7,1.5,6.3,3.2,6.3,3.2s15.3-3.8,21.8-8.9l0.6-0.6h0.1
		c0.1,0,0.1-0.1,0.2-0.1c0,0.1,0,0.2,0,0.2l0,0c4-5.3,7.7-11.3,10.7-16.8l3.1-9.6c-8.6,0.7-21.6,3.3-21.6,3.3l-14.5-14.5v-0.1
		c-2.9-1.2-9.8-5.1-13.1-7.5c-0.2,1.4-0.4,3.1-0.6,5l0.7,2.2l-0.3,9.5l-1.4,0.5c-0.3,6.2-0.2,13,0.5,19.2c0.2,0,0.4,0,0.5,0
		C-234.5,557-234.6,557.8-234.5,558.8z M-214.6,550.8c2-3.9,6.5,0.3,7.5,2.3s6.8,3.9,6.8,3.9s-2.6,2-9.4,1S-214.6,550.8-214.6,550.8
		z M-223,547.9c3.3-2.3,6.5-0.7,5.9,2.3c-0.7,2.9-7.5,7.2-14-0.3C-231.2,549.8-226.3,550.1-223,547.9z"/>
	<path class="st7" d="M-234.8,557.8c0.4,3.1,1.1,6,1.9,8.7c-0.8-2.8-1.4-5.4-1.6-7.5C-234.6,558.6-234.7,558.2-234.8,557.8z"/>
	<path class="st6" d="M-234.8,557.8c0.4,3.1,1.1,6,1.9,8.7c-0.8-2.8-1.4-5.4-1.6-7.5C-234.6,558.6-234.7,558.2-234.8,557.8z"/>
	<path class="st7" d="M-198.5,565L-198.5,565L-198.5,565L-198.5,565z"/>
	<path class="st6" d="M-198.5,565L-198.5,565L-198.5,565L-198.5,565z"/>
	<path class="st7" d="M-198.7,564.8l-0.6,0.6C-199.1,565.2-198.9,565-198.7,564.8L-198.7,564.8z"/>
	<path class="st6" d="M-198.7,564.8l-0.6,0.6C-199.1,565.2-198.9,565-198.7,564.8L-198.7,564.8z"/>
	<path class="st7" d="M-234.5,558.8c-0.1-0.9-0.1-1.8,0.1-2.4c-0.2,0-0.4,0-0.5,0c0,0.3,0.1,0.6,0.1,0.9L-234.5,558.8z"/>
	<path class="st6" d="M-234.5,558.8c-0.1-0.9-0.1-1.8,0.1-2.4c-0.2,0-0.4,0-0.5,0c0,0.3,0.1,0.6,0.1,0.9L-234.5,558.8z"/>
	<path class="st6" d="M-198.5,564.7c-0.1,0-0.1,0.1-0.2,0.1l0.1,0.1C-198.5,564.9-198.5,564.8-198.5,564.7z"/>
	<path class="st6" d="M-198.5,564.7c-0.1,0-0.1,0.1-0.2,0.1l0.1,0.1C-198.5,564.9-198.5,564.8-198.5,564.7z"/>
	<path class="st6" d="M-231.1,570.8c1,1.9,3.4,5.2,5.7,8.3c2.3,2.9,6.1,3.8,9.3,2.4l16.7-16c-6.6,5.2-21.8,8.9-21.8,8.9
		s-4.6-1.7-6.3-3.2c-3.8-3.3-5.7-8.1-6.7-11.4l2,8.4C-231.9,569.1-231.5,570-231.1,570.8z"/>
	<path class="st20" d="M-231.1,570.8c1,1.9,3.4,5.2,5.7,8.3c2.3,2.9,6.1,3.8,9.3,2.4l16.7-16c-6.6,5.2-21.8,8.9-21.8,8.9
		s-4.6-1.7-6.3-3.2c-3.8-3.3-5.7-8.1-6.7-11.4l2,8.4C-231.9,569.1-231.5,570-231.1,570.8z"/>
	<path class="st6" d="M-234.2,559.8l-0.2-1c0,0.1,0,0.2,0,0.3C-234.4,559.3-234.3,559.5-234.2,559.8z"/>
	<path class="st6" d="M-234.2,559.8l-0.2-1c0,0.1,0,0.2,0,0.3C-234.4,559.3-234.3,559.5-234.2,559.8z"/>
	<path class="st7" d="M-198.7,564.8c-0.2,0.2-0.5,0.4-0.7,0.6l-16.7,16c0.7-0.3,1.3-0.7,1.9-1.2c2.5-2.2,5.4-4.6,7.5-6.5
		c2.8-2.4,5.5-5.4,8.1-8.7v-0.1L-198.7,564.8z"/>
	<path class="st6" d="M-198.7,564.8c-0.2,0.2-0.5,0.4-0.7,0.6l-16.7,16c0.7-0.3,1.3-0.7,1.9-1.2c2.5-2.2,5.4-4.6,7.5-6.5
		c2.8-2.4,5.5-5.4,8.1-8.7v-0.1L-198.7,564.8z"/>
	<path class="st6" d="M-198.7,564.8c-0.2,0.2-0.5,0.4-0.7,0.6l-16.7,16c0.7-0.3,1.3-0.7,1.9-1.2c2.5-2.2,5.4-4.6,7.5-6.5
		c2.8-2.4,5.5-5.4,8.1-8.7v-0.1L-198.7,564.8z"/>
	<path class="st7" d="M-234.5,558.8l-0.4-1.6c0,0.2,0.1,0.4,0.1,0.6c0.1,0.4,0.2,0.8,0.3,1.2C-234.5,558.9-234.5,558.9-234.5,558.8z
		"/>
	<path class="st6" d="M-234.5,558.8l-0.4-1.6c0,0.2,0.1,0.4,0.1,0.6c0.1,0.4,0.2,0.8,0.3,1.2C-234.5,558.9-234.5,558.9-234.5,558.8z
		"/>
	<path class="st6" d="M-234.5,558.8l-0.4-1.6c0,0.2,0.1,0.4,0.1,0.6c0.1,0.4,0.2,0.8,0.3,1.2C-234.5,558.9-234.5,558.9-234.5,558.8z
		"/>
	<path class="st6" d="M-233.8,527l-0.7-2.2c-0.4,3.5-0.8,7.7-1,12.2l1.4-0.5L-233.8,527z"/>
	<path class="st20" d="M-233.8,527l-0.7-2.2c-0.4,3.5-0.8,7.7-1,12.2l1.4-0.5L-233.8,527z"/>
	<path class="st6" d="M-183,538.5c0.1,0,0.1,0,0.2,0l0,0l0,0c-0.6,0-1.2,0.1-1.8,0.1l-3.1,9.6c1.9-3.5,3.5-6.7,4.9-9.5
		C-182.9,538.6-183,538.6-183,538.5z"/>
	<path class="st20" d="M-183,538.5c0.1,0,0.1,0,0.2,0l0,0l0,0c-0.6,0-1.2,0.1-1.8,0.1l-3.1,9.6c1.9-3.5,3.5-6.7,4.9-9.5
		C-182.9,538.6-183,538.6-183,538.5z"/>
	<path class="st6" d="M-217.2,550.1c0.7-2.9-2.6-4.6-5.9-2.3c-3.3,2.3-8.1,2-8.1,2C-224.7,557.3-217.8,553.1-217.2,550.1z"/>
	<path class="st9" d="M-217.2,550.1c0.7-2.9-2.6-4.6-5.9-2.3c-3.3,2.3-8.1,2-8.1,2C-224.7,557.3-217.8,553.1-217.2,550.1z"/>
	<path class="st6" d="M-209.7,558c6.8,1,9.4-1,9.4-1s-5.9-2-6.8-3.9c-1-2-5.5-6.2-7.5-2.3C-214.6,550.8-216.5,557-209.7,558z"/>
	<path class="st9" d="M-209.7,558c6.8,1,9.4-1,9.4-1s-5.9-2-6.8-3.9c-1-2-5.5-6.2-7.5-2.3C-214.6,550.8-216.5,557-209.7,558z"/>
	<path class="st24" d="M-359,653.7c-0.3-4.9-0.5-9.1-0.6-12.2c-3-0.4-5.6-0.6-7.8-0.8c0.9,3.9,1.8,8.1,2.6,12.4
		C-363.2,653.3-361.2,653.5-359,653.7z"/>
	<path class="st24" d="M-359,653.7c5.2,0.6,11.5,1.6,16.9,3c-2.1-4.9-4-9.3-5.7-13.2c-4.3-0.9-8.3-1.5-11.9-2
		C-359.6,644.6-359.4,648.8-359,653.7z"/>
	<path class="st24" d="M-333.5,707c1.2,0.3,2.3,0.5,3.5,0.8c0.4-2,0.6-4.4,0.5-7.3l-3.9,0.4L-333.5,707z"/>
	<path class="st24" d="M-351.7,704.6c-0.1-0.5-0.3-1.1-0.4-1.6l-3.2,0.3l-8.1-2c-0.2,1.2-0.5,2.3-0.7,3.4
		C-360.8,704.5-356.6,704.3-351.7,704.6z"/>
	<path class="st24" d="M-334.1,701l-18,1.9c0.1,0.5,0.3,1.1,0.4,1.6c5.1,0.3,11,0.9,17.5,2.3C-334.1,704.9-334.1,703-334.1,701z"/>
	<path class="st24" d="M-334.2,706.9c0.2,0,0.4,0.1,0.6,0.1v-6l-0.6,0.1C-334.1,703-334.1,704.9-334.2,706.9z"/>
	<path class="st25" d="M-199.1,667.4c-2.8,1.4-5.7,4-8.2,7.1c-1.6,2-3,4.2-4.1,6.6c0.7,0.1,1.3,0.3,1.9,0.6c1.1-2.5,2.7-4.9,4.6-7.2
		c1.6-1.9,3.4-3.7,5.3-5.3c1.3-1.1,2.6-2.1,3.9-3C-196.8,666.4-197.9,666.8-199.1,667.4z"/>
	<path class="st24" d="M-378.2,678.3L-378.2,678.3L-378.2,678.3L-378.2,678.3z"/>
	<path class="st24" d="M-417.1,671.8c-0.1,1.5-0.1,3.1-0.3,4.5c3.5,1,8.1,2.1,13,3.2C-408.9,677.7-413.1,675-417.1,671.8z"/>
	<path class="st24" d="M-389,652.8c0.2,0.3,0.4,0.6,0.6,0.8c0.1,0,0.1,0,0.2,0C-388.4,653.4-388.7,653.1-389,652.8z"/>
	<path class="st24" d="M-394.7,681.5c0.7,0.1,1.4,0.2,2,0.3c0-0.1-0.1-0.1-0.1-0.2C-393.4,681.6-394,681.6-394.7,681.5z"/>
	<path class="st24" d="M-399.8,680.6c-6.4-1.8-12.2-5.7-17.3-10.4c0,0.6,0,1.1,0,1.7c4,3.2,8.3,5.9,12.7,7.8
		C-402.9,679.9-401.3,680.2-399.8,680.6z"/>
	<path class="st24" d="M-378.4,678.5c0.1-0.1,0.2-0.1,0.2-0.1l0,0l-0.1-0.5C-378.3,678.2-378.4,678.4-378.4,678.5z"/>
	<path class="st24" d="M-389.6,681.6c0.1,0,0.2,0,0.4,0c-0.1-0.2-0.2-0.3-0.2-0.5c-1,0-2,0-3,0c-1.6-3.9-0.4-10-0.2-11
		c-0.2,0.2-0.3,0.3-0.3,0.3s-1.6,6.9,0.1,11.2C-391.7,681.7-390.7,681.7-389.6,681.6z"/>
	<g>
		<path class="st2" d="M-30.9,570.6c-0.4-0.2-0.8-0.4-1.2-0.6c-2.2-0.9-4.8-0.6-6.7,1.9c0.4-2.2,0.3-4.4-0.1-6.6
			c-0.2-1.1-0.5-2.2-0.9-3.3c-8.8-2.9-26.5-5.6-36.2-7c-3.7,5.6-14.3,21.8-14.3,21.8s4.3,5,7.2,6.4C-84.4,590.3-86,603-86,603
			s11.7,2.1,12.8,2.3c-0.1,1.3-0.1,2.6-0.1,4c0,3.2,0.3,6.7,1.2,9.4c0.7-0.3,1.5-0.7,2.3-1.2c0.4-0.2,0.7-0.4,1.1-0.6
			c6-3.5,14.4-9.5,14.6-9c0-0.1,0.1-0.2,0.1-0.3c0.5-1.5,0.8-3.2,1.2-4.5c0.1-0.5,0.3-1,0.4-1.4c0.1-0.4,0.2-0.8,0.3-1.2l0,0
			c0-0.1,0.1-0.1,0.1-0.2c0,0,0.1-0.1,0.3-0.3c0.3-0.4,0.9-1,1.6-1.8c1.9-2.2,4.7-5.9,6.2-9.1l0,0h0.1l9.8-1.5l6.6-12.4
			C-27.7,573.6-29.1,571.7-30.9,570.6z"/>
		<g>
			<path class="st4" d="M-2.4,756.8c0.4-1.9,0.5-3.9,0.4-5.8c-0.3-6.1-11.1-48.8-11.1-48.8l-5.5-7.3l0.3,7.1c0,0-1.5-0.3-3.6-1.4
				l-1.5,8.9c0,0,0.9,11,1.9,15.7c2.5,12.1,4.3,36,9.6,39.9l4.1-8.4C-6.5,755-4.5,755.4-2.4,756.8z"/>
			<path class="st2" d="M1.1,759.4c-1.2-1-2.4-2-3.5-2.6c-2.2-1.3-3.5,5.5-3.5,5.5l-6,2.8l-4.8,10l0.1,3.7l6.2,8.9
				c0,0-2.8,11.7-1.3,13.5c1.5,1.7,6.3-1.3,6.3-1.3l3.9-10.9l9.3-8.9C7.8,780,4.6,762.5,1.1,759.4z"/>
			<path class="st12" d="M-2.4,756.8c-2.2-1.3-4.1-1.8-5.4-0.2l-4.1,8.4l6-2.8C-5.8,762.2-4.5,755.4-2.4,756.8z"/>
		</g>
	</g>
	<g>
		<path class="st9" d="M-3.6,582.6l12.3-12.7l-31.6-16.8l1.4-10.7L-40.6,529l-27.2,0.7c0,0-15.2,22.2-14.9,24.5c0,0,2.6,0.3,6.7,0.9
			c9.7,1.4,27.4,4.1,36.2,7c0.4,1.1,0.7,2.2,0.9,3.3c0.4,2.2,0.5,4.5,0.1,6.6c1.9-2.5,4.5-2.8,6.7-1.9c0.5,0,0.8,0,0.8,0l0.4,0.6
			c1.8,1.1,3.2,3,3.4,4.8l-6.6,12.4l-9.8,1.5H-44c-1.5,3.2-4.3,6.9-6.2,9.1c-0.5,0.7-1.1,1.3-1.6,1.8c-0.2,0.2-0.3,0.3-0.3,0.3
			s0,0.1-0.1,0.2c-0.1,0.4-0.2,0.8-0.3,1.2c-0.1,0.5-0.3,0.9-0.4,1.4c2.4,4.5,5.8,10.7,8.8,14.2c5.2,6.1,12.6,13,24.8,5.2
			c12.2-7.8,1.3-21.7,1.3-21.7l2.8-2.1c3.6,4.7,5.5,11.8,4.9,17.8c1.5-2.5,2.4-4.3,2.4-4.3l-4.6-15.6L0,587.7L-3.6,582.6z
			 M-9.8,573.9l-14.3-11.5l0.5-4l27.3,12.8l-8,10.4L-9.8,573.9z"/>
		<path class="st9" d="M-22,628.3c7.5,0.3,11.1-5,11.8-11.5C-12.8,621-17.2,626.9-22,628.3z"/>
	</g>
	<path class="st10" d="M-81.6,620.8c0.2,0.6-0.1,1.8-0.8,3.3l9-3.2c0.2-0.5,0.4-1,0.6-1.5c0-0.1,0.1-0.2,0.1-0.4
		c0.2-0.1,0.4-0.1,0.6-0.2c-0.9-2.7-1.2-6.2-1.2-9.4c-1.9,1.8-8.2,7.6-12.3,12.9C-83.3,621-81.8,620.4-81.6,620.8z"/>
	<path class="st10" d="M-85.6,625.3l3.2-1.1c0.7-1.5,1-2.7,0.8-3.3c-0.2-0.4-1.6,0.2-4,1.5c-1.1,1.4-2,2.7-2.7,3.9L-85.6,625.3z"/>
	<path class="st4" d="M-82.4,624.2c-0.4,1-1,2.1-1.6,3.3c0.3,0.2,0.7,0.4,1.1,0.5c0.7-1.6,1.4-3,2-4.2L-82.4,624.2z"/>
	<path class="st10" d="M-81,623.7c-0.6,1.2-1.2,2.6-2,4.2c4,0.8,9.5-6.9,9.5-6.9l-4.6,1.6L-81,623.7z"/>
	<path class="st11" d="M-78,622.6l-2.9,1l-1.4,0.5c-0.4,1-1,2.1-1.6,3.3c0.3,0.2,0.7,0.4,1.1,0.5c4,0.8,9.5-6.9,9.5-6.9L-78,622.6z"
		/>
	<path class="st4" d="M-85.6,625.3c0.4,1,1,1.7,1.6,2.1c0.7-1.2,1.2-2.3,1.6-3.3L-85.6,625.3z"/>
	<path class="st4" d="M-85.6,625.3c0.4,1,1,1.7,1.6,2.1c0.7-1.2,1.2-2.3,1.6-3.3L-85.6,625.3z"/>
	<g>
		<path class="st12" d="M-18.5,694.8l-1.9-2.5l-1.4,8.2c2.1,1.1,3.6,1.4,3.6,1.4L-18.5,694.8z"/>
		<path class="st12" d="M-44.3,629.7l-4.2,17.8l5.4,20.8c1.2-15.8,2.1-31.7,1.7-37.9C-43.2,629.6-44.3,629.7-44.3,629.7z"/>
		<path class="st12" d="M-52,618c0,0-0.2-1.2-0.4-2.9c-0.1,0-0.1-0.1-0.2-0.1c0.1,0.8,0,1.5-0.1,2.1c-0.6,2.4-6.9,8.5-12.7,13.1
			c-0.1,0.1-0.3,0.2-0.4,0.3c-0.3,0.2-0.5,0.4-0.8,0.6c-0.2,0.1-0.3,0.2-0.5,0.3c-0.3,0.2-0.5,0.4-0.8,0.6c-0.1,0.1-0.3,0.2-0.4,0.3
			c-0.3,0.2-0.7,0.5-1,0.7l0,0c0,0-0.2,0.5-0.5,1.5l1.8-0.2L-52,618z"/>
		<path class="st12" d="M-70,634.5c-3.2,8-6.3,19.2-8.2,34.8c1.7-13.9,6.8-30,8.4-34.8H-70z"/>
		<path class="st12" d="M-83.5,728.2l2.5,7.6l18.8,8.6c0.1-0.3,0.2-0.6,0.2-1c-0.9-8.3-20.5-38.8-16.2-74
			C-82.5,704.5-83.5,728.2-83.5,728.2z"/>
		<path class="st12" d="M-143,660.8L-143,660.8c-1,0.7-1.5,1-1.5,1l4.6,6.1l1.8,2.4l3.6-2.1l-5.1-4.5L-143,660.8z"/>
		<path class="st12" d="M-85.6,625.3c-4.2,5.2-12,15-19.9,26.3l8.9-5.1c0,0,8.3-11.3,12.6-19c0.7-1.2,1.2-2.3,1.6-3.3L-85.6,625.3z"
			/>
	</g>
	<polygon class="st10" points="-82.4,624.2 -81,623.7 -78,622.6 -73.4,621 	"/>
	<polygon class="st10" points="-82.4,624.2 -81,623.7 -78,622.6 -73.4,621 	"/>
	<path class="st10" d="M-82.4,624.2l-3.2,1.1L-82.4,624.2z"/>
	<path class="st10" d="M-82.4,624.2l-3.2,1.1L-82.4,624.2z"/>
	<path class="st5" d="M-314.6,824.8l12.4,9.3l6.2-3.9c0,0-0.5-0.3-1.2-0.7l-9.3-1.2L-314.6,824.8z"/>
	<path class="st5" d="M-177.3,831.2l4.5-6.1c-4.3,1.2-9.3,2.3-14.5,3.3L-177.3,831.2z"/>
	<g>
		<path class="st26" d="M-332.1,800.8v0.8c0.1-0.3,0.2-0.6,0.3-0.9C-332,800.8-332.1,800.8-332.1,800.8z"/>
		<path class="st26" d="M-157.1,806.1l-24.9,13c0,0-8.1,1.5-19.1,3.1c-3.6,0.5-7.6,1-11.7,1.5c-10.8,1.3-22.7,2.3-32.1,2.1
			c-9.9-0.2-19.4-0.8-28.3-1.8c-6.5-0.7-12.6-1.6-18.3-2.6c-23.8-4.3-39.8-11.1-40.7-18.6v9.6l8.4,8.4l7.9,3.5l1.2,0.5l8,3.5
			l9.3,1.2l1.5,0.2l6.2,0.8l19.6,2.5l25.1,3.2c0,0,13.5-1.2,30-3.4c4.3-0.6,8.9-1.2,13.5-1.9c4.7-0.7,9.4-1.5,13.9-2.4
			c0.1,0,0.1,0,0.2,0c5.2-1,10.2-2.1,14.5-3.3c0.9-0.2,1.8-0.5,2.6-0.7c8.1-2.4,13.5-5.1,13.5-8.1
			C-156.6,814.5-156.9,809-157.1,806.1z"/>
		<path class="st26" d="M-158.6,804.9l1.4,0.6C-157.4,805.3-157.9,805.1-158.6,804.9z"/>
	</g>
	<g>
		<path class="st27" d="M-170.2,824.3c-0.8,0.2-1.7,0.5-2.6,0.7c-4.3,1.2-9.3,2.3-14.5,3.3c-0.1,0-0.1,0-0.2,0L-176,862l4.2,12.3
			l2.1,6.2l10.2,29.9l7.5-0.5L-170.2,824.3z"/>
		<polygon class="st27" points="-306.6,828.3 -314.6,824.8 -315.8,824.3 -333,917.5 -327.3,918.6 -314.8,883.5 -312.7,877.6 
			-308.1,864.6 -295.7,829.7 -297.2,829.5 		"/>
		<path class="st27" d="M-157.1,806.1l0.4-0.2l-0.6-0.3l-1.4-0.6l-27.8-13.2l-13.2-2.2l-6.3-1.1l-5.5-0.9l-0.4,7.1l-0.5,8.9
			c0,0.2-0.1,0.5-0.3,0.7c-3.1,4.7-32.4,6.5-32.4,6.5s-31-6.2-31.4-11.3c0-0.1,0-0.2,0-0.4s0.1-0.4,0.1-0.6c0.1-0.4,0.1-0.8,0.2-1.4
			c0.1-0.8,0.2-1.8,0.3-2.9c0.2-2.5,0.5-5.8,0.7-9.4l-8.6,0.8l-12.3,1.1l-14,1.3c0,0-19,7.2-21.8,12.7c-0.1,0.3-0.3,0.6-0.3,0.9
			c0,0.1-0.1,0.3-0.1,0.4c0,0.3,0,0.5,0,0.8c0.9,7.5,16.9,14.3,40.7,18.6c5.7,1,11.8,1.9,18.3,2.6c8.9,1,18.4,1.6,28.3,1.8
			c9.5,0.2,21.3-0.8,32.1-2.1c4.1-0.5,8.1-1,11.7-1.5c11-1.6,19.1-3.1,19.1-3.1L-157.1,806.1z"/>
	</g>
	<path class="st26" d="M-212.6,804.2c-3.1,4.7-32.4,6.5-32.4,6.5s-31-6.2-31.4-11.3c0-0.1,0-0.2,0-0.4c0-0.2,0.1-0.4,0.1-0.6
		c0.1-0.4,0.1-0.8,0.2-1.4l-5.7,1.3l-13,3l-14.7,3.3l15.8,4l16.3,4.2l5.2,1.3c0,0,48.7,1.4,58-4.3
		C-210.7,807.8-210.5,805.9-212.6,804.2z"/>
	<path class="st28" d="M-208.2,740.8l-8.9-6.6l-5.3-0.7c0-0.1,0-0.1-0.1-0.2l-18.3-2.3l-19.2,2.9l-0.6,0.3c-0.7,1.2-1.3,2.4-2,3.5
		c3-1,5.8-1.8,5.8-1.8l15.9-1.2c0,0,11.1,1.2,19.6,3.1c0,0.1,0,0.1,0.1,0.2c5.4,1.1,9.6,2.6,9.6,4.2c0,1.3-3,2.5-7.2,3.7v0.1
		c-8.7,2.1-22.2,3.7-22.2,3.7s-18-2-25.9-4.9l0,0c-2.2-0.8-3.5-1.7-3.5-2.6c0-1.4,4.1-3.1,7.7-4.5c0.7-1.2,1.3-2.3,2-3.5l-12.7,6.6
		c0,0-0.3,6.3-0.7,14.9c-0.4,9-1,20.3-1.6,29.4l0,0c-0.2,3.7-0.7,9.5-0.7,9.5v0.1c0,0-0.2,2.1-0.3,2.9c-0.1,0.5-0.1,1-0.2,1.4
		c-0.1,0.2-0.1,0.4-0.1,0.6c0,0.1,0,0.3,0,0.4c0.3,5.2,31.8,11.5,31.8,11.5s29.7-1.8,32.9-6.6c-0.9-0.7-0.9-0.8,0-0.1
		c0.1-0.2,0.3-0.5,0.3-0.7l0.5-9c-1-0.1-1-0.2,0-0.1l0.4-7l0,0l1.3-21.7c0-0.1-0.1-0.1-0.1-0.2L-208.2,740.8z M-254.8,761.3
		c0,0,9.2-1.3,11.3-5.6c2,5,9.5,6,9.5,6s0.3,11.2-11.3,18.8C-257.1,771.6-254.8,761.3-254.8,761.3z"/>
	<path class="st28" d="M-269.9,742.5c0,0.9,1.4,1.7,3.5,2.5c1.4-2.2,2.7-4.5,4.1-6.9C-265.9,739.4-269.9,741.1-269.9,742.5z"/>
	<path class="st28" d="M-212,742.5c0-1.6-4.3-3-9.6-4.2c0.8,2.6,1.6,5.3,2.5,7.8C-215,745.1-212,743.8-212,742.5z"/>
	<path class="st28" d="M-234.1,761.6c0,0-7.5-1-9.4-5.9c-2,4.2-11.1,5.5-11.1,5.5s-2.3,10.1,9.4,18.9
		C-233.8,772.7-234.1,761.6-234.1,761.6z"/>
	<g>
		<path class="st5" d="M-220.5,737.7c-8.9-2-20.4-3.3-20.4-3.3l-16.5,1.3c0,0-2.8,0.7-6,1.9c-3.8,1.4-8,3.2-8,4.6
			c0,0.9,1.5,1.8,3.7,2.6c8.1,3,26.9,5.1,26.9,5.1s14-1.6,23.1-3.9c4.3-1.2,7.5-2.4,7.5-3.8C-210.4,740.5-214.9,738.9-220.5,737.7z"
			/>
		<path class="st5" d="M-243.5,754.7c-2.1,4.5-11.9,5.9-11.9,5.9s-2.5,10.8,10.1,20.2c12.2-8,11.9-19.9,11.9-19.9
			S-241.4,759.9-243.5,754.7z"/>
	</g>
	<path class="st29" d="M-387.2,622.2c0.4,0.1,0.8,0.3,1.3,0.3c5.2,1.2,9.6,0.1,13.1-1.7c-0.6-1.8-1.1-3.4-1.6-4.8
		c-4.3,1.1-8.6,1.5-12.2,0c-1.5-0.6-3-1.3-4.5-2.1c0.4,0.8,0.7,1.7,1.2,2.6C-389.1,618.2-388.2,620.1-387.2,622.2z"/>
	<path class="st24" d="M-394.3,617.9c1.4-0.5,2.9-1,4.3-1.5c-0.4-0.9-0.8-1.7-1.2-2.6c-2.5-1.3-5-2.8-7.3-4.6
		c-0.3,0.7-0.6,1.3-0.8,1.9C-397.9,613.6-396.3,615.9-394.3,617.9z"/>
	<path class="st30" d="M-394.3,617.9c1.4-0.5,2.9-1,4.3-1.5c-0.4-0.9-0.8-1.7-1.2-2.6c-2.5-1.3-5-2.8-7.3-4.6
		c-0.3,0.7-0.6,1.3-0.8,1.9C-397.9,613.6-396.3,615.9-394.3,617.9z"/>
	<path class="st24" d="M-398.4,609.3c-1-0.8-2-1.7-3-2.6l0,0c0.6,1.5,1.3,3.1,2.2,4.6C-399,610.6-398.7,609.9-398.4,609.3z"/>
	<path class="st30" d="M-398.4,609.3c-1-0.8-2-1.7-3-2.6l0,0c0.6,1.5,1.3,3.1,2.2,4.6C-399,610.6-398.7,609.9-398.4,609.3z"/>
	<path class="st31" d="M-394.3,617.9c2,1.9,4.3,3.5,7.1,4.3c-1-2.1-1.9-4-2.8-5.8C-391.4,616.9-392.8,617.4-394.3,617.9z"/>
	<path class="st30" d="M-363.1,611.3c-0.4,0.2-0.9,0.5-1.4,0.7c-0.4,0.2-0.9,0.5-1.4,0.7c-0.1,0-0.2,0.1-0.3,0.1
		c-2.6,1.2-5.4,2.4-8.3,3.1c0.5,1.4,1,3,1.6,4.8c3.2-1.7,5.7-4.2,7.5-6.3c0.2-0.2,0.4-0.5,0.5-0.7c0.3-0.4,0.6-0.8,0.9-1.2
		c0.3-0.5,0.6-0.9,0.9-1.3C-363.1,611.4-363.1,611.3-363.1,611.3z"/>
	<g>
		<path class="st32" d="M-320.4,731.9c-2.1-2.8-5.7-4.8-9.4-5.7c-1.7-0.4-3.4-0.6-4.9-0.5l-0.1,0.2l-1.7,2.7l-4,6.5
			c1.9,10.1-3.9,16-3.9,16s6.8-0.3,10.1-3.9c1.3,7.2-6.2,12.1-6.2,12.1s8.1,1.3,13-5.9c-0.7,8.8-6.5,12.4-6.5,12.4s7.2-0.3,14-6.2
			c4.3-3.7,3.1-13.6,1.6-20.6C-319.4,735-320.4,731.9-320.4,731.9z"/>
		<path class="st32" d="M-264.8,680.9l-0.3-0.5l-22.9-7.3c0,0-10.4,2.3-14.5,5.7c0.6,5-1,11.3-5,18.8c-0.2,0.4-0.4,0.7-0.7,1
			c6,8.4,20.2,4.1,20.2,4.1s-4.6,5.2,3.3,5.6c2.2,0.1,4.2-1,5.8-2.8c0.3-0.4,0.7-0.7,1-1.1c3.5-4.4,5.3-11,5.3-11l2-1.1l6.9-3.7
			l1.7-0.9l1-0.5L-264.8,680.9z"/>
		<path class="st32" d="M-397.9,599.6l0.7-1.5l1.6-3.6l0.7-1.5c-0.5,0.2-1,0.4-1.5,0.6c-0.3,0.1-0.6,0.2-0.9,0.4
			c-2,0.7-4,1.3-6.1,1.8c-0.4,0.1-0.7,0.2-1.1,0.3c-1.2,0.3-2.5,0.5-3.7,0.7c0.3,0.6,0.6,1.2,0.9,1.8l3.4,0.3L-397.9,599.6z"/>
		<path class="st32" d="M-348.5,562.5c0,0-16.6,10.1-30.6,12.7c-0.4,0.1-0.8,0.1-1.1,0.2c-0.8,6-3.8,10.4-8,13.6l-4.9,9.3l-0.6,1
			l-1,1.9l-1.1,2l-0.5-0.1l-7-1.6l-2.7-0.6c1.3,2.1,2.9,4,4.5,5.6c0,0,0,0,0.1,0.1c1,0.9,1.9,1.8,3,2.6c2.3,1.8,4.8,3.3,7.3,4.6
			c1.5,0.8,3,1.5,4.5,2.1c3.6,1.5,7.9,1.2,12.2,0c2.9-0.8,5.7-1.9,8.3-3.1c0.1,0,0.2-0.1,0.3-0.1c0.5-0.2,0.9-0.5,1.4-0.7
			s0.9-0.5,1.4-0.7c0.1,0,0.1-0.1,0.2-0.1c4.4-2.4,7.5-4.7,7.5-4.7l9.9,2.6C-345.5,609.2-339,574.6-348.5,562.5z"/>
	</g>
	<path class="st24" d="M-333.5,701l3.9-0.4c0-0.3,0-0.7-0.1-1l-3.9,0.2L-333.5,701z"/>
	<path class="st24" d="M-352.1,702.9c-0.4-1.4-0.7-2.7-1-4.1l-9.5-2.3c-0.2,1.6-0.5,3.3-0.8,4.8l8.1,2L-352.1,702.9z"/>
	<path class="st24" d="M-334.2,699.8l-12.7,0.6l-6.3-1.5c0.3,1.4,0.7,2.8,1,4.1l18-1.9C-334.1,700.6-334.2,700.2-334.2,699.8z"/>
	<path class="st24" d="M-334.1,701l0.6-0.1v-1.2h-0.6C-334.2,700.2-334.1,700.6-334.1,701z"/>
	<g>
		<path class="st33" d="M-342.9,644.6l7,22.1l4.4,0.4c-3.3-12.2-8.7-24.3-17.2-34.4c0.4,0.8,0.7,1.7,1,2.5
			C-344.5,640.6-342.9,644.6-342.9,644.6z"/>
		<path class="st33" d="M-245.9,706.4c-2.1-1.6-4.4-4-5.7-7.4c-1.6-4.2-5.9-9.2-10.4-11.2l-1.7,0.9l-6.9,3.7l-2,1.1
			c0,0-1.9,6.6-5.3,11c0.4,0.2,0.8,0.4,1.3,0.6c2.8,1.4,6.7,3.9,8.9,7.7c3.1,5.3,7.5,10.8,11.7,13.9c0.9,0.7,1.9,1.3,2.8,1.7
			c2.4-3,8.7-13.9,11-17.9c0.5-0.9,0.9-1.5,0.9-1.5S-243.5,708.2-245.9,706.4z"/>
		<path class="st33" d="M-399.8,680.6c-6.4-1.8-12.2-5.7-17.3-10.4c-8-7.4-14.2-17.1-18.2-24.5c-0.6-1-1.1-2-1.6-3
			c-0.9-1.6-1.6-3.1-2.2-4.4c-1.2-2.5-1.8-4.1-1.8-4.1s4.6-11.4,8.9-18.6c-3.7,0.9-9.3,15.3-11.5,21.2c-0.6,1.5-0.9,2.5-0.9,2.5
			s0.6,1,1.6,2.6c0.5,0.7,1,1.6,1.7,2.6c4.5,6.7,13.1,18.5,24,27.1c4,3.2,8.3,5.9,12.7,7.8c3.9,1.6,7.9,2.6,12,2.8
			c-0.1-0.2-0.2-0.3-0.2-0.5c0-0.1-0.1-0.1-0.1-0.2c-0.7,0-1.3-0.1-1.9-0.1C-396.4,681.3-398.1,681-399.8,680.6z"/>
		<path class="st33" d="M-309,697.3c0.1,0.2,0.2,0.3,0.3,0.4c0.2,0.4,0.5,0.7,0.6,0.8c0,0,0,0,0,0.1c0.2-0.3,0.5-0.7,0.7-1
			c4-7.5,5.6-13.8,5-18.8C-302.5,678.8-312.3,691.2-309,697.3z"/>
		<path class="st33" d="M-381.6,662.1c0.3-0.1,0.5-0.2,0.8-0.4c-2.1-2.6-4.6-5.3-7.4-8.1c-0.3-0.3-0.5-0.5-0.8-0.8
			c0.2,0.3,0.4,0.6,0.6,0.8c2.8,3.6,4.9,6.6,6.1,8.4c0,0.1,0.1,0.2,0.1,0.2s0,0.1,0.1,0.1l0.6,0.1
			C-381.5,662.4-381.6,662.2-381.6,662.1z"/>
		<path class="st33" d="M-378.7,678.7c0.1-0.1,0.2-0.2,0.3-0.2c0-0.1,0-0.3,0-0.7l-2.4-10l-1.3-5.4c-0.3,0.1-0.5,0.2-0.8,0.3
			c-3.7,1.3-7,4.5-8.8,6.3c-0.4,0.5-0.8,0.9-1,1.1c-0.2,0.2-0.3,0.3-0.3,0.3s-1.6,6.9,0.1,11.2c1,0,2.1,0,3.1,0c0.1,0,0.2,0,0.4,0
			c-0.1-0.2-0.2-0.3-0.2-0.5c0.1,0,0.1,0,0.2,0C-384.4,681.4-379.9,679.3-378.7,678.7z"/>
		<path class="st33" d="M-362.9,611.2c-0.1,0-0.1,0.1-0.2,0.1c0,0,0,0.1,0.1,0.1C-363,611.3-363,611.3-362.9,611.2z"/>
		<path class="st33" d="M-401.4,606.6L-401.4,606.6L-401.4,606.6L-401.4,606.6z"/>
		<path class="st33" d="M-326.6,699.5l-3.1,0.1l-3.9,0.2h-0.6l-12.7,0.6l-6.3-1.5l-9.5-2.3l-14.4-3.7l-3.8-0.9c0,0-0.8-0.5-2-1.3
			l5.2,4.3l5,4.1l9.3,2.3l8.1,2l3.2-0.3l18-1.9l0.6-0.1l3.9-0.4c0.1,2.8-0.1,5.2-0.5,7.3c-0.7,3.7-2,6.2-3.5,8v8l-1.2,1.9l-0.1,0.2
			c1.7-0.1,3.6,0.1,5.1,0.3c1.5,0.2,2.5,0.4,2.5,0.4s1.5-11,0.8-26.4l4.8-0.5l8.3-0.9l-8.4,0.4L-326.6,699.5z"/>
	</g>
	<path class="st13" d="M-99.1,745.9c-7.6-1.7-12.1-4.8-14.7-8.3c-0.7,0.5-1.2,1.1-1.2,1.8c0,6.1,2.4,55.3,7.3,78.1
		c0.7,3.2,1.8,5.8,2.9,7.8c1-3.6,2.3-5,2.3-5l2.7,1.2l2.8-7.4c0,0,0-45.3-0.4-60.2c2.3,0.9,5.6,1.8,9,2.6
		c1.7,17.4,8.8,51.1,15.3,66.9c0.9,2.3,2.2,4.2,3.3,5.6l-0.5-7.5l5.8,3.2c0.8-2.9,1.5-6.6,1.5-10.7c0.3-22.8-3.9-65.4-3.9-65.4
		l-1.5-0.7C-75.8,749.9-88.6,749.2-99.1,745.9z"/>
	<path class="st10" d="M-113.8,737.6c2.6,3.5,7.1,6.6,14.7,8.3c10.6,3.4,23.4,4,30.9,2.1l-27.6-12.5
		C-95.9,735.5-109.6,734.8-113.8,737.6z"/>
	<path class="st34" d="M-113.8,737.6c2.6,3.5,7.1,6.6,14.7,8.3c10.6,3.4,23.4,4,30.9,2.1l-27.6-12.5
		C-95.9,735.5-109.6,734.8-113.8,737.6z"/>
	<path class="st13" d="M-104.8,825.3c1.2,2.3,2.3,3.6,2.3,3.6l2.8-7.5l-2.7-1.2C-102.4,820.2-103.8,821.7-104.8,825.3z"/>
	<path class="st35" d="M-104.8,825.3c1.2,2.3,2.3,3.6,2.3,3.6l2.8-7.5l-2.7-1.2C-102.4,820.2-103.8,821.7-104.8,825.3z"/>
	<path class="st13" d="M-69.8,829.1c1.5,1.9,2.7,2.9,2.7,2.9s1.5-2.7,2.7-7.2l-5.8-3.2L-69.8,829.1z"/>
	<path class="st35" d="M-69.8,829.1c1.5,1.9,2.7,2.9,2.7,2.9s1.5-2.7,2.7-7.2l-5.8-3.2L-69.8,829.1z"/>
	<path class="st7" d="M-232.4,652.9c0,4.7-3.9,8.6-8.6,8.6c-1,0-2-0.2-2.9-0.5c1.4,1,3.1,1.6,5,1.6l0,0c4.7,0,8.6-3.9,8.6-8.6
		c0-3.7-2.4-6.9-5.7-8.1C-233.8,647.4-232.4,650-232.4,652.9z"/>
	<g>
		<path class="st36" d="M-204.6,686.2c-0.5,0.2-0.9,0.4-1.3,0.6c0,0.3,0.1,0.6,0.1,0.9c0,0.8-0.1,1.5-0.4,2.2
			c-0.9,2.6-3.4,4.6-6.4,4.6c-0.8,0-1.6-0.1-2.3-0.4c1.1,0.8,2.5,1.3,3.9,1.3c2.8,0,5.3-1.8,6.3-4.3c0.3-0.8,0.5-1.6,0.5-2.5
			C-204.1,687.8-204.3,687-204.6,686.2z"/>
		<path class="st36" d="M-236,645.9c2.2,1.6,3.6,4.1,3.6,7c0,4.7-3.9,8.6-8.6,8.6c-1,0-2-0.2-2.9-0.5c1.4,1,3.1,1.6,5,1.6l0,0
			c4.7,0,8.6-3.9,8.6-8.6C-230.3,650.3-232.7,647.1-236,645.9z"/>
	</g>
	<path class="st6" d="M-266.6,620c0,5.6,1.6,11.8,6.2,14.8c-3.3,4.9-2.9,13-2.9,13l5.9-9.1c0,0,3.1,13.2,7.9,13.5
		c0.3-4.5,4.1-8,8.6-8c0.8,0,1.6,0.1,2.4,0.3c-0.4-1.9-0.7-3.2-0.7-3.2l-2-16.8c0,0-19.1-18.1-22.5-15.8c-0.9,0.6-1.7,2.5-2.3,4.9
		c1.7,3.3,2.3,5.8,2.3,5.8L-266.6,620z"/>
	<path class="st6" d="M-249.6,652.3c0.4,0,0.8,0,1.2-0.2c0.3,0.6,0.6,1.1,0.9,1.6c0.1-4.6,4-8.3,8.6-8.3l0,0c0.1,0,0.3,0,0.4,0
		c0-0.3-0.1-0.5-0.1-0.8c-0.8-0.2-1.6-0.3-2.4-0.3C-245.6,644.3-249.3,647.8-249.6,652.3z"/>
	<path class="st6" d="M-243.2,657.3c1.5-0.2,1-2.4,0.7-4.6c0,0,2.4,3.6,4.2,1.8c1.1-1.1,0.5-5.7-0.1-9.2c-0.1,0-0.3,0-0.4,0l0,0
		c-4.6,0-8.5,3.7-8.6,8.3C-245.3,657.4-244.5,657.5-243.2,657.3z"/>
	<g>
		<path class="st1" d="M-408.1,596.8c-2.6,0.4-5.1,0.7-7.3,0.9h-0.1l8.3,0.8C-407.6,598-407.9,597.4-408.1,596.8z"/>
		<path class="st1" d="M-401.4,606.6L-401.4,606.6L-401.4,606.6c-1.7-1.7-3.2-3.6-4.5-5.7l-0.5-0.1l-11.1-2.5
			c-0.2,0.1-0.4,0.1-0.6,0.2c-1.1,1.9-2.1,4.2-2.9,6.8c-0.7,2.4-1.2,5.1-1.4,8.1c0.4,0.4,0.7,0.7,1.1,1.1
			C-416.3,611.5-409.5,608.2-401.4,606.6z"/>
		<polygon class="st1" points="-427.6,712.9 -398.5,726 -387.1,715.9 -423.7,697.1 		"/>
		<path class="st1" d="M-347.8,643.5c-3.1-7-5.7-12.7-7.9-17.4c-2.5-0.3-4.8-0.5-6.9-0.6c-4-0.2-7.1-0.2-9-0.2
			c1.3,4.5,2.7,9.7,4.1,15.4c2.1,0.2,4.8,0.4,7.8,0.8C-356.1,641.9-352.1,642.6-347.8,643.5z"/>
		<path class="st1" d="M-334.2,706.9c-6.5-1.4-12.4-2.1-17.5-2.3c-4.9-0.2-9.1-0.1-12.4,0.2c0,0.1-0.1,0.3-0.1,0.4
			c-1.5,6-1.7,13.9-1.7,13.9s13,0.7,20.9,2.1c0.9,0.2,1.8,0.3,2.5,0.5c0.3,0.1,0.5,0.1,0.7,0.2c2-1.2,3.6-2.2,4.5-2.8
			c0.8-0.5,1.7-1.2,2.6-2c0.4-0.4,0.8-0.8,1.1-1.2c1.5-1.8,2.8-4.2,3.5-8c-1.2-0.3-2.3-0.6-3.5-0.8
			C-333.8,707-334,706.9-334.2,706.9z"/>
		<path class="st1" d="M-364.8,653.1c0.7,3.6,1.2,7.3,1.7,11l4.9,0.5l20,1.8c-1.1-2.9-2.3-5.9-3.7-9.1c-0.1-0.2-0.2-0.4-0.3-0.6
			c-5.5-1.4-11.8-2.4-16.9-3C-361.2,653.5-363.2,653.3-364.8,653.1z"/>
		<path class="st1" d="M-388.2,653.6c-0.1,0-0.1,0-0.2,0c2.8,3.6,4.9,6.6,6.1,8.4c0.2-0.1,0.3-0.1,0.5-0.2c0,0.1,0.1,0.1,0.1,0.2
			c0.1,0.1,0.1,0.2,0.2,0.4l5.6,0.5c-0.3-3.8-0.8-7.4-1.4-10.7C-380.7,652.5-384.4,653-388.2,653.6z"/>
		<path class="st1" d="M-227,604.7c-2,4.2-11.1,5.5-11.1,5.5s-2.3,10.1,9.4,18.9c11.4-7.5,11.1-18.6,11.1-18.6
			S-225.1,609.6-227,604.7z"/>
		<path class="st1" d="M-382.9,690.7c-2.8-2-7.9-5.7-9.5-8.3c-0.1-0.2-0.2-0.3-0.2-0.5c-0.7-0.1-1.4-0.2-2-0.3
			c-1.7-0.2-3.4-0.5-5.1-1c-1.6-0.3-3.1-0.7-4.6-1c-4.9-1.1-9.5-2.3-13-3.2c-0.3,2.8-0.7,5.5-1.4,8.2c8.2,5.8,22.9,13.9,40.7,12.1
			c0.2-0.6,0.3-1.1,0.5-1.7c0.2-0.7,0.4-1.4,0.5-2l-3.8-0.9C-380.9,692-381.7,691.5-382.9,690.7z"/>
		<path class="st1" d="M-174.7,535.4c-0.5-1.2-1.2-2-2-2.5c-0.2-0.4-0.4-0.8-0.6-1.3c-0.2-0.7-0.4-1.3-0.7-2l0,0
			c-0.4-0.3-0.8-0.7-1.2-1c-3.6-2.9-7.3-4.8-11-5.9c-4.7-1.4-9.2-1.7-13.3-1.2c-9.8,1.1-16.9,5.7-16.9,5.7s2-2,5.4-4.2
			c7.4-4.8,21.3-10.3,34.6,3.7c0.4,0.4,0.8,0.9,1.3,1.4c0.4,0.5,0.8,0.9,1.2,1.4l0,0c0-1.8,0-6,0-15.8c0-4.3-3.6-20.7-3.6-20.7
			l-34.4-2.1l-13.3,7.9l-6,19.9c0.3,0.3,0.8,0.7,1.4,1.1c3.3,2.4,10.2,6.3,13.1,7.5v0.1l14.4,14.5c0,0,13.1-2.6,21.6-3.3
			c0.6-0.1,1.2-0.1,1.8-0.1l0,0l0,0c3.6-0.6,6.6-0.4,9,0.3c5.8,1.5,8.5,5.4,7.8,6.8c-0.1,0.1-0.2,0.2-0.3,0.3
			c0.3-0.1,0.5-0.2,0.7-0.4C-163.4,542.4-170.4,539.6-174.7,535.4z M-202,502.2c0,0,4.8,0.3,6.7-2.6c0.7,3,6.2,5,6.2,5
			s0.1,6.8-8.4,11C-203.6,509.3-202,502.2-202,502.2z"/>
		<path class="st1" d="M-405.8,561.5c1.9-0.1,5.4-0.3,9.8-0.9c2.6-0.3,5.5-0.7,8.4-1.3c2.5-0.5,5-1,7.5-1.7
			c7.3-1.9,14.2-4.8,19.1-6.5c1.5-0.5,2.8-1,3.9-1.3c0-0.2-0.1-0.3-0.2-0.5c-6.8-6.6-30.2-12.5-30.2-12.5l-9.7,6.3
			c0,0-8.9,12.3-11,18.1c0,0.1,0,0.3,0,0.4c0.3,0,0.7,0,1.1,0C-406.9,561.5-406.5,561.5-405.8,561.5z"/>
		<path class="st1" d="M-410,570.5L-410,570.5l2.3,5.1c0,0,3.6,0.6,9,0.8c4.9,0.2,11.2,0.2,17.6-0.8h0.1l0,0c0.3,0,0.5-0.1,0.8-0.1
			c0.4-0.1,0.8-0.1,1.1-0.2c14-2.6,30.6-12.7,30.6-12.7l-5.9-13c0,0-1.5-0.1-2.8,0.3c0,0.6-0.7,1.5-1.9,2.6
			c-3.6,3-11.7,7.2-19.5,9.1c-1.2,0.3-2.5,0.6-3.9,0.8c-6.4,1.1-14.2,1.5-19.5,1.1c-1.9-0.1-3.5-0.4-4.6-0.7
			c-0.9-0.3-1.5-0.6-1.6-1.1c-2.2,0.1-4.2,3.9-4.2,3.9l2.1,4.8L-410,570.5z"/>
	</g>
	<g>
		<path class="st37" d="M-173.8,538.8c-2.5-0.6-5.5-0.8-9-0.3l0,0c-0.1,0-0.1,0-0.2,0l0.1,0.1c2.2,1.8,5.1,3.6,7.9,4.9
			c3.9,1.9,7.6,3,8.8,2.3c0.1-0.1,0.2-0.2,0.3-0.3C-165.3,544.2-168,540.3-173.8,538.8z"/>
		<path class="st37" d="M-178,529.7L-178,529.7c0.1,0,0.1,0.1,0.1,0.1C-177.9,529.7-178,529.7-178,529.7
			C-178,529.6-178,529.6-178,529.7c-0.4-0.6-0.8-1-1.2-1.5c-0.4-0.5-0.8-1-1.3-1.4c-13.3-14-27.2-8.5-34.6-3.7
			c-3.3,2.2-5.4,4.2-5.4,4.2s7.2-4.7,16.9-5.7c4.1-0.4,8.7-0.2,13.3,1.2c3.6,1.1,7.3,3,11,5.9C-178.8,529-178.4,529.3-178,529.7z"/>
		<path class="st37" d="M-189,504.6c0,0-5.6-2-6.2-5c-1.9,2.9-6.7,2.6-6.7,2.6s-1.6,7.1,4.6,13.4C-188.9,511.4-189,504.6-189,504.6z
			"/>
		<path class="st37" d="M-380.1,557.6c-2.5,0.7-5,1.2-7.5,1.7c-3,0.6-5.8,1-8.4,1.3c-4.4,0.5-7.9,0.8-9.8,0.9c-0.7,0-1.1,0-1.3,0
			c-0.4,0-0.7,0-1.1,0c0.1,0.4,0.7,0.8,1.6,1.1c1.1,0.3,2.7,0.6,4.6,0.7c5.3,0.4,13.1,0,19.5-1.1c1.4-0.2,2.7-0.5,3.9-0.8
			c7.8-1.9,15.9-6.1,19.5-9.1c1.2-1,2-1.9,1.9-2.6c-1.1,0.3-2.4,0.8-3.9,1.3C-365.9,552.9-372.8,555.7-380.1,557.6z"/>
	</g>
	<g>
		<path class="st38" d="M-205.9,686.8c-0.8,0.3-1.5,0.4-2,0.3c-0.4-0.2-0.7-0.4-1-0.6c-1.6-1.4-1-4-1-4c0-0.1,0.1-0.2,0.2-0.4
			c0-0.1,0-0.1,0.1-0.2c0-0.1,0.1-0.2,0.1-0.2c-0.6-0.3-1.2-0.5-1.9-0.6c-0.4-0.1-0.8-0.1-1.1-0.1c-2.9,0-5.4,1.9-6.4,4.5
			c-0.2,0.7-0.4,1.4-0.4,2.2c0,2.3,1.1,4.3,2.9,5.5c0.5,0.4,1,0.6,1.6,0.8c0.7,0.3,1.5,0.4,2.3,0.4c2.9,0,5.4-1.9,6.4-4.6
			c0.2-0.7,0.4-1.4,0.4-2.2C-205.8,687.4-205.8,687.1-205.9,686.8z"/>
		<path class="st38" d="M-236,645.9c-0.8-0.6-1.7-1-2.6-1.3c0,0.3,0.1,0.5,0.1,0.8c0.6,3.5,1.2,8.1,0.1,9.2
			c-1.8,1.8-4.2-1.8-4.2-1.8c0.3,2.1,0.8,4.4-0.7,4.6c-1.3,0.1-2.1,0-4.3-3.6c-0.3-0.5-0.6-1-0.9-1.6c-0.4,0.1-0.8,0.2-1.2,0.2
			c0,0.2,0,0.4,0,0.6c0,3.7,2.4,6.9,5.7,8.1c0.9,0.3,1.9,0.5,2.9,0.5c4.7,0,8.6-3.9,8.6-8.6C-232.4,650-233.8,647.4-236,645.9z"/>
		<path class="st38" d="M-381,575.5L-381,575.5c-6.4,1-12.8,1.1-17.7,0.8c-5.4-0.2-9-0.8-9-0.8l-2.2-5h-0.1l-0.1-0.3
			c-0.1,0.1-0.1,0.2-0.2,0.3l-8.9-2l-8,11.6c0,0-9.4,0.6-14.2,5.5c-4.8,4.9-4.6,10.8-4.6,10.8l-12.6,8.2v16l-5.6,23.3
			c0,0,4.9,4.4,11,8c0.3-0.9,0.6-1.9,0.9-2.8c-3.3-3.2-6-6.2-6-6.2s-0.7-5.2-0.2-9c0.7,1.7,3.2,5.8,3.2,5.8l4.9,3.8
			c0.2-0.6,0.4-1.1,0.6-1.7l-3.4-5.2l-0.3-4.5c0,0,2.6,1.5,6.4,3.2c7.6-16.5,17-25.5,25.9-30.2c0.8-2.6,1.8-4.8,2.9-6.8
			c0.1-0.1,0.1-0.2,0.2-0.3l0.4,0.1l11.1,2.5l0.6,0.3l2.8,0.6l7,1.6l0.5,0.1l1.1-2l1-1.9l0.6-1l4.9-9.3c4.1-3.2,7.2-7.6,8-13.6
			C-380.5,575.5-380.8,575.5-381,575.5L-381,575.5z M-397.2,598.1l-0.7,1.5l-6-0.6l-3.4-0.3l-8.3-0.8h-0.2c0.1,0,0.2,0,0.3,0
			c2.2-0.2,4.7-0.5,7.3-0.9c1.2-0.2,2.4-0.4,3.7-0.7c0.4-0.1,0.7-0.2,1.1-0.3c2-0.5,4.1-1.1,6.1-1.8c0.3-0.1,0.6-0.2,0.9-0.4
			c0.5-0.2,1-0.4,1.5-0.6l-0.7,1.5L-397.2,598.1z"/>
	</g>
	<path class="st6" d="M-270.5,607.1c-8.5-9.8-22.4-22.9-30.5-30.3l-20.5-1.7c1.7,5.5,6.5,14.2,19.3,24.6c11.1,9,32.6,20.9,32.6,20.9
		l1.7-0.3l1.3-7.6C-267.6,610.9-268.8,609-270.5,607.1z"/>
	<path class="st7" d="M-266,613.7c-0.2-0.4-0.4-0.7-0.6-1.1l-1.3,7.6l1.3-0.2C-266.7,617.7-266.4,615.6-266,613.7z"/>
	<path class="st20" d="M-266,613.7c-0.2-0.4-0.4-0.7-0.6-1.1l-1.3,7.6l1.3-0.2C-266.7,617.7-266.4,615.6-266,613.7z"/>
	<path class="st6" d="M-307.4,571l-15-2.3c0,0-0.3,2.3,0.9,6.4l20.5,1.7C-304.9,573.2-307.4,571-307.4,571z"/>
	<path class="st20" d="M-307.4,571l-15-2.3c0,0-0.3,2.3,0.9,6.4l20.5,1.7C-304.9,573.2-307.4,571-307.4,571z"/>
	<path class="st6" d="M-266.6,620l2.9-0.5c0,0-0.6-2.5-2.3-5.8C-266.4,615.6-266.7,617.7-266.6,620z"/>
	<path class="st20" d="M-266.6,620l2.9-0.5c0,0-0.6-2.5-2.3-5.8C-266.4,615.6-266.7,617.7-266.6,620z"/>
</g>
<path class="st39" d="M-52.1,600.7C-52.1,600.7-52.1,600.6-52.1,600.7c0-0.1,0-0.1,0.1-0.1c0-0.1,0-0.1,0-0.1l-10,4l-11.1,0.8
	c0,0,0.7,4.8,9.4,4.1C-56.1,608.8-52.8,602.4-52.1,600.7C-52.1,600.8-52.1,600.7-52.1,600.7L-52.1,600.7z"/>
</svg>
