<?xml version="1.0" encoding="utf-8"?>
<!-- Generator: Adobe Illustrator 25.2.0, SVG Export Plug-In . SVG Version: 6.00 Build 0)  -->
<svg version="1.1" id="Layer_1" xmlns="http://www.w3.org/2000/svg" xmlns:xlink="http://www.w3.org/1999/xlink" x="0px" y="0px"
	 viewBox="0 0 505.4 354.4" style="enable-background:new 0 0 505.4 354.4;" xml:space="preserve">
<style type="text/css">
	.st0{fill:#C8C7C7;}
	.st1{fill:#AF9B8C;}
	.st2{fill:#E4E4E2;}
	.st3{fill:none;}
	.st4{fill:#1E1E1C;}
	.st5{fill:#43616E;}
	.st6{fill:#808080;}
	.st7{fill:#8B7D70;}
	.st8{fill:#5B8497;}
	.st9{fill:#557C8C;}
	.st10{fill:#F2F2F2;}
	.st11{fill:#547B8D;}
	.st12{fill:#828282;}
	.st13{fill:#B5B5B5;}
	.st14{fill:#43AB34;}
	.st15{fill:#333333;}
	.st16{fill:#E7DBD1;}
	.st17{fill:#D3C9C0;}
</style>
<path class="st0" d="M214.5,90.1c0,0.1,0.1,0.2,0.1,0.4c0.2,0.5,0.4,1,0.6,1.5l12.7,4.3l2.9,1c-3.5-6-13.2-14.6-15.7-16.8
	c0,3.2-0.3,6.7-1.3,9.4C214.1,90,214.3,90.1,214.5,90.1z"/>
<path class="st1" d="M233,47.9c0,0-11.1-16.2-15-21.8c-10.1,1.4-28.7,4.1-37.8,7c-0.4,1.1-0.7,2.2-0.9,3.3c-0.4,2.2-0.5,4.5-0.1,6.6
	c-2-2.5-4.7-2.8-7-1.9c-0.4,0.2-0.9,0.4-1.3,0.6c-1.9,1.1-3.3,3-3.5,4.8c-0.5,4.3,0.5,15.1,17.1,13.9h0.1l0,0
	c1.6,3.2,4.5,6.9,6.4,9.1c0.7,0.8,1.3,1.5,1.6,1.8c0.2,0.2,0.3,0.3,0.3,0.3v-0.1c0-0.1,0-0.1,0-0.1l1.9,0.7c-1,0.2-1.5,0.2-1.7-0.4
	c0.2,0.8,0.5,1.6,0.8,2.6c0.4,1.3,0.8,3,1.3,4.5c0,0.1,0.1,0.2,0.1,0.3c0.2-0.5,3.1,5.8,9.3,9.4c0.2,0.1,2,1.8,2.2,1.9
	c0.1,0.1,2.5,2.1,2.6,2.1c0.4,0.2,1.2-2,1.6-1.8c0.9,0.5,2.3-1.1,3-0.8c0.9-2.7,1.2-6.2,1.3-9.4c0-1.4,0-2.8-0.1-4
	c1.2-0.2,13.4-2.3,13.4-2.3s-1.7-12.7-3-19.8C228.4,52.9,233,47.9,233,47.9z"/>
<path class="st2" d="M198.2,278.6L198.2,278.6l-5.3-21.9l-0.2-0.1l0-0.1l0.3,0.1l-0.2-0.7l-0.5-2l-0.2,0.1l0,0l0.2-0.1l-0.2-0.9l0,0
	l-1.2-4.9l-0.2-0.1l-0.1-0.2l0.2,0.1l-0.5-1.8l0.1,0l-0.7-2.9l-0.2,0l0-0.1l0.2,0l-0.4-1.5l0,0l-2.7-11.2l-0.1-0.1l0,0l0.1,0.1
	l-0.8-3.5l-0.9-3.5l-2.2-9.3l-0.7-3.1l0,0.2l-2-8.4l-30.3-10.2c0,0,0,0,0-0.1l-77.1-26.1l18.2,68.4l13.8,6.3c0,0,0,0,0,0l94.4,42.6
	l0.4,0.2L198.2,278.6z"/>
<g>
	<path class="st3" d="M170.8,41.7c0.4-0.2,0.8-0.4,1.3-0.6c-0.5,0-0.8,0-0.8,0L170.8,41.7z"/>
	<path class="st3" d="M184.5,60.4h-0.1H184.5C184.6,60.4,184.5,60.4,184.5,60.4z"/>
	<path class="st3" d="M192.6,71.3c-0.3-0.4-0.9-1-1.6-1.8C191.6,70.2,192.1,70.9,192.6,71.3z"/>
	<polygon class="st3" points="142.9,52.7 148.7,44.9 163.7,33.4 163.1,29.5 134.6,42.3 	"/>
	<path class="st3" d="M193,71.8c0.2,0.8,0.5,1.6,0.8,2.6C193.5,73.5,193.2,72.6,193,71.8C193,71.9,193,71.9,193,71.8z"/>
	<path class="st3" d="M326.8,99.4c-0.1,0-0.4-0.1-0.8-0.2C326.4,99.3,326.7,99.3,326.8,99.4z"/>
	<path class="st3" d="M210,87.9c-0.2-0.1-0.3-0.2-0.5-0.3C209.7,87.7,209.8,87.8,210,87.9z"/>
	<path class="st3" d="M211.5,88.7c-0.4-0.2-0.7-0.4-1.1-0.6C210.8,88.4,211.2,88.6,211.5,88.7z"/>
	<path class="st3" d="M325.4,99.1c-2-0.3-5.6-0.8-8.8-0.4c-4.7,0.7-12,4.3-12,4.3l-1.9-0.9l-7.1,1.9l0.9-18.5l-17.1,1.3l3.3,14.7
		L259,115.3c-0.2,0.6-0.3,1.2-0.5,1.9c-0.2,0.6-0.3,1.2-0.5,1.9c-0.3,1.1-0.6,2.2-1,3.5l19.1,13.6
		C285.5,126.7,316.5,107.5,325.4,99.1z"/>
	<path class="st4" d="M172.1,41.1c1.7,0.1,5.8,0.4,7,1.9C177.1,40.5,174.4,40.2,172.1,41.1z"/>
	<path class="st4" d="M185.2,60.5l-0.7-0.1c1.6,3.2,4.5,6.9,6.4,9.1C188.2,66,185.2,60.5,185.2,60.5z"/>
	<path class="st4" d="M167.3,46.5l3.5-4.8C168.9,42.8,167.5,44.6,167.3,46.5z"/>
	<path class="st4" d="M184.4,60.4l-10.2-1.5l-6.9-12.4C166.8,50.8,167.7,61.6,184.4,60.4z"/>
	<path class="st4" d="M192.9,71.6c-0.1-0.1-0.2-0.2-0.3-0.3C192.8,71.5,192.9,71.7,192.9,71.6C192.9,71.7,192.9,71.6,192.9,71.6z"/>
	<path class="st0" d="M204.8,84.8c1.6,1,3.2,1.9,4.7,2.8C208,86.7,206.4,85.8,204.8,84.8z"/>
	<path class="st0" d="M210.4,88.1c-0.1-0.1-0.3-0.2-0.4-0.2C210.1,88,210.3,88.1,210.4,88.1z"/>
	<path class="st5" d="M209.5,105.3l1.9,0.2c-0.3-0.9-0.5-1.5-0.5-1.5l0,0c-0.3-0.2-0.7-0.4-1-0.7c-0.1-0.1-0.3-0.2-0.4-0.3
		c-0.3-0.2-0.5-0.4-0.8-0.6c-0.2-0.1-0.3-0.2-0.5-0.3c-0.3-0.2-0.6-0.4-0.8-0.6c-0.1-0.1-0.3-0.2-0.4-0.3
		c-6.1-4.5-12.7-10.6-13.3-13.1c-0.2-0.6-0.2-1.3-0.1-2.1c-0.1,0-0.1,0.1-0.2,0.1c-0.3,1.6-0.5,2.9-0.5,2.9L209.5,105.3z"/>
	<path class="st5" d="M243.2,129.2l4.3-8.4c-3-4.1-6-7.9-8.8-11.4l-8.5-6.1L243.2,129.2z"/>
	<path class="st5" d="M253.2,135.6c-0.4,1.3-0.7,2.5-1.1,3.8l12.2,11.6c0,0,1.6,0.7,3.9,1.5c-3.8-7.1-8.6-14.6-13.6-21.8
		C254.1,132.3,253.7,134,253.2,135.6z"/>
	<path class="st0" d="M235.1,187.4c3.4,0.1,6.8,0.2,10.3,0.3c4.9,0.1,9.8,0.3,14.7,0.4c-0.4-7.6-5.3-21.8-11.5-37
		c-5.1,17.1-9.9,32.9-9.9,32.9L235.1,187.4z"/>
	<path class="st0" d="M225.2,98.9c-4.2,0.8-10-6.9-10-6.9c2.5,6.8,6.2,14.6,6.2,14.6l-9.7-1.1h-0.3c1.7,4.9,7,21,8.8,34.8
		c-0.4-2.8-0.8-5.5-1.2-8c0.4,2.4,0.8,5.1,1.2,8c1.3,10.2,2.3,19.5,3.1,27.4l17.8-34.4C235.1,119.7,229.1,107,225.2,98.9z"/>
	<path class="st5" d="M223.3,167.7c-0.8-8-1.8-17.2-3.1-27.4c1.3,10.4,0.5,20.3-1.4,29.4l2,2.8L223.3,167.7z"/>
	<path class="st6" d="M211.7,105.5l9.7,1.1c0,0-3.7-7.9-6.2-14.6c2.5,6.8-0.1,11.6-0.1,11.6l-4.2,0.4l0.1,0.1
		C211.2,104.6,211.4,105,211.7,105.5z"/>
	<path class="st0" d="M211,104.1l-0.1-0.1l0,0c0,0,0.2,0.5,0.5,1.5h0.3C211.4,105,211.2,104.6,211,104.1z"/>
	<path class="st7" d="M193,71.7L193,71.7L193,71.7C193,71.8,193,71.8,193,71.7L193,71.7z"/>
	<path class="st7" d="M193,71.7C193,71.7,192.9,71.7,193,71.7c0,0,0,0.1,0.1,0.2C193,71.8,193,71.8,193,71.7L193,71.7z"/>
	<path class="st7" d="M193,71.7L193,71.7L193,71.7C192.9,71.6,192.9,71.6,193,71.7C192.9,71.6,192.9,71.7,193,71.7
		C192.9,71.7,193,71.7,193,71.7z"/>
	<g>
		<path class="st4" d="M180.1,33c9.2-2.9,27.7-5.6,37.8-7c4.2-0.6,7-0.9,7-0.9c0.3-2.3-15.6-24.5-15.6-24.5L180.9,0L161,13.4
			l1.4,10.7l-33,16.8l12.8,12.7l-3.8,5.1l13.1,9.2l-4.8,15.6c0,0,0.9,1.9,2.5,4.3c-0.6-6,1.4-13.1,5.2-17.8l2.9,2.1
			c0,0-11.4,13.9,1.4,21.7c12.7,7.8,20.4,0.9,25.9-5.2c3.2-3.5,6.8-9.7,9.2-14.2c-0.3-0.9-0.5-1.8-0.8-2.6c0-0.1-0.1-0.1-0.1-0.2
			c0,0-0.1-0.1-0.3-0.3c-0.5-0.5-1.1-1.1-1.6-1.8c-2-2.2-4.9-5.9-6.4-9.1h-0.1c-16.7,1.2-17.6-9.6-17.1-13.9
			c0.2-1.9,1.6-3.7,3.5-4.8l0.5-0.6c0,0,0.3,0,0.8,0c2.3-0.9,5-0.6,7,1.9c-0.4-2.2-0.4-4.4,0.1-6.6C179.4,35.3,179.7,34.1,180.1,33z
			 M148.7,44.9l-5.8,7.8l-8.3-10.4l28.6-12.8l0.5,4L148.7,44.9z"/>
		<path class="st4" d="M161.5,99.4c-5-1.5-9.6-7.4-12.3-11.5C149.9,94.4,153.6,99.7,161.5,99.4z"/>
	</g>
	<path class="st5" d="M225.2,98.9c1.1-0.2,2.1-1,2.8-2.6l-4.9-1.6C223.7,95.9,224.4,97.3,225.2,98.9z"/>
	<path class="st0" d="M225.2,98.9c-0.8-1.6-1.5-3-2.1-4.2l-3.4-3.4l-4.5,0.8C215.2,92,221,99.7,225.2,98.9z"/>
	<path class="st6" d="M225.2,98.9c-0.8-1.6-1.5-3-2.1-4.2l-3.1-1l-4.8-1.6C215.2,92,221,99.7,225.2,98.9z"/>
	<polygon class="st0" points="220,93.7 223.1,94.7 228,96.3 215.2,92 	"/>
	<polygon class="st0" points="220,93.7 223.1,94.7 228,96.3 215.2,92 	"/>
	<path class="st8" d="M425.7,267c-2.8-3.1-5.5-6.1-8.3-9.1c-7.6-8.4-15-16.6-21.9-24.2c-11.3-12.4-21.1-23.3-28.1-31.1l9.2,14.7
		l-6.6,2l-2.5,0.7l-13.3,4l0.7,1.3l11.7-3.5l3.5,5.5l-11.9,3.6l0.6,1.1l12.7-3.8l-3.5-5.5l2.5-0.7l7.2,11.4l-15.4,4.7l27.3,47.2
		l-103,20.7l-10.9-44.3c-0.8,0.1-1.6,0.1-2.5,0.1c-6.9,0-12.6-2.7-12.6-6.1c0-0.2,0-0.5,0.1-0.7c1.9,0.6,4.2,1,6.6,1s4.7-0.4,6.7-1
		l-0.2-0.8c-1.9,0.6-4.2,1-6.7,1c-2.4,0-4.7-0.4-6.6-1c-3.6-1.1-5.9-3.2-5.9-5.5c0-2.4,2.5-4.4,6.2-5.5c0.3-0.1,0.6-0.2,1-0.3
		c0,0.2-0.1,0.3-0.1,0.5c0,0.1,0,0.2,0,0.3c0,2.5,3.1,4.6,7.5,5.3c1.1,0.2,2.2,0.3,3.3,0.3c0.1,0,0.2,0,0.3,0l-0.1-0.5
		c-1.1,0-2.2-0.1-3.2-0.3c-4.3-0.7-7.5-2.8-7.5-5.3c0-0.1,0-0.2,0-0.3c1.5,0.4,3.2,0.6,4.9,0.6c1.5,0,3-0.2,4.3-0.5l-0.1-0.3
		c-1.4,0.3-2.9,0.5-4.5,0.5c-1.8,0-3.4-0.2-4.9-0.6c0-0.2,0.1-0.3,0.1-0.5c-0.3,0.1-0.6,0.2-1,0.3c-3.4-1.1-5.6-3-5.6-5.3
		c0-2.6,3-4.8,7.1-5.7c1.2,1.5,3.7,2.8,6.8,3.3l-0.1-0.5c-1.1-0.2-2.2-0.5-3.1-0.9c-0.1,0-0.2-0.1-0.4-0.1c0,0,0,0,0.1,0
		c-1.5-0.6-2.6-1.4-3.3-2.3c-0.5-0.6-0.7-1.2-0.7-1.9c0-0.4,0.1-0.7,0.2-1.1c1.7,0.5,3.7,0.8,5.8,0.8l-0.1-0.2h-0.1
		c-2.2,0-4.2-0.3-5.9-0.8c-2.9-0.8-4.9-2.3-4.9-3.9c0-1.2,1-2.3,2.7-3.1c1.3,1.4,3.9,2.4,7,2.9l-0.1-0.5c-3-0.4-5.5-1.5-6.8-2.9
		c-0.6-0.7-1-1.4-1-2.2c0-1.4,1.1-2.6,2.9-3.5c0.8,0.7,1.9,1.4,3.3,1.9l-0.1-0.5c-1.3-0.5-2.4-1.1-3.1-1.8s-1.1-1.5-1.1-2.3
		c0-1.3,0.9-2.4,2.5-3.3l-0.3-1.3l4.7-0.3c1.3-0.3,2.8-0.4,4.3-0.4c0.6,0,1.2,0,1.8,0.1l8.2-0.4l3.9-0.2l21.7-1.2l47.2-12.3l4.4,6.9
		l7,11.1l-4.3,1.3l-11.2,3.4l-0.6,0.2l0.9,1.5l1.8-0.5l11.4-3l-0.2-0.4l4.3-1.3l-7-11.1l4.2-1.1c-1.3-1.4-2.5-2.8-3.5-3.9
		c-2.4-2.7-4-4.4-4.5-4.9l-0.2-0.2c0,0-2.1-0.1-5.7-0.1c-2.2-0.1-4.9-0.1-8.1-0.2c-5.8-0.1-13.2-0.3-21.6-0.5
		c-10.6-0.3-22.9-0.6-35.9-0.9c-0.8,0-1.5,0-2.3-0.1c-1.6,0-3.1-0.1-4.7-0.1c-6-0.2-12-0.3-18.1-0.5c-4.9-0.1-9.8-0.3-14.7-0.4
		c-3.4-0.1-6.9-0.2-10.3-0.3l-7.7,0.8l-11.4-1.1c0.3,0.8-1.5,0.3-2.3,0.5c-0.9,0.2,8.9,8.9,5,6.9c-0.6-0.3-1.2-0.7-2-1.2
		c-1.2-0.8-2.5-1.9-4-3.3c-0.2-0.2-0.4-0.4-0.6-0.6c-0.9-0.9-2-1.9-3-2.9c-2.9-0.1-5.7-0.2-8.5-0.2c-3.5-0.1-6.9-0.2-10.1-0.3
		c-1.5,0-3-0.1-4.5-0.1c-6.5-0.2-12.2-0.4-16.7-0.5c-1.4,0-2.6-0.1-3.8-0.1c-5.2-0.2-8.3-0.3-8.5-0.4c-0.1,0-2.8,2.8-7.3,7.6
		l30.5,10.3l1.2,0.8l1.2,4.1l2.1,7l11.1,3.9l54.5,19.3l-44.3,43.6l-3.6,0.9l-0.1-0.1l-3.3,2l0.1-0.7L104.6,241
		C59,290.4,0,354.4,0,354.4c2.1-3.1,496.3-2.8,505.4-0.9C502.8,351.7,463.4,308.5,425.7,267z"/>
	<g>
		<path class="st9" d="M187,179.4l-1,6.6c1.5,0,3,0.1,4.5,0.1c3.2,0.1,6.6,0.2,10.1,0.3c2.7,0.1,5.6,0.2,8.5,0.2
			c-7-7-16-17.2-24-27.3C186.2,170.9,187,179.4,187,179.4z"/>
		<path class="st9" d="M211.4,105.5c-0.3-0.9-0.5-1.5-0.5-1.5l0,0c-0.3-0.2-0.7-0.4-1-0.7c-0.1-0.1-0.3-0.2-0.4-0.3
			c-0.3-0.2-0.5-0.4-0.8-0.6c-0.2-0.1-0.3-0.2-0.5-0.3c-0.3-0.2-0.6-0.4-0.8-0.6c-0.1-0.1-0.3-0.2-0.4-0.3
			c-6.1-4.5-12.7-10.6-13.3-13.1c-0.2-0.6-0.2-1.3-0.1-2.1c-0.1,0-0.1,0.1-0.2,0.1c-4.3,1.6-9.2,7.9-11.2,13.1
			c-0.1,0.1-0.1,0.3-0.1,0.5l9,8.5l20.6,51.4l6.3,8.6l1.1,1.5c1.9-9.1,2.7-19.1,1.4-29.4C218.4,126.4,213.1,110.3,211.4,105.5z"/>
		<path class="st9" d="M238.7,109.4c-4.4-5.5-8.2-10.1-10.8-13.1l-4.9-1.6c0.6,1.2,1.3,2.6,2.1,4.2c3.9,8.1,9.9,20.8,15.9,34.4
			l2.1-4.1l-12.9-25.9L238.7,109.4z"/>
		<path class="st9" d="M279.5,179.3c-2.2-6.1-5.2-13.9-8-20c-1-2.2-2.1-4.4-3.3-6.7c-2.3-0.8-3.9-1.5-3.9-1.5l-12.2-11.6
			c-1.1,3.8-2.3,7.8-3.5,11.6c6.2,15.2,11,29.4,11.5,37c6.1,0.2,12.1,0.3,18.1,0.5c1.6,0,3.1,0.1,4.7,0.1
			C282.3,187,281.1,183.5,279.5,179.3z"/>
	</g>
	<path class="st10" d="M262.3,207.2l0.3,1.3c1.1-0.7,2.6-1.2,4.3-1.6L262.3,207.2z"/>
	<path class="st10" d="M362.3,238l-49.5,14.9l-4.5-5.7l50.5-15.2l-0.6-1.1l-51.3,15.5l-1.7,0.5l-15.4-19.6l6.1-1.6l4.4,5.6l1.3,1.7
		l3.9-1.2l5.4,6.8l44.1-13.3l-0.7-1.3l-42.5,12.8l-5.4-6.7l43.7-13.2l-0.9-1.5l-44.9,13.5l-3.9,1.2l-1.3-1.7l-4.4-5.6l-9.7-12.3
		l21.8-5.7l-21.7,1.2l0,0l-12.1,0.6c5.3,0.4,9.3,2.6,9.3,5.2c0,1.4-1.1,2.6-2.9,3.5c-2,1.1-5,1.7-8.2,1.7c-2.6,0-4.9-0.4-6.8-1.1
		l0.1,0.5c1.9,0.7,4.2,1.1,6.7,1.1c3.3,0,6.2-0.7,8.2-1.7c0.7,0.7,1.1,1.5,1.1,2.3c0,1.4-1.2,2.7-3,3.6c-0.9,0.5-2,0.8-3.3,1.1
		c-1.5,0.3-3.1,0.5-4.8,0.5c-0.5,0-1.1,0-1.6-0.1c-0.6,0-1.1-0.1-1.7-0.2l0.1,0.5c0.5,0.1,1,0.1,1.6,0.2c0.5,0,1.1,0.1,1.6,0.1
		c1.7,0,3.4-0.2,4.8-0.5c1.2-0.3,2.3-0.7,3.3-1.1c0.4,0.5,0.7,1.1,0.7,1.7v0.1c-0.1,2.5-4.9,4.5-10.7,4.6l0.1,0.2h0.1
		c5.9,0,10.7-2,10.8-4.6c3.5,0.9,5.9,2.8,5.9,4.9c0,2.4-3.1,4.4-7.4,5.2c-1.3,0.2-2.6,0.4-4.1,0.4c-1.4,0-2.8-0.1-4-0.4l0.1,0.5
		c1.2,0.2,2.5,0.3,3.9,0.3c1.4,0,2.8-0.1,4.1-0.4c0.6,0.7,0.9,1.6,0.9,2.4c0,0.4-0.1,0.7-0.2,1c-0.5,1.7-2.3,3.2-4.9,4.1
		c-0.6,0.2-1.2,0.4-1.8,0.5l0.1,0.3c0.7-0.2,1.4-0.3,2-0.6c2.5-0.9,4.4-2.4,4.9-4.1c3.2,1,5.4,2.8,5.4,4.8c0,1.6-1.4,3.1-3.6,4.1
		c-1,0.4-2.1,0.8-3.3,1c-1.2,0.2-2.5,0.4-3.8,0.4h-0.1l0.1,0.5c1.3,0,2.5-0.1,3.6-0.4c1.2-0.2,2.4-0.6,3.3-1
		c0.1,0.3,0.1,0.5,0.1,0.8s-0.1,0.6-0.1,0.9c-0.5,1.9-2.7,3.5-5.7,4.5l0.2,0.8c3.1-1,5.2-2.6,5.8-4.5c3.6,1.1,6,3,6,5.2
		c0,3-4.3,5.5-10.1,6l10.9,44.3l103.1-20.8L362.3,238z M363.7,254.2l2.9,5.5l-73.2,7.7l-0.3-5.3L363.7,254.2z M287.5,278l4.6-5.7
		l5.1,4.3l-1.7,2l-3.1-2.6l-2.9,3.6L287.5,278z M297.3,290.8l-3.9-1l-1,4.5l-2.5-0.6l1.6-7.2l6.5,1.6L297.3,290.8z M297.5,272.4
		l73-9.3l0.4,5.3l-70.4,9.5L297.5,272.4z M302.1,287.8l69.3-15.6l3.5,5.2L303,293L302.1,287.8z"/>
	<path class="st11" d="M261.7,243c-0.3,0.1-0.6,0.2-1,0.3c0.3,0.1,0.6,0.2,0.9,0.2C261.6,243.3,261.7,243.1,261.7,243z"/>
	<g>
		<polygon class="st12" points="370.6,222 368.1,222.7 371.6,228.2 358.9,232 308.4,247.3 312.9,252.9 362.3,238 377.8,233.3 		"/>
		<polygon class="st12" points="354.3,224.1 367.5,220.1 370,219.3 376.7,217.3 367.4,202.7 365.3,199.3 364.6,199.5 360.4,200.6 
			367.4,211.7 363.1,213 363.3,213.4 351.9,216.3 350.1,216.9 306.4,230.1 311.8,236.9 		"/>
		<path class="st12" d="M329.1,215.8c5.5,0,10-2.4,10-5.4s-4.5-5.4-10-5.4s-10,2.4-10,5.4C319,213.4,323.5,215.8,329.1,215.8z"/>
		<path class="st12" d="M279.8,250.4c-0.5,1.9-2.7,3.6-5.8,4.5c-1.9,0.6-4.2,1-6.7,1c-2.4,0-4.7-0.4-6.6-1c-0.1,0.2-0.1,0.5-0.1,0.7
			c0,3.4,5.6,6.1,12.6,6.1c0.8,0,1.7,0,2.5-0.1c5.8-0.6,10.1-3,10.1-6C285.8,253.4,283.4,251.5,279.8,250.4z"/>
		<path class="st12" d="M278,238.5c-0.5,1.7-2.3,3.2-4.9,4.1c-0.6,0.2-1.3,0.4-2,0.6c-1.3,0.3-2.8,0.5-4.3,0.5
			c-1.8,0-3.4-0.2-4.9-0.6c0,0.1,0,0.2,0,0.3c0,2.5,3.1,4.6,7.5,5.3c1,0.2,2.1,0.3,3.2,0.3h0.1c1.4,0,2.6-0.1,3.8-0.4
			c1.2-0.2,2.4-0.6,3.3-1c2.2-1,3.6-2.5,3.6-4.1C283.5,241.3,281.3,239.5,278,238.5z"/>
		<path class="st12" d="M267.7,228.8h-0.1c-2.2,0-4.1-0.3-5.8-0.8c-0.1,0.3-0.2,0.7-0.2,1.1c0,0.7,0.3,1.3,0.7,1.9
			c0.7,0.9,1.8,1.7,3.3,2.3c0.3-0.1,0.6-0.2,0.9-0.2c0,0.2-0.1,0.3-0.1,0.5c-0.2,0-0.3-0.1-0.5-0.1c0.9,0.4,2,0.7,3.1,0.9
			c1.2,0.2,2.6,0.4,4,0.4s2.8-0.1,4.1-0.4c4.3-0.8,7.4-2.8,7.4-5.2c0-2.1-2.4-3.9-5.9-4.9C278.4,226.8,273.6,228.8,267.7,228.8z"/>
		<path class="st12" d="M267.9,223.4c0.5,0,1.1,0.1,1.6,0.1c1.7,0,3.4-0.2,4.8-0.5c1.2-0.3,2.3-0.7,3.3-1.1c1.9-0.9,3-2.2,3-3.6
			c0-0.8-0.4-1.6-1.1-2.3c-2,1.1-5,1.7-8.2,1.7c-2.5,0-4.8-0.4-6.7-1.1c-1.4-0.5-2.5-1.1-3.3-1.9c-1.8,0.9-2.9,2.2-2.9,3.5
			c0,0.8,0.4,1.5,1,2.2c1.3,1.4,3.8,2.4,6.8,2.9C266.8,223.3,267.3,223.3,267.9,223.4z"/>
	</g>
	<g>
		<polygon class="st13" points="371.5,272.2 302.2,287.8 303,293 374.9,277.4 		"/>
		<polygon class="st13" points="370.5,263.2 297.5,272.5 300.5,278 370.9,268.4 		"/>
		<polygon class="st13" points="363.7,254.2 293.2,262.2 293.4,267.4 366.6,259.7 		"/>
		<polygon class="st13" points="306.9,246.4 358.2,230.9 370.1,227.3 366.7,221.8 355,225.3 310.9,238.7 305.5,231.8 301.6,233 
			300.3,231.3 295.9,225.7 289.8,227.3 305.2,246.9 		"/>
		<path class="st13" d="M299.1,228.4l1.3,1.7l3.9-1.2l44.9-13.5l0.6-0.2l11.2-3.4l4.3-1.3l-7-11.1l-4.4-6.9l-47.2,12.3l-21.8,5.7
			l9.7,12.3L299.1,228.4z M329.1,215.8c-5.5,0-10-2.4-10-5.4s4.5-5.4,10-5.4s10,2.4,10,5.4C339.1,213.4,334.6,215.8,329.1,215.8z"/>
		<path class="st13" d="M276.2,249c-1.1,0.2-2.3,0.3-3.6,0.4c-0.1,0-0.2,0-0.3,0c-1.2,0-2.3-0.1-3.3-0.3c-4.3-0.7-7.5-2.8-7.5-5.3
			c0-0.1,0-0.2,0-0.3c-0.3-0.1-0.6-0.2-0.9-0.2c-3.7,1.1-6.2,3.2-6.2,5.5s2.4,4.3,5.9,5.5c1.9,0.6,4.2,1,6.6,1c2.5,0,4.8-0.4,6.7-1
			c3-1,5.2-2.6,5.7-4.5c0.1-0.3,0.1-0.6,0.1-0.9c0-0.3,0-0.6-0.1-0.8C278.6,248.4,277.5,248.8,276.2,249z"/>
		<path class="st13" d="M260.8,242.5c0.3-0.1,0.9,0,0.9,0.2c1.5,0.4,3.2,0.6,4.9,0.6c1.6,0,3.1-0.2,4.5-0.5c0.6-0.1,1.3-0.3,1.8-0.5
			c2.5-0.9,4.4-2.4,4.9-4.1c0.1-0.3,0.2-0.7,0.2-1c0-0.9-0.3-1.7-0.9-2.4c-1.3,0.2-2.6,0.4-4.1,0.4c-1.4,0-2.7-0.1-3.9-0.3
			c-3.1-0.6-5.7-1.8-6.8-3.3c-4.2,0.9-7.1,3.1-7.1,5.7C255.1,239.5,257.4,241.4,260.8,242.5z"/>
		<path class="st13" d="M261.5,227.8c1.7,0.5,3.7,0.8,5.9,0.8h0.1c5.8,0,10.6-2,10.7-4.6v-0.1c0-0.6-0.3-1.1-0.7-1.7
			c-0.9,0.5-2,0.8-3.3,1.1c-1.5,0.3-3.1,0.5-4.8,0.5c-0.5,0-1.1,0-1.6-0.1c-0.5,0-1.1-0.1-1.6-0.2c-3.1-0.4-5.6-1.5-7-2.9
			c-1.7,0.8-2.7,1.9-2.7,3.1C256.7,225.5,258.6,227,261.5,227.8z"/>
		<path class="st13" d="M273.1,206.6c-0.6,0-1.2-0.1-1.8-0.1c-1.5,0-3,0.1-4.3,0.4c-1.7,0.3-3.2,0.9-4.3,1.6
			c-1.5,0.9-2.5,2.1-2.5,3.3c0,0.8,0.4,1.6,1.1,2.3s1.8,1.3,3.1,1.8c1.9,0.7,4.2,1.1,6.8,1.1c3.3,0,6.2-0.7,8.2-1.7
			c1.8-0.9,2.9-2.2,2.9-3.5C282.4,209.2,278.4,207,273.1,206.6z"/>
	</g>
	<polygon class="st14" points="289.8,293.8 292.4,294.3 293.4,289.8 297.3,290.8 297.9,288.3 291.4,286.6 	"/>
	<polygon class="st14" points="289.5,279.6 292.5,276 295.5,278.6 297.2,276.6 292.1,272.3 287.5,278 	"/>
	<path class="st7" d="M259,115.3L259,115.3c1.2-4.3,1.9-7,1.7-7c-1,0-5.7-2-5.7-2l-1,1.9l0.6,2.5L259,115.3z"/>
	<path class="st15" d="M298.3,85.5l-1.8,0.1l-0.9,18.5l7.1-1.9l-5.4-2.5L298,87l20.3-19c0,0,1.5,0.5,3.7,1.1l0.3-20.8L298,55.6
		l-1.2,24.7l2,0.2L298.3,85.5z"/>
	<polygon class="st15" points="298.3,85.5 298.7,80.6 296.7,80.4 296.5,85.6 	"/>
	<g>
		<path class="st1" d="M252,100.3l2,7.9l1-1.9c0,0,4.7,2,5.7,2c0.2,0-0.5,2.7-1.7,7l23.7-13.7l-3.3-14.7l17.1-1.3l0.2-5.2l-27-2.2
			L252,100.3z"/>
		<path class="st1" d="M335.6,73.4c-0.7-0.2-8.7-2.7-13.6-4.2c-2.2-0.7-3.7-1.1-3.7-1.1l-20.3,19l-0.7,12.7l5.4,2.5l1.9,0.9
			c0,0,7.3-3.7,12-4.3c3.2-0.5,6.8,0,8.8,0.4c2.2-2.1,3.5-3.4,3.5-3.4l8.1,1.6l3.9-8.6L335.6,73.4z"/>
	</g>
	<polygon class="st15" points="334.9,102.1 335.5,100.7 334.7,102 	"/>
	<path class="st7" d="M325.4,99.1c0.2,0,0.5,0.1,0.6,0.1c0.4,0.1,0.7,0.1,0.8,0.2c0.1,0,0.1,0,0.1,0l7.8,2.6l0.8-1.3l2-3.3l-0.5-0.1
		l-8.1-1.6C328.9,95.7,327.6,97,325.4,99.1z"/>
	<g>
		<path class="st16" d="M275.4,138.5c0.1-0.3-0.4-0.6-0.7-0.9c0.4-0.5,0.9-1,1.4-1.5L257,122.5c0.3-1.2,0.7-2.4,1-3.5
			c0.2-0.7,0.4-1.3,0.5-1.9c0.2-0.7,0.4-1.3,0.5-1.9l0,0l-4.3-4.7l-0.6-2.5l-1.9,3.7l-2.7,5.3l-10.7-7.6c2.8,3.5,5.7,7.3,8.8,11.4
			l-4.3,8.4l-2.1,4.1l-17.8,34.4l-2.5,4.8l1,4.2l-0.3,7.2l3.5,1.3l-0.1,1.4v0.4l-2,4c0,0,1.3,2.2,1.7,2.8c0.3,0.4,1.3,0.7,1.5,1.1
			l3.6-2.4l5.4-5.2l3.6-3.4c0,0,4.8-15.8,9.9-32.9c1.2-3.9,2.3-7.8,3.5-11.6c0.4-1.3,0.8-2.6,1.1-3.8c0.5-1.7,1-3.3,1.4-4.9
			c5,7.2,9.8,14.6,13.6,21.8c4.5,1.5,11.8,3.4,15.1,0.4c0.7-0.6,1.2-1.4,1.4-2.1C279.4,144.3,272.8,147.1,275.4,138.5z"/>
		<path class="st16" d="M222.3,190.2l-3.5-3.3l0.5-7.7l1.6-6.6l-2-2.8l0,0l-1.1-1.5l-6.3-8.6l-20.6-51.4l-9-8.5l-0.3-0.3
			c0,0-22.4,25.3-1.8,53c1.7,2.3,3.4,4.6,5.3,6.9c8,10.1,19.4,23.2,24,27.3c1,1,2.1,2,3,2.9c0.2,0.2,0.4,0.4,0.6,0.6
			c1.5,1.3,2.8,2.5,4,3.3c0.7,0.5,1.4,0.9,2,1.2c4,1.9,6,2.4,6.9,2.2c0.8-0.2,0.8-0.9,0.5-1.7l-0.6-0.3L222.3,190.2z"/>
		<path class="st16" d="M326.9,99.4c0,0,0,0-0.1,0s-0.4-0.1-0.8-0.2c-0.2,0-0.4-0.1-0.6-0.1c-8.9,8.4-39.9,27.6-49.3,37l3.4,5.7
			c0,0,6.8,4.4,5.2,9c5.7,0.8,11.7-0.3,11.7-0.3l38.4-48.6L326.9,99.4z"/>
	</g>
	<g>
		<path class="st17" d="M224.7,192.6l0.3-5.5v-0.4l0.1-1.4l1.2-5.5l-2-2.6l-3.4-4.6l-3.5,6.7l1.4,7.6l0.9,4.7l5.8,3.1l0.6,0.3
			c-0.2-0.5-0.4-0.9-0.7-1.3C225.1,193.1,224.7,192.6,224.7,192.6z"/>
		<path class="st17" d="M281.3,139.9l-5.2-3.7c-0.5,0.5-1,1.1-1.4,1.5c0.3,0.3,0.8,0.6,0.7,0.9c-2.5,8.6,3.2,11.5,9.3,12.3
			C286.3,146.3,281.3,139.9,281.3,139.9z"/>
	</g>
	<polygon class="st15" points="204.3,281.2 202.3,282.5 202.4,282.6 205.9,281.7 250.3,238 203.1,277 	"/>
	<polygon class="st15" points="199.3,260.7 206.2,263.8 213.4,261.9 203.4,259.5 	"/>
	<polygon class="st15" points="226.5,249 227.9,244.1 188.6,228 189.7,231.7 	"/>
	<polygon class="st15" points="199.6,257.4 197,256.4 197.5,258.2 	"/>
	<polygon class="st15" points="217,250.1 219.2,248.7 214.2,247.5 211.5,248.4 	"/>
	<polygon class="st15" points="206.8,257.3 210.5,259.1 214.5,257.5 209.5,256.4 	"/>
	<polygon class="st15" points="207.8,254.3 203.5,252.9 200,253.6 204.4,255.5 	"/>
	<polygon class="st15" points="197.4,251.9 202.7,251.4 196.5,249.4 195,249.7 195.4,251.1 	"/>
	<polygon class="st15" points="207.8,245.9 213.1,245.3 206.9,243.3 203.4,244 	"/>
	<polygon class="st15" points="216.1,253.4 221.5,256.2 223.8,255 216.9,252 	"/>
	<polygon class="st15" points="206,247.6 200.4,245.5 198.3,246.6 204.5,248.4 	"/>
	<polygon class="st15" points="193.5,243.9 195.7,242.8 192.7,242.1 193.3,243.8 	"/>
	<polygon class="st15" points="206.9,250.3 209.6,251.6 212.8,250.8 207.9,249 	"/>
	<polygon class="st15" points="203.9,241.5 197.8,239.4 196.3,240.4 201.6,242.6 	"/>
	<polygon class="st15" points="194.8,238.9 196.5,237.4 191.2,236.3 191.1,236.4 191.5,238 	"/>
	<path class="st11" d="M265.5,233.4c0.1,0,0.2,0.1,0.4,0.1C265.7,233.4,265.6,233.4,265.5,233.4
		C265.5,233.3,265.5,233.3,265.5,233.4z"/>
	<path class="st11" d="M266.4,233.1c-0.3,0.1-0.6,0.2-0.9,0.2c0.1,0,0.2,0.1,0.3,0.1c0.2,0,0.3,0.1,0.5,0.1
		C266.4,233.4,266.4,233.3,266.4,233.1z"/>
	<polygon class="st15" points="199.7,279.3 198.2,278.6 199.5,283.9 199.1,283.7 199,284.5 202.3,282.5 199.6,280 	"/>
	<polygon class="st15" points="181.4,203.6 180.1,202.8 182.1,211 182.6,207.8 	"/>
	<polygon class="st15" points="184.7,214.8 182.6,207.8 182.1,211 182.8,214.1 	"/>
	<polygon class="st15" points="203.1,277 200.1,279.5 199.7,279.3 199.6,280 202.3,282.5 204.3,281.2 	"/>
	<polygon class="st15" points="189.4,241.6 189.7,241.3 192.7,242.1 191.5,238 188.9,237.3 191.1,236.4 189.7,231.7 186.7,230.4 	
		"/>
	<polygon class="st15" points="185.9,226.9 188.6,228 187,222.5 185,223.4 	"/>
	<polygon class="st15" points="200.1,279.5 203.1,277 197.5,258.2 196.9,258.5 193,256.6 198.2,278.6 199.7,279.3 	"/>
	<polygon class="st15" points="190.4,246 193.6,246.7 191.4,248.1 190.9,247.9 192.1,253 193.3,253.2 192.3,253.9 192.8,255.9 
		194,255.2 197,256.4 195.4,251.1 193,250.1 195,249.7 193.3,243.8 189.8,243.1 	"/>
	<polygon class="st15" points="185,223.4 187,222.5 184.7,214.8 182.8,214.1 	"/>
	<polygon class="st15" points="186.7,230.4 189.7,231.7 188.6,228 185.9,226.9 	"/>
	<polygon class="st15" points="192.8,255.9 193,256.6 196.9,258.5 197.5,258.2 197,256.4 194,255.2 	"/>
	<polygon class="st15" points="192.1,253 192.3,253.9 193.3,253.2 	"/>
	<polygon class="st15" points="193.6,246.7 190.4,246 190.9,247.9 191.4,248.1 	"/>
	<polygon class="st15" points="195.4,251.1 195,249.7 193,250.1 	"/>
	<polygon class="st15" points="189.4,241.6 189.8,243.1 193.3,243.8 192.7,242.1 189.7,241.3 	"/>
	<polygon class="st15" points="191.5,238 191.1,236.4 188.9,237.3 	"/>
	<g>
		<path class="st4" d="M161.5,99.4c-5-1.5-9.6-7.4-12.3-11.5C149.9,94.4,153.6,99.7,161.5,99.4z"/>
		<path class="st2" d="M250.4,238.4l0.1-0.1l-27.6-9.8l-38.2-13.7l2.3,7.7l0.6,0.1l-0.4,0.2l1.4,5.2l39.4,16.2l-1.4,4.8l-36.8-17.2
			l1.4,4.7l0.2-0.1l5.2,1.1l-1.7,1.5l-3.2-0.8l1.2,4.1l3,0.7l-2.1,1l-0.3-0.1l1.7,5.9l1.5-0.3l6.2,2l-5.3,0.6l-2-0.8l1.6,5.3l2.6,1
			l-2.1,0.8l5.6,18.8L250.4,238.4L250.4,238.4L250.4,238.4z M219.2,248.7l-2.2,1.4l-5.5-1.6l2.7-0.9L219.2,248.7z M212.8,250.8
			l-3.2,0.8l-2.8-1.2l1.1-1.3L212.8,250.8z M213.1,245.3l-5.3,0.6l-4.4-1.8l3.5-0.7L213.1,245.3z M196.3,240.4l1.5-1l6.1,2.1
			l-2.3,1.1L196.3,240.4z M198.3,246.6l2.1-1.2l5.6,2.1l-1.5,0.8L198.3,246.6z M203.5,252.9l4.3,1.4l-3.4,1.2l-4.4-1.8L203.5,252.9z
			 M206.2,263.8l-6.9-3l4.1-1.2l10,2.3L206.2,263.8z M210.5,259.1l-3.7-1.8l2.7-0.9l5,1.2L210.5,259.1z M221.5,256.2l-5.4-2.9
			l0.8-1.4l6.9,3L221.5,256.2z"/>
	</g>
	<path class="st6" d="M137.4,217.6c-0.7-0.6-2.5-1.9-4.6-3l0.1,0c-0.8-0.5-1.7-0.9-2.6-1.2c0,0-0.1,0.1-0.1,0.1
		c0-0.1,0.1-0.2,0.1-0.2c-2.6-1-5.2-1.5-6.8-0.2c-1.7,1.3-2.2,3.4-2,5.8l0.1,0.1c0.1,0.9,0.3,2,0.6,3c0,0-0.1,0.1-0.1,0.1
		c0.5,1.9,1.3,3.9,2.2,5.7c2.6,5.4,10.4,7.3,14,4.5C141.9,229.5,139.2,219.1,137.4,217.6z"/>
</g>
<path class="st7" d="M193.1,71.7L193.1,71.7L193.1,71.7c0.7,1.7,4.1,8.1,12.1,8.7c9.1,0.7,9.9-4.1,9.9-4.1l-11.6-0.8l-10.5-4
	c0,0,0,0,0,0.1C193,71.6,193.1,71.6,193.1,71.7L193.1,71.7z"/>
<path class="st0" d="M217,92.2l-0.3-2.4l-2.2-0.5l-0.5,0.5c-1.9-1.1-11.6-7-16.5-9.7c-1.1-0.7-1.9-1.1-2.4-1.3c0,0,0,0.1,0,0.1
	c0,0-0.1,0-0.1,0c0,0,0-0.1,0-0.1c-0.2-0.1-0.3-0.1-0.3,0c-0.4,0.9-1,4.7-1.4,7.4c0.1,0,0.1-0.1,0.2-0.1c-0.1,0.7,0,1.4,0.1,2
	c0.6,2.4,7.3,8.5,13.3,13.1c0.1,0.1,0.3,0.2,0.4,0.3c0.3,0.2,0.6,0.4,0.8,0.6c0.2,0.1,0.3,0.2,0.5,0.3c0.3,0.2,0.5,0.4,0.8,0.6
	c0.1,0.1,0.3,0.2,0.4,0.3c0.3,0.2,0.7,0.5,1,0.7l4.2-0.4c0,0,2.9-4.7,0.4-11.5L217,92.2z"/>
</svg>
