<?xml version="1.0" encoding="UTF-8" standalone="no"?>
<svg width="425px" height="395px" viewBox="0 0 425 395" version="1.1" xmlns="http://www.w3.org/2000/svg" xmlns:xlink="http://www.w3.org/1999/xlink" xmlns:sketch="http://www.bohemiancoding.com/sketch/ns">
    <!-- Generator: Sketch 3.3.3 (12072) - http://www.bohemiancoding.com/sketch -->
    <title>Group</title>
    <desc>Created with Sketch.</desc>
    <defs></defs>
    <g id="Welcome" stroke="none" stroke-width="1" fill="none" fill-rule="evenodd" sketch:type="MSPage">
        <g id="Front" sketch:type="MSArtboardGroup" transform="translate(-99.000000, -2266.000000)">
            <g id="Member-Management" sketch:type="MSLayerGroup" transform="translate(0.000000, 2010.000000)">
                <g id="Group" transform="translate(99.085944, 256.857789)" sketch:type="MSShapeGroup">
                    <path d="M180.085401,386.39308 L250.983608,327.863748 L188.350736,389.509199 L183.320891,390.765539 L179.435477,387.181649 L179.506121,386.128811 L180.085401,386.39308" id="Fill-1" fill="#4D4D4C"></path>
                    <path d="M120.433701,281.227956 L251.336827,327.672965 L180.43862,386.202297 L179.859341,385.938028 L26.8446777,316.748884 L120.433701,281.227956" id="Fill-2" fill="#E4E4E4"></path>
                    <path d="M189.156076,364.926484 L199.371183,362.241393 L185.242405,358.954276 L179.435477,360.662842 L189.156076,364.926484" id="Fill-3" fill="#4D4D4C"></path>
                    <path d="M135.212403,335.250575 L137.204561,333.421887 L131.284603,329.276954 L127.159,330.834307 L135.212403,335.250575" id="Fill-4" fill="#4D4D4C"></path>
                    <path d="M125.124456,328.3937 L129.984755,326.679482 L124.220214,323.624131 L120.094611,325.177244 L125.124456,328.3937" id="Fill-5" fill="#4D4D4C"></path>
                    <path d="M112.408556,324.15267 L117.268855,322.438451 L111.504314,319.384513 L107.378711,320.936213 L112.408556,324.15267" id="Fill-6" fill="#4D4D4C"></path>
                    <path d="M150.556256,335.461143 L155.416555,333.745511 L149.652014,330.69016 L145.526411,332.244686 L150.556256,335.461143" id="Fill-7" fill="#4D4D4C"></path>
                    <path d="M216.961511,343.472606 L131.397633,303.399742 L135.791683,302.426044 L218.981926,336.619971 L216.961511,343.472606" id="Fill-8" fill="#4D4D4C"></path>
                    <path d="M174.857753,356.433117 L178.616008,354.963383 L170.774536,351.888247 L168.132455,353.270362 L174.857753,356.433117" id="Fill-9" fill="#4D4D4C"></path>
                    <path d="M146.600198,326.758621 L150.358453,325.286061 L142.502852,322.210925 L139.8749,323.595867 L146.600198,326.758621" id="Fill-10" fill="#4D4D4C"></path>
                    <path d="M143.788571,330.996825 L147.546826,329.524265 L139.691225,326.450542 L137.049144,327.832658 L143.788571,330.996825" id="Fill-11" fill="#4D4D4C"></path>
                    <path d="M155.077464,344.775582 L158.835719,343.304435 L151.050763,340.5826 L148.352166,341.612827 L155.077464,344.775582" id="Fill-12" fill="#4D4D4C"></path>
                    <path d="M122.581276,320.752497 L126.339531,319.279936 L118.540445,316.558102 L115.855977,317.588329 L122.581276,320.752497" id="Fill-13" fill="#4D4D4C"></path>
                    <path d="M136.710053,320.752497 L140.468308,319.281349 L132.669223,316.558102 L129.984755,317.589742 L136.710053,320.752497" id="Fill-14" fill="#4D4D4C"></path>
                    <path d="M167.38363,351.265023 L170.50609,349.293601 L163.427572,347.64863 L159.655188,348.967151 L167.38363,351.265023" id="Fill-15" fill="#4D4D4C"></path>
                    <path d="M129.165286,313.463181 L120.673891,312.318484 L117.268855,314.100537 L123.598548,315.349811 L129.165286,313.463181" id="Fill-16" fill="#4D4D4C"></path>
                    <path d="M204.118452,345.6122 L207.226783,343.642191 L200.162394,341.995806 L196.390011,343.312914 L204.118452,345.6122" id="Fill-17" fill="#4D4D4C"></path>
                    <path d="M194.510883,357.115695 L200.176523,354.945011 L193.098005,353.301453 L189.325622,354.617147 L194.510883,357.115695" id="Fill-18" fill="#4D4D4C"></path>
                    <path d="M167.510789,342.782962 L170.633249,340.814366 L163.56886,339.169395 L159.655188,339.608902 L167.510789,342.782962" id="Fill-19" fill="#4D4D4C"></path>
                    <path d="M185.623882,352.638659 L190.371151,351.00358 L184.366421,349.061835 L179.435477,350.053906 L185.623882,352.638659" id="Fill-20" fill="#4D4D4C"></path>
                    <path d="M175.733737,346.984423 L183.193732,346.204333 L174.476276,343.409012 L169.545333,344.399669 L175.733737,346.984423" id="Fill-21" fill="#4D4D4C"></path>
                    <path d="M191.289522,338.503775 L198.735388,337.725098 L190.017932,334.929777 L185.086988,335.919021 L191.289522,338.503775" id="Fill-22" fill="#4D4D4C"></path>
                    <path d="M145.780729,339.892956 L148.19675,338.170258 L144.975388,336.342983 L139.8749,337.274286 L145.780729,339.892956" id="Fill-23" fill="#4D4D4C"></path>
                    <path d="M133.064829,325.763724 L135.466721,324.039613 L132.259488,322.210925 L127.159,323.143641 L133.064829,325.763724" id="Fill-24" fill="#4D4D4C"></path>
                    <path d="M203.129438,347.64863 L202.041522,349.590374 L209.628675,353.62649 L212.878294,351.891073 L203.129438,347.64863" id="Fill-25" fill="#4D4D4C"></path>
                    <path d="M155.529585,327.863748 L152.5908,329.50024 L161.520187,332.374701 L163.427572,330.868224 L155.529585,327.863748" id="Fill-26" fill="#4D4D4C"></path>
                    <path d="M180.961385,339.169395 L178.022599,340.8073 L186.754184,343.32422 L188.859372,342.175283 L180.961385,339.169395" id="Fill-27" fill="#4D4D4C"></path>
                    <path d="M164.572003,332.103366 L162.480944,334.23024 L170.011582,335.666057 L173.04927,334.186431 L164.572003,332.103366" id="Fill-28" fill="#4D4D4C"></path>
                    <path d="M190.837401,343.409012 L189.325622,345.257485 L193.239293,347.01834 L197.718116,345.886362 L190.837401,343.409012" id="Fill-29" fill="#4D4D4C"></path>
                    <path d="M136.39922,314.063793 L137.769712,312.153139 L130.677065,308.078867 L127.159,309.760582 L136.39922,314.063793" id="Fill-30" fill="#4D4D4C"></path>
                    <path d="M182.769869,333.806279 L185.962973,332.216422 L177.330289,329.276954 L175.196844,330.749514 L182.769869,333.806279" id="Fill-31" fill="#4D4D4C"></path>
                    <path d="M157.32394,323.55771 L160.517044,321.967854 L152.068035,319.384513 L149.765044,320.500946 L157.32394,323.55771" id="Fill-32" fill="#4D4D4C"></path>
                    <path d="M172.159157,328.619813 L174.561049,326.538161 L167.157569,325.037337 L163.893822,326.467501 L172.159157,328.619813" id="Fill-33" fill="#4D4D4C"></path>
                    <path d="M147.871788,318.741505 L149.666143,316.926948 L145.950274,315.144896 L141.287777,316.216106 L147.871788,318.741505" id="Fill-34" fill="#4D4D4C"></path>
                    <path d="M211.631163,11.3937358 L227.49778,6.05181786 C227.49778,6.05181786 222.920056,-1.11737522 208.409802,0.150270391 C193.899547,1.4165028 165.811537,13.2379694 163.014039,26.3850231 C160.414344,38.5230478 167.959111,51.2334208 171.929298,55.6920852 C172.607479,55.8616699 173.271531,56.0397338 173.879069,56.2220374 L175.419106,55.3783535 L179.982701,52.8628471 L192.571442,59.1615054 L190.678186,53.1341827 L192.119321,44.0628146 C192.119321,44.0628146 184.051789,36.3382316 185.492924,27.2668635 C186.93406,18.1954954 211.631163,11.3937358 211.631163,11.3937358" id="Fill-170" fill="#595A59"></path>
                    <path d="M174.32086,55.6449788 C173.713322,55.4626753 173.04927,55.2846113 172.371088,55.1150266 C172.710179,55.4866998 173.035141,55.8428276 173.374232,56.1706914 L174.32086,55.6449788" id="Fill-171" fill="#1A1918"></path>
                    <path d="M245.671187,72.1512227 L256.974209,66.4983994 L238.620927,33.2188158 C238.620927,33.2188158 239.638199,13.3463157 227.275519,5.65282324 L211.408901,10.9947412 C211.408901,10.9947412 186.711798,17.7965008 185.270662,26.8678689 C183.829527,35.939237 191.897059,43.6638199 191.897059,43.6638199 L190.455924,52.735188 L192.34918,58.7625108 L179.760439,52.4638525 L175.196844,54.9793589 C175.35226,55.4739809 175.521806,55.9671897 175.691351,56.4603986 C180.353848,70.2335024 185.864071,80.6304575 185.864071,80.6304575 L191.049333,83.9274667 L189.283235,90.4465851 L190.978689,94.3201822 L213.980339,102.9153 L239.087177,108.894574 L253.215955,99.4727306 L250.37607,89.1690471 C250.37607,89.1690471 227.784155,90.7589036 217.89401,80.15986 C237.674299,86.5192862 248.044822,80.7307952 248.044822,80.7307952 L245.671187,72.1512227" id="Fill-172" fill="#E9DAD0"></path>
                    <path d="M213.485832,123.025219 C214.785679,116.063767 210.504659,109.840008 213.810793,102.913887 L190.809143,94.318769 L189.11369,90.4451719 L185.086988,99.4303345 C186.782442,107.09415 189.057175,116.938541 191.444938,126.159709 C194.680428,138.593094 210.872008,152.744937 213.485832,155.99955 C218.049427,161.703249 209.939508,141.957937 213.485832,123.025219" id="Fill-173" fill="#E9DAD0"></path>
                    <path d="M267.033899,278.337951 L357.585236,261.443075 L424.414354,348.497966 L309.575649,387.729973 L267.033899,278.337951" id="Fill-509" fill="#F2F2F1"></path>
                    <path d="M324.961888,364.567529 L326.727985,370.384285 L406.66861,341.773933 L401.92134,336.342983 L324.961888,364.567529" id="Fill-510" fill="#B6B7B6"></path>
                    <path d="M399.858539,332.401552 L398.601077,326.450542 L316.484621,348.023129 L320.737383,353.839884 L399.858539,332.401552" id="Fill-511" fill="#B6B7B6"></path>
                    <path d="M310.83311,337.686942 L311.963412,343.661976 L394.531989,323.882747 L390.406386,317.971307 L310.83311,337.686942" id="Fill-512" fill="#B6B7B6"></path>
                    <path d="M274.027644,320.797719 C273.575523,320.913602 273.123402,321.035138 272.68541,321.167979 C273.081016,321.290928 273.476622,321.406811 273.886356,321.514214 C273.914614,321.273969 273.957,321.035138 274.027644,320.797719" id="Fill-513" fill="#426C7B"></path>
                    <path d="M313.828411,374.704455 L310.83311,374.440185 L311.581935,366.020305 L319.253862,366.903559 L318.914771,369.88401 L314.294661,369.352644 L313.828411,374.704455" id="Fill-514" fill="#A4C7B0"></path>
                    <path d="M309.151786,357.84067 L306.594477,356.281904 L310.988527,349.061835 L317.473636,353.25623 L315.848826,355.775976 L311.949284,353.253404 L309.151786,357.84067" id="Fill-515" fill="#A4C7B0"></path>
                    <path d="M146.628455,145.45498 C156.575115,136.939002 168.76825,126.231142 176.920555,119.946615 L186.005359,99.3547936 L189.975545,90.3427802 L191.840544,83.6258129 L187.121532,80.7994013 C187.121532,80.7994013 180.918999,70.1890521 176.157601,56.4456256 C175.535935,56.2392975 174.857753,56.0273167 174.137186,55.8209886 L173.176429,56.3537672 C172.851467,56.0273167 172.512376,55.6740152 172.173285,55.3037553 C164.783935,53.5103971 151.333338,64.7821267 145.681827,77.0303814 C140.030316,89.2786362 141.132361,116.508286 133.62998,128.228002 C126.127599,139.949131 103.140077,140.72922 103.140077,140.72922 L130.140172,146.512058 L139.083688,147.690672 L146.628455,145.45498" id="Fill-615" fill="#595A59"></path>
                    <path d="M277.898929,153.534919 L234.947445,117.296082 L225.156202,127.701517 C221.058856,142.634863 214.955224,191.993902 208.258184,224.402951 L187.969259,124.730958 C184.535966,121.881935 177.89544,120.481448 177.231388,120.410788 C163.187383,118.949533 156.885948,120.325996 146.939288,128.841974 L148.097848,146.091564 C148.097848,146.091564 155.896934,194.623878 155.176366,193.71236 L155.218752,194.075554 L168.54219,260.896164 C168.76825,260.90323 169.022568,260.910296 169.248628,260.917362 L170.958211,270.162555 C170.958211,270.162555 207.269169,270.949711 213.867309,271.130601 C229.281805,271.541844 244.95062,271.955913 260.139056,272.353024 C260.760722,267.901426 261.580191,262.5694 262.540948,256.663613 C265.437347,238.624041 269.534693,215.280707 273.081016,195.573552 C274.677568,186.688727 276.146961,178.543009 277.362036,171.95747 C279.170519,162.014154 280.371465,155.620811 280.371465,155.620811 L277.898929,153.534919" id="Fill-616" fill="#A4C7B0"></path>
                    <path d="M334.922676,194.824553 C334.979191,194.209809 335.968206,192.781058 337.663659,190.75452 C330.528626,183.29138 299.261641,165.158537 277.503324,152.626228 L279.97586,154.712119 C279.97586,154.712119 278.774914,161.105462 276.96643,171.048779 C275.751355,177.634318 274.281962,185.780036 272.68541,194.664861 L338.214681,201.419985 C335.388926,200.477376 334.456427,200.006779 334.922676,194.824553" id="Fill-617" fill="#E9DAD0"></path>
                    <path d="M338.738785,192.026406 C338.484467,191.654732 338.131247,191.236424 337.707384,190.782784 C336.011931,192.809322 335.022916,194.238073 334.966401,194.852817 C334.500151,200.035043 335.432651,200.50564 338.258406,201.448249 C338.258406,201.448249 345.322795,201.918846 338.738785,192.026406" id="Fill-618" fill="#E9DAD0"></path>
                    <path d="M357.924326,115.410866 L386.66226,88.5599554 C386.66226,88.5599554 388.852221,89.2312281 391.918166,90.17101 L392.313771,60.7678499 L357.924326,71.1308881 L354.632321,139.435365 L364.635496,136.78843 L356.991827,133.311944 L357.924326,115.410866" id="Fill-619" fill="#4D4D4C"></path>
                    <path d="M396.806723,131.42814 C383.5398,144.032523 347.82225,178.23069 337.677788,190.439375 C338.101651,190.893015 338.454871,191.311323 338.709189,191.682997 C345.293199,201.575437 338.22881,201.10484 338.22881,201.10484 C341.054566,202.047448 368.379622,202.518046 368.379622,202.518046 L410.01713,135.533503 L398.982554,131.857755 C398.982554,131.857755 398.148957,131.661319 396.806723,131.42814" id="Fill-620" fill="#E9DAD0"></path>
                    <path d="M413.704741,128.932419 L419.14432,116.825485 L411.613682,95.1568001 C410.638796,94.8303495 399.279259,91.345384 392.384415,89.2298149 C389.318471,88.290033 387.12851,87.6187603 387.12851,87.6187603 L358.390576,114.469671 L357.458077,132.370749 L365.101745,135.847235 L367.814471,137.080964 C367.814471,137.080964 378.170865,131.900151 384.769004,130.957543 C389.233698,130.318774 394.348315,130.977328 397.1882,131.470537 C400.31066,128.498565 402.189787,126.717925 402.189787,126.717925 L413.704741,128.932419" id="Fill-621" fill="#E9DAD0"></path>
                    <path d="M410.003001,136.192057 L410.878985,134.254552 L409.734554,136.100199 L410.003001,136.192057" id="Fill-622" fill="#4D4D4C"></path>
                    <path d="M413.535196,129.403016 L402.020242,127.188523 C402.020242,127.188523 400.141114,128.969162 397.018654,131.941134 C398.360888,132.174313 399.194486,132.370749 399.194486,132.370749 L410.229062,136.046497 L411.373493,134.20085 L414.269892,129.544337 L413.535196,129.403016" id="Fill-623" fill="#E9DAD0"></path>
                    <path d="M111.153411,204.883752 L111.238183,205.417944 L115.78765,203.64861 L164.885152,154.355992 L164.80038,143.622693 L164.80038,142.451146 L164.687349,125.775317 L161.197541,126.323641 L149.555428,128.152329 C149.555428,128.129718 149.527171,128.097214 149.527171,128.074603 L149.18808,128.208858 L146.545999,128.627167 C146.545999,128.627167 146.164522,129.012972 145.48634,129.716748 C144.412553,130.821875 142.575812,132.733943 140.145662,135.280539 C135.031045,140.63235 127.34499,148.765349 118.867723,158.003476 C102.71853,175.606367 98.536412,180.691082 89.0842597,194.664861 C88.8158129,195.059145 89.3244489,198.14276 90.016759,201.653164 L100.910047,185.324984 L111.153411,204.883752" id="Fill-666" fill="#E9DAD0"></path>
                    <path d="M112.083594,285.035133 L118.978437,275.840816 L122.171541,275.846469 L112.055336,204.440005 L93.2640618,211.747693 C93.2640618,211.747693 91.8511841,205.762766 90.8339121,200.675225 L87.598422,205.545132 C87.598422,205.545132 94.6769396,242.785932 105.160493,272.936678 C107.84496,280.659848 110.38814,287.896875 112.535715,293.93409 C111.914048,289.466946 112.083594,285.035133 112.083594,285.035133" id="Fill-667" fill="#E9DAD0"></path>
                    <path d="M111.645602,205.222921 L111.560829,204.68873 L101.317465,185.129961 L90.4241775,201.458141 C91.4414495,206.545682 92.8543273,212.530609 92.8543273,212.530609 L111.645602,205.222921" id="Fill-668" fill="#E9DAD0"></path>
                    <path d="M157.917349,277.053346 L121.253171,276.988339 L122.001996,282.293514 C122.001996,282.293514 112.662874,297.981511 112.337912,297.081299 C112.111851,296.432638 111.871662,295.755712 111.617344,295.07596 C112.041207,298.071956 112.804161,301.083498 114.231168,302.784998 L143.647283,311.9991 L156.885948,295.374147 L175.210973,317.516255 L180.947256,311.114433 L157.917349,277.053346" id="Fill-669" fill="#E9DAD0"></path>
                    <path d="M122.475236,282.299166 L121.726411,276.993992 L118.533307,276.988339 L111.638464,286.182656 C111.638464,286.182656 111.468919,290.614469 112.090585,295.081613 C112.344903,295.761365 112.585092,296.438291 112.811152,297.086952 C113.136114,297.987164 122.475236,282.299166 122.475236,282.299166" id="Fill-670" fill="#9B8877"></path>
                    <path d="M178.517107,393.012536 L151.177922,278.401545 L152.887504,279.585811 L185.369564,389.198294 L177.867183,393.802518 L177.937827,392.74968 L178.517107,393.012536" id="Fill-671" fill="#4D4D4C"></path>
                    <path d="M0,226.11293 L151.955005,277.596017 L179.294189,392.207009 L178.71491,391.944152 L25.7002467,322.755009 L0,226.11293" id="Fill-672" fill="#E4E4E4"></path>
                    <path d="M91.8687225,298.572436 C94.3271299,300.736054 98.2408013,315.362734 93.1261838,319.332429 C88.0115662,323.304951 77.0476347,320.561918 73.3317662,312.954631 C69.6158976,305.344518 66.9455586,296.164333 72.0743049,292.191811 C77.1889225,288.220703 89.3961864,296.408818 91.8687225,298.572436" id="Fill-673" fill="#8A8B8A"></path>
                </g>
            </g>
        </g>
    </g>
</svg>