<?xml version="1.0" encoding="UTF-8" standalone="no"?>
<svg width="214px" height="213px" viewBox="0 0 214 213" version="1.1" xmlns="http://www.w3.org/2000/svg" xmlns:xlink="http://www.w3.org/1999/xlink" xmlns:sketch="http://www.bohemiancoding.com/sketch/ns">
    <!-- Generator: Sketch 3.3.3 (12072) - http://www.bohemiancoding.com/sketch -->
    <title>Team</title>
    <desc>Created with Sketch.</desc>
    <defs></defs>
    <g id="Welcome" stroke="none" stroke-width="1" fill="none" fill-rule="evenodd" sketch:type="MSPage">
        <g id="Front" sketch:type="MSArtboardGroup" transform="translate(-254.000000, -7765.000000)">
            <g id="SIDFOT" sketch:type="MSLayerGroup" transform="translate(-10.000000, 6982.000000)">
                <g id="Team" transform="translate(264.000000, 783.000000)" sketch:type="MSShapeGroup">
                    <path d="M112.121861,55.8411913 L102.591666,55.1021739 L104.434573,59.6895457 L101.57505,64.0967935 L100.637349,63.3823174 C100.442382,65.0696478 100.293835,66.36015 100.275267,66.4296065 C100.057089,67.180663 105.595093,63.7879435 104.884855,66.3582978 C105.910755,66.4532217 106.932013,66.5291609 107.953271,66.5967652 L108.004334,63.3026739 L112.767111,56.5602978 L112.121861,55.8411913" id="Fill-35" fill="#4D4D4C"></path>
                    <path d="M85.8785249,22.226087 C85.8785249,22.6331022 86.4170065,23.5017717 87.1550976,24.5010196 C87.3036443,23.8272913 87.4057701,23.3883261 87.4336226,23.2628413 L85.8785249,22.226087" id="Fill-36" fill="#EADAD0"></path>
                    <path d="M91.522106,49.5396326 L90.8768566,44.8198304 L89.0803707,26.8727283 C88.4397633,26.1147261 87.7759455,25.2914348 87.2188956,24.5413043 C86.1372904,29.4375261 82.4886136,46.8539804 83.86267,48.4491652 C85.0371169,49.820237 87.5531256,51.3394826 88.7090041,51.9997826 L89.5770735,48.7084696 L91.522106,49.5396326" id="Fill-37" fill="#EADAD0"></path>
                    <path d="M88.7334056,24.0402913 L85.8785249,22.226087 L87.4336226,23.2628413 C87.4057701,23.3883261 87.3036443,23.8272913 87.1550976,24.5010196 C87.7121475,25.25115 88.3759653,26.0744413 89.0165727,26.8324435 L88.7334056,24.0402913" id="Fill-38" fill="#EADAD0"></path>
                    <path d="M102.47397,54.7558174 L102.237223,54.1584913 L91.4443818,49.5456522 L91.5790022,50.5291565 L89.2393926,52.3438239 C89.2393926,52.3438239 89.0072885,52.2192652 88.6312798,52.0058022 L88.1995662,53.6398826 L100.519653,63.0359609 C100.904946,59.6562065 101.457354,54.6771 101.457354,54.6771 L102.47397,54.7558174" id="Fill-39" fill="#EADAD0"></path>
                    <path d="M104.530412,59.3052196 L102.687505,54.7178478 L101.670889,54.6391304 C101.670889,54.6391304 101.118482,59.618237 100.733189,62.9979913 L101.670889,63.7124674 L104.530412,59.3052196" id="Fill-40" fill="#E2D2C4"></path>
                    <path d="M91.6114967,50.8972761 L91.4768764,49.9137717 L89.5318438,49.0826087 L88.6637744,52.3739217 C89.0397831,52.5873848 89.2718872,52.7119435 89.2718872,52.7119435 L91.6114967,50.8972761" id="Fill-41" fill="#EADAD0"></path>
                    <path d="M110.94577,36.5804348 L111.809197,41.7530935 L113.652104,42.036013 C113.679957,40.6987435 113.703167,39.2220978 113.717093,37.7899043 L110.94577,36.5804348" id="Fill-42" fill="#E2D2C4"></path>
                    <path d="M133.23705,41.354413 L133.886941,37.0434783 L131.463774,37.9334478 C131.324512,39.5263174 131.115618,41.0654739 130.906725,42.3707935 L133.23705,41.354413" id="Fill-43" fill="#E2D2C4"></path>
                    <path d="M113.447852,32.5746457 C113.030065,32.5514935 112.110933,32.3746109 110.481562,31.4869565 C111.075748,33.4155326 112.593709,35.3445717 113.480347,36.3591 C113.484989,34.9032913 113.480347,33.5706522 113.447852,32.5746457" id="Fill-44" fill="#477484"></path>
                    <path d="M113.791367,29.8639891 C113.243601,29.0087478 112.561215,27.9340239 111.874187,26.8565217 C112.17128,28.6397022 112.876876,30.7298804 113.290022,31.8560022 C113.262169,31.3767522 113.22039,31.0567891 113.169328,30.9516783 C113.071844,30.7595152 113.3318,30.36315 113.791367,29.8639891" id="Fill-45" fill="#477484"></path>
                    <path d="M122.012495,25.0876957 C121.910369,24.197263 121.859306,22.1635761 123.168373,20.373913 C120.740564,21.512537 119.162256,24.3426587 118.373102,26.1337109 C119.152972,25.527587 119.710022,25.1159413 119.710022,25.1159413 C119.710022,25.1159413 120.64308,25.0200913 122.012495,25.0876957" id="Fill-46" fill="#477484"></path>
                    <path d="M130.349675,24.0782609 C129.439826,24.0782609 127.592278,24.9353543 126.264642,25.6188065 C127.021302,25.8535696 127.777961,26.1628826 128.497484,26.5634152 C128.776009,25.8243978 129.31449,24.9029413 130.349675,24.0782609" id="Fill-47" fill="#477484"></path>
                    <path d="M127.239479,22.6891304 C125.331584,23.1651391 123.42833,24.5723283 122.550976,25.283563 C123.298351,25.3423696 124.14321,25.453037 125.015922,25.6470522 C125.36872,24.8070913 126.03718,23.6485565 127.239479,22.6891304" id="Fill-48" fill="#477484"></path>
                    <path d="M131.370933,36.7411109 C134.197961,35.7497348 134.782863,31.4869565 134.782863,31.4869565 C134.782863,31.4869565 133.603774,34.0193413 131.440564,34.4504348 C131.445206,35.2019543 131.417354,35.9724587 131.370933,36.7411109" id="Fill-49" fill="#477484"></path>
                    <path d="M133.380954,28.7086957 C133.380954,30.2219217 132.197223,31.3383196 131.370933,31.7573739 C131.491627,32.6353043 131.547332,33.5933413 131.551974,34.5851804 C133.970499,33.2548565 133.380954,28.7086957 133.380954,28.7086957" id="Fill-50" fill="#477484"></path>
                    <path d="M117.908894,50.4008935 L120.875184,58.1823391 C120.875184,58.1823391 121.525076,59.2603043 122.170325,59.0445261 C122.578829,58.9097804 124.760607,53.5440326 126.334273,49.5456522 L121.95679,53.2249957 L117.908894,50.4008935" id="Fill-51" fill="#E2D2C4"></path>
                    <path d="M131.553765,34.3815036 C131.549123,33.3896644 131.493418,32.4316275 131.372724,31.5536971 C131.126693,29.8219144 130.620706,28.400371 129.706216,27.6428318 C129.260576,27.2723971 128.782442,26.9547492 128.290381,26.6797014 C127.570858,26.2791688 126.814199,25.9698557 126.057539,25.7350927 C125.662962,25.6137753 125.27767,25.5132949 124.892377,25.4276318 C124.019665,25.2336166 123.174806,25.1229492 122.427431,25.0641427 C122.232463,25.0483992 122.042138,25.0377492 121.856455,25.0284884 C120.48704,24.960884 119.553982,25.056734 119.553982,25.056734 C119.553982,25.056734 118.996932,25.4683797 118.217062,26.0745036 C116.889427,27.1043123 114.916542,28.6934775 113.90921,29.7881123 C113.449643,30.2872731 113.189687,30.6836384 113.287171,30.8758014 C113.338233,30.9809123 113.380012,31.3008753 113.407865,31.7801253 C113.421791,32.0195188 113.435717,32.298271 113.445001,32.6103623 C113.477496,33.6063688 113.482138,34.9390079 113.477496,36.3948166 C113.472854,36.8870318 113.468212,37.3926753 113.46357,37.9048014 C113.449643,39.3369949 113.426433,40.8136405 113.398581,42.1509101 C113.347518,44.8874971 113.287171,47.0411123 113.287171,47.0411123 L117.808559,50.1990688 L117.882832,50.2518557 L121.930728,53.0759579 L126.308212,49.3966144 L127.733331,48.2019623 L130.142572,46.1784623 C130.142572,46.1784623 130.486086,44.6481036 130.834242,42.4537405 C131.043136,41.148421 131.25203,39.6092644 131.391292,38.0163949 C131.428429,37.6056753 131.460923,37.1917144 131.484134,36.7768275 C131.530555,36.0081753 131.558407,35.237671 131.553765,34.4861514 L131.553765,34.3815036" id="Fill-52" fill="#E2D2C4"></path>
                    <path d="M123.734707,85.0546043 C123.734707,85.0546043 130.215054,73.6313217 129.783341,70.3978891 C123.516529,69.9667957 120.926247,64.3630435 120.926247,64.3630435 C120.926247,64.3630435 120.058178,69.9667957 114.659436,72.7686717 C115.09115,75.1394543 118.113145,82.03695 123.734707,85.0546043" id="Fill-53" fill="#4D4D4C"></path>
                    <path d="M107.66846,81.2219935 C107.218178,81.7461587 106.75397,82.2647674 106.303688,82.7648543 C107.037137,82.3944196 107.756659,81.3919304 107.756659,81.3919304 L107.872711,78.874363 L107.970195,76.8652174 L107.733449,76.8851283 L107.66846,81.2219935" id="Fill-54" fill="#D7D8D7"></path>
                    <path d="M107.835575,77.0286717 L107.988764,66.4536848 C106.967505,66.3860804 105.946247,66.3101413 104.920347,66.2152174 C104.066204,69.2926043 103.012451,73.176613 102.125813,76.6827783 L102.887115,77.4403174 L107.835575,77.0286717" id="Fill-55" fill="#C2B6AB"></path>
                    <path d="M105.377201,83.8122587 C105.651084,83.5126696 105.938893,83.2033565 106.226702,82.8847826 C106.059587,82.9685935 105.892472,83.0199913 105.734641,83.0199913 C105.418979,83.0199913 105.363274,83.3603283 105.377201,83.8122587" id="Fill-56" fill="#D7D8D7"></path>
                    <path d="M123.87397,84.9300457 C118.252408,81.9123913 115.230412,75.0148957 114.798698,72.644113 C120.19744,69.842237 121.06551,64.2384848 121.06551,64.2384848 C121.06551,64.2384848 123.655792,69.842237 129.922603,70.2733304 C130.354317,73.506763 123.87397,84.9300457 123.87397,84.9300457 L123.87397,84.9300457 Z M139.717397,74.5189761 C138.974664,71.9458435 138.343341,69.2708413 137.846638,66.9232109 C137.340651,64.5376109 136.969284,62.4904957 136.755748,61.24815 C136.616486,60.4373609 136.542213,59.9641304 136.542213,59.9641304 L137.51705,53.3180674 L137.40564,52.866137 L127.73154,48.1565217 L126.306421,49.3511739 C124.732755,53.3495543 122.550976,58.7153022 122.142473,58.8500478 C121.497223,59.0658261 120.847332,57.9878609 120.847332,57.9878609 L117.881041,50.2064152 L117.806768,50.1536283 L112.500868,55.9537109 C112.589067,56.1532826 112.635488,56.263487 112.635488,56.263487 L112.61692,56.2931217 L107.854143,63.0354978 L107.80308,66.3295891 L107.232104,105.405828 C107.232104,105.405828 107.464208,105.348874 107.877354,105.245152 C111.693145,104.289893 131.54269,99.3056935 138.867896,97.1238326 C140.594751,96.6103174 141.629935,96.2509957 141.592798,96.138013 C141.481388,95.8060109 140.57154,84.9823696 139.717397,74.5189761 L139.717397,74.5189761 Z" id="Fill-57" fill="#F3B329"></path>
                    <path d="M143.607462,55.5846652 L141.546377,54.6317217 L137.558829,52.7869565 L136.477223,60.1637022 C136.477223,60.1637022 136.551497,60.6369326 136.690759,61.4477217 C136.904295,62.6900674 137.275662,64.7371826 137.781649,67.1227826 C138.190152,67.0320261 138.598655,66.9366391 139.0118,66.8407891 C141.188937,66.3300522 143.370716,65.7794935 145.552495,65.50815 L145.552495,65.5044457 C145.552495,59.4006065 143.607462,55.5846652 143.607462,55.5846652" id="Fill-58" fill="#4D4D4C"></path>
                    <path d="M107.232104,117.611654 L107.66846,133.130557 L107.450282,136.147748 L109.966291,142.20945 C109.947722,138.792189 109.859523,136.013928 109.613492,135.932433 C109.613492,135.932433 110.908633,132.483685 113.935271,134.854467 C114.209154,135.072561 114.464469,135.373539 114.701215,135.737954 C115.086508,134.60072 115.550716,133.354207 116.093839,132.052591 C117.602516,128.438537 118.795531,117.146296 119.375792,110.667391 L108.634013,111.738874 L107.232104,117.611654" id="Fill-59" fill="#548596"></path>
                    <path d="M138.422256,134.202965 L139.113926,137.665141 L140.799002,132.910148 L141.012538,109.632026 L138.459393,103.258696 L138.204078,108.985617 L127.657267,110.037652 C128.163254,116.103059 129.416616,128.405198 131.505553,131.616867 C132.452538,133.064804 133.074577,134.19 133.487722,135.054502 L136.908937,133.125926 L138.422256,134.202965" id="Fill-60" fill="#548596"></path>
                    <path d="M108.383341,111.987528 L108.91718,111.933815 L138.63115,108.969874 L138.886464,103.242952 L139.151063,97.2391304 C131.825857,99.4209913 111.976312,104.405191 108.160521,105.36045 L108.383341,111.987528 Z" id="Fill-61" fill="#426C7B"></path>
                    <path d="M110.216963,142.332157 L110.138048,142.143235 C110.1659,147.739115 109.998785,155.049183 109.998785,155.049183 L108.160521,171.539087 C108.880043,170.910737 109.38603,170.351843 109.567072,169.92075 C109.567072,169.92075 110.295879,170.163848 111.173232,170.577809 L113.025423,165.610278 L117.560738,149.229652 C117.560738,149.229652 117.203297,139.27607 114.872972,135.671739 C113.726377,139.055198 113.238959,141.46997 113.238959,141.46997 L110.216963,142.332157" id="Fill-62" fill="#548596"></path>
                    <path d="M113.874924,135.1147 C110.848286,132.743917 109.553145,136.192665 109.553145,136.192665 C109.799176,136.274161 109.887375,139.052422 109.905944,142.469682 L109.984859,142.658604 L113.006855,141.796417 C113.006855,141.796417 113.494273,139.381645 114.640868,135.998187 C114.404121,135.633772 114.148807,135.332793 113.874924,135.1147" id="Fill-63" fill="#426C7B"></path>
                    <path d="M141.063601,171.357574 L139.800954,160.221378 L140.01449,140.823561 L139.41102,137.819335 L138.501171,140.392467 L135.910889,140.392467 L134.615748,137.590128 C134.615748,137.590128 134.606464,136.918252 133.784816,135.208696 L132.239002,136.081996 L131.370933,147.935909 L138.324772,170.377311 C138.932885,170.066609 139.369241,169.92075 139.369241,169.92075 C139.852017,170.379163 140.427636,170.862117 141.063601,171.357574" id="Fill-64" fill="#548596"></path>
                    <path d="M135.818048,140.005826 L138.40833,140.005826 L139.318178,137.432693 L138.626508,133.970517 L137.113189,132.893478 L133.691974,134.822054 C134.513623,136.531611 134.522907,137.203487 134.522907,137.203487 L135.818048,140.005826" id="Fill-65" fill="#426C7B"></path>
                    <path d="M107.956269,172.792546 L108.063037,171.824322 C104.488633,174.967461 95.6408243,179.905357 95.6408243,179.905357 L89.5921909,181.629267 L89.8057267,183.784272 C89.8057267,183.784272 99.7444252,184.215828 104.716095,182.922548 C109.687766,181.629267 114.654794,178.612076 114.654794,178.612076 C114.654794,178.612076 114.654794,174.948013 114.009544,173.223639 C113.638178,172.245691 112.226985,171.406657 111.075748,170.863043 L110.119479,173.438954 L107.956269,172.792546" id="Fill-66" fill="#32515C"></path>
                    <path d="M108.267289,171.555293 L108.160521,172.523517 L110.323731,173.169926 L111.28,170.594015 C110.402646,170.180054 109.673839,169.936957 109.673839,169.936957 C109.492798,170.36805 108.986811,170.926943 108.267289,171.555293" id="Fill-67" fill="#426C7B"></path>
                    <path d="M141.007896,170.91722 L141.04039,171.20477 L138.663644,171.20477 L138.269067,169.936957 C137.224599,170.474087 135.674143,171.505748 134.991757,173.144459 C133.910152,175.73102 133.691974,177.670709 133.691974,177.670709 C133.691974,177.670709 138.881822,181.766328 143.84885,182.412274 C148.820521,183.059146 156.814187,183.059146 156.814187,183.059146 L158.972755,180.688363 L155.087332,179.610861 C155.087332,179.610861 146.053839,174.851237 141.007896,170.91722" id="Fill-68" fill="#32515C"></path>
                    <path d="M141.10538,171.198287 L141.072885,170.910737 C140.43692,170.41528 139.861302,169.932326 139.378525,169.473913 C139.378525,169.473913 138.942169,169.619772 138.334056,169.930474 L138.728633,171.198287 L141.10538,171.198287" id="Fill-69" fill="#426C7B"></path>
                    <path d="M100.737831,96.4551978 L91.852885,89.3673913 L91.4490239,94.9586413 C91.4490239,94.9586413 104.010499,103.868061 104.497918,104.292672 C104.989978,104.717283 104.915705,92.6531478 104.915705,92.6531478 C104.915705,92.6531478 101.369154,96.7177435 100.737831,96.4551978" id="Fill-70" fill="#D79329"></path>
                    <path d="M102.692148,90.7565217 C102.687505,90.7764326 102.682863,90.7963435 102.678221,90.8157913 C101.847289,93.8991978 101.197397,96.3445304 101.197397,96.3445304 C101.82872,96.6070761 105.375271,92.5424804 105.375271,92.5424804 L102.692148,90.7565217" id="Fill-71" fill="#4D4D4C"></path>
                    <path d="M111.47961,53.8047261 L94.8702386,74.8491261 L88.6637744,86.7488804 L91.9364425,89.3618348 L100.821388,96.4496413 C100.821388,96.4496413 101.47128,94.0043087 102.302213,90.9209022 C102.306855,90.9014543 102.311497,90.8815435 102.316139,90.8616326 C102.650369,89.6322522 103.007809,88.3033174 103.369892,86.9892 C103.801605,85.4051283 116.288807,51.8608696 116.288807,51.8608696 L111.47961,53.8047261" id="Fill-72" fill="#D79329"></path>
                    <path d="M145.858872,81.4414761 L145.775315,76.0525761 C145.905293,72.4389848 145.640694,68.3304 145.640694,65.2891304 C143.458915,65.5604739 141.277137,66.1110326 139.1,66.6217696 C138.686855,66.7176196 138.278351,66.8130065 137.869848,66.903763 C138.366551,69.2513935 138.997874,71.9263957 139.740607,74.4995283 C139.833449,74.8213435 139.926291,75.1422326 140.023774,75.4598804 C140.757223,77.8746522 141.388547,79.6143065 141.903818,80.8622087 L143.96026,82.0966826 L143.807072,79.8828717 L145.858872,81.4414761" id="Fill-73" fill="#E2D2C4"></path>
                    <path d="M155.351931,104.553828 L155.969328,103.786565 L149.210456,84.0849913 L145.803167,81.4956522 L145.83102,83.3070783 L143.904555,82.1508587 L144.27128,87.4545587 L148.430586,97.3058087 C148.430586,97.3058087 150.621649,100.944404 151.60577,103.532354 L154.409588,102.231202 L155.351931,104.553828" id="Fill-74" fill="#E2D2C4"></path>
                    <path d="M155.263731,104.743213 L153.801475,106.56853 C153.801475,106.56853 151.721822,107.605748 151.981779,105.790617 C152.046768,105.335909 151.8518,104.58763 151.51757,103.721739 L148.08243,107.346443 L148.342386,111.753228 L150.681996,112.271837 L150.941952,116.679085 L155.621171,115.641867 L158.220738,112.012996 L155.263731,104.743213" id="Fill-75" fill="#E2D2C4"></path>
                    <path d="M145.956356,81.6651261 L143.904555,80.1065217 L144.057744,82.3203326 L145.984208,83.4765522 L145.956356,81.6651261" id="Fill-76" fill="#B4B5B4"></path>
                    <path d="M152.260304,105.702639 C152.000347,107.51777 154.08,106.480552 154.08,106.480552 L155.542256,104.655235 L154.599913,102.332609 L151.796095,103.633761 C152.130325,104.499652 152.325293,105.24793 152.260304,105.702639" id="Fill-77" fill="#E2D2C4"></path>
                    <path d="M142.511931,93.3176152 L145.246117,100.86152 L155.79757,94.1700783 L154.780954,89.8304348 L147.372191,95.9078804 L142.511931,93.3176152" id="Fill-78" fill="#D79329"></path>
                    <path d="M145.63141,91.7798478 C145.557137,91.5960196 145.473579,91.408487 145.394664,91.2195652 L142.511931,93.315763 L147.372191,95.9060283 C147.372191,95.9060283 146.596963,94.0557065 145.63141,91.7798478" id="Fill-79" fill="#4D4D4C"></path>
                    <path d="M155.454056,80.9344435 C155.454056,80.9344435 133.042082,49.6012174 133.172061,49.4715652 C133.302039,49.341913 130.442516,49.0826087 130.442516,49.0826087 C130.442516,49.0826087 143.4682,86.382613 143.93705,87.4740065 C144.419826,88.6066109 144.93974,89.8308978 145.427158,90.9820239 C145.506074,91.1709457 145.589631,91.3584783 145.663905,91.5423065 C146.629458,93.8181652 147.404685,95.668487 147.404685,95.668487 L157.77974,87.1572848 L155.454056,80.9344435" id="Fill-80" fill="#D79329"></path>
                    <path d="M99.9997397,86.9447478 C99.9997397,86.9447478 94.2017787,86.7419348 93.0134056,85.8802109 C94.0810846,83.5626783 92.3774403,81.4146196 92.3774403,81.4146196 C92.3774403,81.4146196 94.7634707,82.3360761 96.9406074,81.0326087 C97.7901085,81.7049478 99.9161822,84.2896565 99.9997397,86.9447478" id="Fill-81" fill="#4D4D4C"></path>
                    <path d="M146.689805,88.118563 C146.689805,88.118563 150.050672,83.4029283 151.424729,82.8847826 C152.780217,85.0495109 155.514403,84.8147478 155.514403,84.8147478 L153.323341,88.8228522 L146.689805,88.118563" id="Fill-82" fill="#4D4D4C"></path>
                    <path d="M104.066204,14.2242326 L103.03102,12.9267848 L96.6017354,17.9818304 L100.886377,8.84366739 L98.55141,7.87173913 L97.5765727,9.03814565 L94.4570933,9.23262391 C94.4570933,9.23262391 92.8045119,11.5436739 90.947679,14.2459957 L90.947679,10.5935087 L89.3879393,10.3990304 L88.413102,17.9818304 L88.4641649,17.9373783 C87.0158351,20.1525783 85.8785249,22.0473522 85.8785249,22.5201196 L88.7334056,24.3343239 L89.0165727,27.1264761 C90.2281562,28.5716348 91.3329718,29.7783261 91.3329718,29.7783261 C91.3329718,29.7783261 96.6017354,25.7591087 102.056182,26.3420804 C102.836052,26.3420804 102.056182,24.0092674 102.056182,24.0092674 L94.9723644,24.3343239 L104.066204,14.2242326" id="Fill-83" fill="#EADAD0"></path>
                    <path d="M173.637959,88.1491239 L171.581516,84.8545696 L169.478653,86.8049087 C168.740562,86.5821848 168.118523,86.3552935 167.798219,86.1191413 C167.17618,85.6598022 167.635746,55.625413 172.417091,53.25 C172.848805,56.5815978 173.586896,62.18535 174.338913,67.2246522 C172.867373,69.4569848 178.043295,87.6147717 173.948978,88.6487478 C174.032536,88.4774217 173.907199,88.3111891 173.637959,88.1491239" id="Fill-84" fill="#548596"></path>
                    <path d="M173.595315,88.0315109 C172.829371,87.5689304 170.912191,87.1355217 169.436009,86.6872957 L171.538872,84.7369565 L173.595315,88.0315109" id="Fill-85" fill="#426C7B"></path>
                    <path d="M33.4740564,3.82798043 L33.0794794,8.32413261 C33.0794794,8.32413261 40.0240347,4.57903696 44.6150542,0 C44.772885,3.76315435 42.6839479,8.37228913 42.6839479,8.37228913 L55.0829501,6.84239348 C55.0829501,6.84239348 50.287679,9.76975435 44.6429067,12.1275717 C40.9385249,13.6759891 36.8674187,14.9799196 33.5390456,15.0465978 C33.0330586,17.8614391 32.7545336,24.037513 32.7545336,24.037513 L28.3213449,25.1191826 L27.4486334,25.3317196 C26.9147939,23.9912087 25.6428633,21.8158304 23.2939696,23.184587 C21.794577,23.9773174 21.0425597,24.9024783 20.7640347,25.8549587 L19.4967462,18.7731717 C19.4967462,18.7731717 30.9116269,8.76772826 33.4740564,3.82798043" id="Fill-417" fill="#595A59"></path>
                    <path d="M31.7332755,42.5314696 L29.7093275,38.8956522 L41.9737093,44.31465 L38.4503688,46.7516478 L31.7332755,42.5314696" id="Fill-418" fill="#9B8877"></path>
                    <path d="M42.3311497,44.3706783 L41.9412148,56.7394957 L32.0303688,42.6 L38.747462,46.8201783 L42.3311497,44.3706783" id="Fill-419" fill="#9B8877"></path>
                    <path d="M20.5577181,25.7665174 C20.8362431,24.814037 21.5882604,23.8888761 23.0876531,23.0961457 C25.6361563,21.3351913 27.2423168,25.2432783 27.2423168,25.2432783 L28.1150283,25.0307413 L32.548217,23.9490717 C32.548217,23.9490717 32.826742,17.7729978 33.332729,14.9581565 C36.6611021,14.8914783 40.7322084,13.5875478 44.4365902,12.0391304 L57.1791064,28.7452761 L49.9745945,31.6142935 L50.508434,40.2181043 L49.3200609,43.3269783 L41.103575,43.9891304 L34.8646162,41.3627478 L29.7908201,39.2299696 L27.3815793,31.7448717 L23.9232279,32.3746109 C23.9232279,32.3746109 19.6246596,28.9179913 20.5577181,25.7665174" id="Fill-420" fill="#9B8877"></path>
                    <path d="M32.5177874,96.3380478 L55.807115,94.4608696 L28.7809111,99.3413478 L32.5177874,96.3380478" id="Fill-421" fill="#5D5E5C"></path>
                    <path d="M23.4564425,151.67128 L23.2104121,149.3769 L24.0831236,119.928261 L35.5258568,124.78605 C39.1466811,131.687713 32.3970933,141.511643 31.1530152,147.520559 C30.2617354,148.356352 29.398308,149.082867 28.6184382,149.703346 L29.9275054,146.748202 L23.4564425,151.67128" id="Fill-422" fill="#9B8877"></path>
                    <path d="M16.5536659,188.405446 L15.318872,157.718165 L23.1222126,151.804174 L23.9577874,151.168415 L25.8146204,153.083563 C25.8146204,153.083563 27.1236876,151.967628 28.8412581,150.026087 L19.3017787,187.773854 L16.5536659,188.405446" id="Fill-423" fill="#9B8877"></path>
                    <path d="M24.1388286,151.066083 L29.788243,146.784783 L29.0222993,149.923754 C27.3047289,151.865296 25.9956616,152.98123 25.9956616,152.98123 L24.1388286,151.066083" id="Fill-424" fill="#9B8877"></path>
                    <path d="M31.9700217,42.6 L41.8808677,56.7394957 L42.2708026,44.3706783 L48.8393492,47.1331957 L48.8672017,47.264237 L60.3285033,93.9672652 L56.0809978,94.7336022 L32.7916703,96.6107804 L29.0547939,99.6140804 L27.4486334,99.9039457 L29.8996529,62.622463 L26.9240781,72.7950652 L15.318872,66.6213065 L18.1041215,58.5949109 L31.9700217,42.6" id="Fill-425" fill="#F3B329"></path>
                    <path d="M63.3412148,82.101313 L61.8418221,81.2682978 L60.8901952,83.6617696 L59.2283297,82.6416848 L55.2407809,73.1608696 L61.6143601,70.8456522 C61.6190022,74.1540978 63.3040781,79.5721696 63.3412148,82.101313" id="Fill-426" fill="#9B8877"></path>
                    <path d="M63.5733189,70.077463 L52.260564,74.4083087 L51.13718,58.9597891 L48.7418655,47.2304348 L63.5733189,70.077463" id="Fill-427" fill="#D79329"></path>
                    <path d="M63.4479826,82.4217391 L69.7844252,85.9371652 L75.2203037,102.972535 C75.1413883,102.952624 75.0624729,102.941511 75.0067679,102.951235 L74.0365727,105.755426 L73.6234273,106.003154 L58.9544469,89.1418891 L60.9969631,83.9821957 L63.5593926,85.5565435 C63.5129718,85.252787 63.4758351,84.0738783 63.4479826,82.4217391" id="Fill-428" fill="#9B8877"></path>
                    <path d="M63.2622993,82.3286674 C63.2901518,83.9808065 63.3272885,85.1597152 63.3737093,85.4634717 L60.8112798,83.8891239 L61.7629067,81.4956522 L63.2622993,82.3286674" id="Fill-429" fill="#9B8877"></path>
                    <path d="M74.9232104,102.795652 C76.8636009,103.255917 85.6185683,111.31982 85.6185683,111.31982 C85.6185683,111.31982 88.3852495,124.976824 85.771757,126.350211 C83.1629067,127.723135 75.0949675,127.64627 74.7096746,125.357446 C74.3243818,123.068622 70.5596529,114.753287 70.5596529,114.753287 L73.7394794,105.578543 L75.4802603,104.528824 L74.9232104,102.795652" id="Fill-430" fill="#9B8877"></path>
                    <path d="M74.9928416,102.820526 L75.5498915,104.553698 L73.8091106,105.603418 L74.7793059,102.799226 C74.8350108,102.789503 74.9139262,102.800616 74.9928416,102.820526" id="Fill-431" fill="#9B8877"></path>
                    <path d="M57.0836876,141.198163 L54.8554881,143.322143 L55.2082863,142.463198 L51.2346638,145.241459 L46.8850325,148.482763 L49.2153579,127.49115 L61.1826464,125.484783 L57.0836876,141.198163" id="Fill-432" fill="#9B8877"></path>
                    <path d="M29.2079826,99.5219348 L56.2341866,94.6414565 L58.4763124,94.4608696 L67.974013,124.3494 L48.1430369,127.805093 L47.2099783,118.39003 L40.3814751,130.26015 L23.2104121,120.384822 L29.2079826,99.5219348" id="Fill-433" fill="#777776"></path>
                    <path d="M39.9219089,153.341478 L47.0196529,148.286896 L51.6106725,149.089813 L52.8872451,149.312537 L54.8276356,144.140804 L55.0504555,143.543478 L55.4403905,145.182652 L55.7142733,146.349059 L48.7882863,188.043346 C48.1848156,187.821085 47.6324078,187.60577 47.135705,187.405272 L39.9219089,153.341478" id="Fill-434" fill="#9B8877"></path>
                    <path d="M52.7526247,149.223633 L51.4760521,149.000909 L46.8850325,148.197991 L54.7208677,142.617391 L54.9158351,143.454574 L54.6930152,144.0519 L52.7526247,149.223633" id="Fill-435" fill="#9B8877"></path>
                    <path d="M72.5511063,195.404348 L74.1990456,198.559063 L72.4257701,200.411237 L69.6312364,198.22243 C70.7731887,197.368115 71.748026,196.398965 72.5511063,195.404348" id="Fill-436" fill="#4A4B4A"></path>
                    <path d="M65.6158351,200.034783 L65.8665076,203.684028 L62.8677223,204.234124 L62.2039046,200.814085 C62.5845553,200.760835 62.960564,200.70388 63.3319306,200.639054 C64.1303688,200.497826 64.8916703,200.289457 65.6158351,200.034783" id="Fill-437" fill="#4A4B4A"></path>
                    <path d="M57.3575705,205.287548 L54.3123644,205.117611 L54.4934056,201.442898 C55.6678525,201.474385 56.8515835,201.47068 58.0306725,201.423913 L57.3575705,205.287548" id="Fill-438" fill="#4A4B4A"></path>
                    <path d="M44.656833,203.705328 L41.7787419,202.710711 L42.8510629,199.571739 C43.811974,199.884293 44.9678525,200.168139 46.2629935,200.408922 L44.656833,203.705328" id="Fill-439" fill="#4A4B4A"></path>
                    <path d="M44.5340164,186.606522 C44.5340164,186.606522 45.4902854,187.060767 46.9803939,187.665039 C47.4770967,187.865537 48.0295045,188.080852 48.6329752,188.303113 C52.2027366,189.622324 57.350806,191.128141 60.9298516,190.47062 C66.9181379,189.369502 73.2777908,187.295993 74.8932355,188.337841 C75.7984416,188.921739 74.9396563,192.325109 72.3772268,195.49603 C71.5741466,196.490648 70.5993093,197.459798 69.457357,198.314113 C68.3014785,199.18093 66.978485,199.926893 65.4790923,200.4543 C64.7549275,200.708974 63.993626,200.917343 63.1951878,201.058572 C62.8238212,201.123398 62.4478125,201.180352 62.0671618,201.233602 C60.7116737,201.424376 59.3051227,201.544767 57.8800034,201.601259 C56.7009145,201.648026 55.5171835,201.65173 54.3427366,201.620243 C51.492498,201.541989 48.7304589,201.24703 46.4094177,200.814548 C45.1142767,200.573765 43.9583982,200.28992 42.9974871,199.977365 C41.4284633,199.464776 40.3839947,198.877174 40.1472485,198.271513 C39.2374004,195.941015 41.1592225,188.457307 44.5340164,186.606522" id="Fill-440" fill="#777776"></path>
                    <path d="M12.7378742,202.894076 L10.2125813,201.30028 L11.8465944,198.182609 L14.5204338,200.318165 C13.7777007,201.144235 12.7378742,202.894076 12.7378742,202.894076" id="Fill-441" fill="#4A4B4A"></path>
                    <path d="M21.5067679,207.426809 L18.1041215,206.394685 L19.1253796,203.276087 L23.2893275,205.01713 L21.5067679,207.426809" id="Fill-442" fill="#4A4B4A"></path>
                    <path d="M32.3878091,208.980783 L30.1178308,209.69387 L28.7809111,206.513687 L32.0675054,206.054348 L32.3878091,208.980783" id="Fill-443" fill="#4A4B4A"></path>
                    <path d="M39.9729718,207.847252 L37.3687636,208.364009 L36.6724512,205.561207 L39.7780043,205.128261 L39.9729718,207.847252" id="Fill-444" fill="#4A4B4A"></path>
                    <path d="M23.2429067,205.1829 L19.0789588,203.441857 L18.1459002,203.050122 L14.4832972,200.129243 L11.8094577,197.993687 L8.35574837,195.239967 L11.6237744,186.482889 L13.573449,186.149035 L16.3540564,185.6721 L19.0046855,185.217391 C19.0046855,185.217391 23.4750108,195.937774 27.3418655,196.919426 C31.2133623,197.901078 41.1195662,198.229376 41.1195662,198.229376 L41.8298048,204.687907 L39.9219089,204.95462 L36.8163557,205.387565 L32.1046421,206.046476 L27.0122777,206.758174 L23.2429067,205.1829" id="Fill-445" fill="#777776"></path>
                    <path d="M49.7653462,64.7376457 C49.7653462,64.7376457 51.9749775,74.4032152 45.5781879,78.2937065 C37.3292074,73.9975891 37.0367562,66.8732022 37.1528083,63.5939283 C37.1528083,63.5939283 41.8041749,64.1074435 43.5263875,61.5847826 C45.47142,63.9736239 47.838882,64.8672978 49.7653462,64.7376457" id="Fill-446" fill="#4D4D4C"></path>
                    <path d="M85.2982646,133.549148 C84.8897614,133.207885 83.9752711,132.41747 83.0886334,131.504348 C82.4201735,133.393102 81.4639046,136.310276 81.2364425,138.0666 C82.164859,137.498446 83.0468547,137.242383 83.0468547,137.242383 C83.0468547,137.242383 83.0979176,137.867491 82.954013,138.71162 C84.2723644,138.060117 85.6881996,137.108563 86.5701952,136.481602 C86.3055965,136.20748 86.0131453,135.881498 85.6881996,135.485133 C85.1822126,134.866507 85.1265076,134.19463 85.2982646,133.549148" id="Fill-447" fill="#D79329"></path>
                    <path d="M96.2762685,111.593478 L85.5298477,117.039333 C85.5298477,117.039333 80.5999561,126.525704 81.3055527,128.458448 C81.6026459,129.270163 82.4242945,130.268022 83.2830798,131.152898 C84.1697175,132.06602 85.0842078,132.856435 85.492711,133.197698 C85.5994789,132.788367 85.7944464,132.39015 86.0265505,132.022957 C86.5696741,131.158454 87.3031232,130.466204 87.4702381,130.214772 C87.8230364,129.687828 91.518134,130.566685 91.518134,130.566685 L91.8709323,126.350674 L90.111583,123.539537 C90.111583,123.539537 92.4001297,119.323526 93.9830798,116.512389 C95.570672,113.701715 101.20616,114.052702 102.965509,114.229122 L96.2762685,111.593478" id="Fill-448" fill="#D79329"></path>
                    <path d="M81.5033517,137.986957 C80.4217464,138.64633 79.2797942,139.729389 79.3865621,141.323648 C80.0968007,140.867087 80.6724189,140.675387 80.6724189,140.675387 C80.6724189,140.675387 80.7002714,141.466728 80.4449569,142.528024 C82.3482107,141.637591 83.0027443,139.891454 83.2209222,138.631976 C82.6267356,138.923693 82.0511174,139.155678 81.5544146,139.270513 C81.4290783,139.025563 81.4290783,138.568076 81.5033517,137.986957" id="Fill-449" fill="#D79329"></path>
                    <path d="M83.0974151,137.06087 C83.0974151,137.06087 82.2154194,137.316933 81.287003,137.885087 C81.2127296,138.466207 81.2127296,138.923693 81.3380659,139.168643 C81.8347687,139.053809 82.4103869,138.821824 83.0045735,138.530107 C83.148478,137.685978 83.0974151,137.06087 83.0974151,137.06087" id="Fill-450" fill="#F3B329"></path>
                    <path d="M79.29141,141.228261 C78.1355315,141.965889 76.6222126,143.399009 76.5943601,145.839248 L77.5831236,144.97243 C77.5831236,144.97243 77.8152278,145.469276 78.0891106,146.196717 C79.4538829,145.065039 80.0712798,143.588393 80.3498048,142.432637 C80.1501952,142.528024 79.9320174,142.61415 79.6952711,142.688237 C79.4445987,142.159904 79.3192625,141.674172 79.29141,141.228261" id="Fill-451" fill="#D79329"></path>
                    <path d="M80.6654664,140.765217 C80.6654664,140.765217 80.0898482,140.956917 79.3796095,141.413478 C79.407462,141.859389 79.5327983,142.345122 79.7834707,142.873454 C80.0202169,142.799367 80.2383948,142.713241 80.4380043,142.617854 C80.6933189,141.556559 80.6654664,140.765217 80.6654664,140.765217" id="Fill-452" fill="#F3B329"></path>
                    <path d="M76.2926247,145.858696 L72.8806941,148.855976 C72.8806941,148.855976 77.1049892,153.07245 78.3397831,151.49162 C79.18,150.412728 78.3815618,147.779863 77.7873753,146.216165 C77.3927983,146.544926 76.9332321,146.845441 76.3993926,147.099652 C76.3204772,146.658835 76.2926247,146.246726 76.2926247,145.858696" id="Fill-453" fill="#D79329"></path>
                    <path d="M76.5943601,145.799426 C76.5943601,146.187457 76.6222126,146.599565 76.701128,147.040383 C77.2349675,146.786172 77.6945336,146.485657 78.0891106,146.156896 C77.8152278,145.429454 77.5831236,144.932609 77.5831236,144.932609 L76.5943601,145.799426" id="Fill-454" fill="#F3B329"></path>
                    <path d="M108.132668,134.012191 C108.415835,133.670928 109.061085,132.880513 109.687766,131.967391 C110.156616,133.856146 110.83436,136.772857 110.992191,138.52918 C110.337657,137.961489 109.715618,137.705426 109.715618,137.705426 C109.715618,137.705426 109.678482,138.330535 109.785249,139.174663 C108.852191,138.523161 107.854143,137.571607 107.232104,136.944646 C107.417787,136.670524 107.622039,136.344541 107.854143,135.948176 C108.211584,135.32955 108.24872,134.657674 108.132668,134.012191" id="Fill-455" fill="#D79329"></path>
                    <path d="M100.343254,112.519565 L107.919132,117.96542 C107.919132,117.96542 111.396052,127.451791 110.899349,129.384535 C110.690456,130.19625 110.110195,131.194109 109.506725,132.078985 C108.880043,132.992107 108.234794,133.782522 107.951627,134.123785 C107.872711,133.714454 107.733449,133.315774 107.570976,132.94858 C107.185683,132.084541 106.675054,131.392291 106.55436,131.140859 C106.303688,130.613452 103.699479,131.492772 103.699479,131.492772 L103.448807,127.276298 L104.692885,124.465624 C104.692885,124.465624 103.07744,120.249613 101.958698,117.438476 C100.839957,114.627802 96.8663341,114.978789 95.626898,115.155209 L100.343254,112.519565" id="Fill-456" fill="#D79329"></path>
                    <path d="M110.760087,138.45 C111.521388,139.109837 112.329111,140.192896 112.254837,141.786691 C111.753492,141.330593 111.344989,141.138893 111.344989,141.138893 C111.344989,141.138893 111.326421,141.930235 111.507462,142.99153 C110.1659,142.101098 109.706334,140.354961 109.553145,139.095483 C109.970933,139.3872 110.374794,139.619185 110.727592,139.73402 C110.81115,139.48907 110.815792,139.031583 110.760087,138.45" id="Fill-457" fill="#D79329"></path>
                    <path d="M109.559396,137.986957 C109.559396,137.986957 110.181435,138.24302 110.835968,138.810711 C110.891673,139.392293 110.887031,139.84978 110.803474,140.09473 C110.450676,139.979896 110.046814,139.747911 109.629027,139.456193 C109.522259,138.612065 109.559396,137.986957 109.559396,137.986957" id="Fill-458" fill="#F3B329"></path>
                    <path d="M112.157354,142.154348 C112.969718,142.892439 114.037397,144.325559 114.055965,146.765335 L113.359653,145.898517 C113.359653,145.898517 113.19718,146.395826 113.002213,147.123267 C112.041302,145.991589 111.604946,144.514943 111.409978,143.359187 C111.553883,143.454574 111.707072,143.5407 111.869544,143.614787 C112.050586,143.086454 112.138785,142.600722 112.157354,142.154348" id="Fill-459" fill="#D79329"></path>
                    <path d="M111.410516,141.228261 C111.410516,141.228261 111.81902,141.419961 112.320364,141.876059 C112.301796,142.322433 112.213597,142.808165 112.032555,143.336498 C111.870082,143.262411 111.716894,143.176285 111.572989,143.080898 C111.391948,142.019602 111.410516,141.228261 111.410516,141.228261" id="Fill-460" fill="#F3B329"></path>
                    <path d="M114.035522,146.784783 L116.444763,149.782526 C116.444763,149.782526 113.464546,153.999 112.596476,152.417707 C112.00229,151.338815 112.563982,148.706413 112.981769,147.142715 C113.264936,147.471476 113.58524,147.771991 113.961249,148.026202 C114.016954,147.585385 114.040164,147.173276 114.035522,146.784783" id="Fill-461" fill="#D79329"></path>
                    <path d="M114.320564,146.725513 C114.325206,147.114007 114.301996,147.526115 114.246291,147.966933 C113.870282,147.712722 113.549978,147.412207 113.266811,147.083446 C113.461779,146.356004 113.624252,145.858696 113.624252,145.858696 L114.320564,146.725513" id="Fill-462" fill="#F3B329"></path>
                    <path d="M94.6149241,142.422913 L94.4013883,141.691304 L94.2342733,141.75752 C94.9770065,144.879822 97.7158351,147.564548 100.208633,149.381993 C100.751757,147.283017 101.35987,145.282207 102.232581,143.312883 L94.6149241,142.422913" id="Fill-463" fill="#E2D2C4"></path>
                    <path d="M93.8118438,141.691304 L93.3058568,141.889487 C94.4338829,145.619765 96.2767896,150.250663 98.945987,152.721926 C99.229154,151.551815 99.4983948,150.4206 99.7862039,149.315778 C97.2934056,147.498333 94.554577,144.813607 93.8118438,141.691304" id="Fill-464" fill="#E2D2C4"></path>
                    <path d="M106.990716,116.716024 C105.338134,116.083507 99.957961,113.359422 95.288026,114.007683 C90.6227332,114.65687 86.839436,116.919763 86.3613015,117.335576 C86.1291974,117.534222 83.5574837,132.252522 83.5574837,132.252522 L88.4038178,138.605015 L98.6024729,145.304791 L101.308807,144.765809 C101.308807,144.765809 107.960911,135.697565 108.369414,134.208881 C108.773275,132.720196 108.643297,117.348078 106.990716,116.716024" id="Fill-465" fill="#E2D2C4"></path>
                    <path d="M83.5574837,158.365037 C83.5574837,158.512748 83.5621258,158.651198 83.5621258,158.786407 C84.5740998,157.383848 85.3214751,156.432293 85.3214751,156.432293 C85.6696312,157.497293 85.7949675,158.548865 85.771757,159.568487 L88.7101952,155.32562 L90.1724512,145.858696 C87.8374837,148.689743 83.5574837,154.407404 83.5574837,158.365037" id="Fill-466" fill="#F3B329"></path>
                    <path d="M107.603471,155.888217 C107.153189,155.14457 106.726117,154.299052 106.354751,153.338237 C103.978004,147.211246 104.966768,144.048659 104.966768,144.048659 C104.966768,144.048659 105.277787,144.249157 105.765206,144.635798 L105.644512,143.90882 L102.241866,143.511528 C100.904946,146.517607 100.194707,149.59453 99.3777007,152.986787 C96.7085033,150.515524 94.8655965,145.884626 93.7375705,142.154348 L90.7480694,143.324459 L90.3163557,146.101793 L86.3427332,171.783574 L87.8653362,171.681704 L87.795705,170.268033 L108.666508,169.938809 L108.71757,170.284239 L109.94308,170.202743 L107.603471,155.888217" id="Fill-467" fill="#F3B329"></path>
                    <path d="M83.6085466,158.823913 C82.109154,160.9002 80.0295011,163.966937 78.9154013,166.405787 C79.8066811,166.929489 80.8790022,167.814365 81.7331453,168.575609 C83.3996529,166.766961 85.7206941,163.416378 85.8181779,159.605993 L85.1914967,160.510317 C85.1914967,160.510317 83.6921041,163.666885 83.6085466,158.823913" id="Fill-468" fill="#F3B329"></path>
                    <path d="M85.316833,156.508696 C85.316833,156.508696 84.5694577,157.46025 83.5574837,158.862809 C83.6410412,163.70578 85.1404338,160.549213 85.1404338,160.549213 L85.767115,159.644889 C85.7903254,158.625267 85.6649892,157.573696 85.316833,156.508696" id="Fill-469" fill="#D79329"></path>
                    <path d="M81.6078091,168.857334 C80.7536659,168.09609 79.6813449,167.211214 78.7900651,166.687512 C78.2655098,166.381903 77.8105857,166.198538 77.490282,166.237897 C76.083731,166.413853 75.2017354,170.454371 75.2017354,170.454371 L80.3683731,173.835051 L80.8372234,174.143438 L83.1304121,170.278877 C83.1304121,170.278877 82.4805206,169.632931 81.6078091,168.857334" id="Fill-470" fill="#7E9EAA"></path>
                    <path d="M81.9002603,182.860963 C81.9002603,182.860963 82.9586551,182.68547 83.3068113,181.456089 C83.6781779,178.149033 81.4778308,175.442543 80.1130586,174.104348 L79.3796095,178.570402 C80.9114967,180.005837 81.9002603,182.860963 81.9002603,182.860963" id="Fill-471" fill="#7E9EAA"></path>
                    <path d="M70.8010412,174.567391 C70.1790022,175.104985 69.324859,175.894937 68.8931453,176.522824 C68.1689805,177.577174 67.3101952,180.410074 67.3101952,180.410074 L69.3573536,181.530176 C69.3573536,181.530176 68.3639479,183.50552 68.6981779,184.428365 C69.0277657,185.350285 71.8687202,186.206452 71.8687202,186.206452 C71.8687202,186.206452 74.2129718,181.425528 75.522039,178.965841 C74.6539696,178.58383 73.8787419,178.22312 73.4748807,177.993913 C72.4629067,177.41835 71.2188286,175.310576 70.8010412,174.567391" id="Fill-472" fill="#7E9EAA"></path>
                    <path d="M74.7473594,183.205467 C74.8819798,185.70868 75.4761663,187.948885 75.4761663,187.948885 L76.2699624,188.607333 L79.5054939,187.487693 L79.6354722,186.301376 L78.9762965,180.642985 C78.442457,180.424428 76.9291381,179.801635 75.5457976,179.197826 C75.1837151,180.029915 74.6591598,181.542678 74.7473594,183.205467" id="Fill-473" fill="#7E9EAA"></path>
                    <path d="M75.3131453,170.4 L70.5596529,174.264561 C70.5596529,174.264561 70.6107158,174.363189 70.7035575,174.527107 C71.1213449,175.270291 72.365423,177.378065 73.377397,177.953628 C73.7812581,178.182835 74.5564859,178.543546 75.4245553,178.925557 C75.5266811,178.970935 75.6288069,179.016776 75.7355748,179.062617 C77.1189154,179.666426 78.6322343,180.28922 79.1660738,180.507776 C79.29141,180.559637 79.3656833,180.589272 79.3656833,180.589272 L79.6627766,178.757472 L80.3962256,174.291417 L80.4797831,173.78068 L75.3131453,170.4" id="Fill-474" fill="#96B1BB"></path>
                    <path d="M108.606161,169.936957 L87.7353579,170.26618 L87.8049892,171.679852 L108.657223,170.282387 L108.606161,169.936957" id="Fill-475" fill="#4A4B4A"></path>
                    <path d="M90.4231236,188.273478 L91.5929284,190.727146 L91.5465076,188.141974 L92.9344902,189.80893 L93.1340998,188.603165 L94.5870716,186.890367 L94.5452928,183.828261 L90.0563991,183.897254 L90.4231236,188.273478" id="Fill-476" fill="#E2D2C4"></path>
                    <path d="M90.0563991,182.042302 L90.218872,183.923648 L94.7077657,183.854654 L94.6799132,181.976087 L90.0563991,182.042302" id="Fill-477" fill="#4A4B4A"></path>
                    <path d="M106.243341,189.764015 L107.440998,188.894883 L107.710239,182.43913 L103.05423,183.006822 L103.151714,185.798511 L105.263861,188.367939 L105.263861,189.141685 L106.582213,187.9725 L106.243341,189.764015" id="Fill-478" fill="#E2D2C4"></path>
                    <path d="M110.175184,180.586957 C109.256052,180.693457 108.536529,180.595291 108.536529,180.595291 L108.536529,179.014461 C108.536529,179.014461 109.149284,178.554659 109.775965,178.016602 L108.587592,170.4 L87.7353579,171.797465 L88.3249024,184.020887 L90.2049458,183.992178 L90.0424729,182.110833 L94.665987,182.044617 L94.6938395,183.923185 L96.9127549,183.88892 L97.5719306,179.21218 L100.942082,178.948246 L101.27167,183.493943 L103.091367,183.27122 L107.747375,182.703528 L110.453709,182.374304 L110.175184,180.586957" id="Fill-479" fill="#777776"></path>
                    <path d="M96.2489371,193.996233 L92.7905857,189.847826 L92.5909761,191.079522 L91.6022126,191.079522 L91.4490239,190.766041 L91.514013,194.00642 C93.0830369,194.078191 94.665987,194.061985 96.2489371,193.996233" id="Fill-480" fill="#4D4D4C"></path>
                    <path d="M96.6481562,194.015217 C95.0652061,194.08097 93.482256,194.097176 91.9132321,194.025404 L91.9828633,197.883483 C93.0459002,197.979333 94.0950108,198.03675 95.1348373,198.056661 L96.6899349,194.062911 L96.6481562,194.015217" id="Fill-481" fill="#F3B329"></path>
                    <path d="M92.0246421,203.476585 L92.3263774,203.253398 L92.7859436,203.760893 L95.0652061,197.892743 C94.0253796,197.872833 92.976269,197.815415 91.9132321,197.719565 L92.0246421,203.476585" id="Fill-482" fill="#4D4D4C"></path>
                    <path d="M91.4954447,190.580824 L91.6486334,190.894304 L92.637397,190.894304 L92.8370065,189.662609 L91.4490239,187.995652 L91.4954447,190.580824" id="Fill-483" fill="#E2D2C4"></path>
                    <path d="M106.141215,190.007113 L105.161735,190.718811 L105.161735,189.384783 L101.197397,192.893263 L101.341302,193.706367 C102.733926,193.593385 104.121909,193.473457 105.505249,193.370198 L106.141215,190.007113" id="Fill-484" fill="#4D4D4C"></path>
                    <path d="M102.125813,197.706137 L103.314187,204.508246 L103.495228,204.530935 L104.873926,197.256522 C103.950152,197.431552 103.03102,197.582041 102.125813,197.706137" id="Fill-485" fill="#4D4D4C"></path>
                    <path d="M105.361345,193.08913 C103.978004,193.192389 102.590022,193.312317 101.197397,193.4253 L101.889067,197.360243 C102.794273,197.236148 103.713406,197.085659 104.63718,196.910628 L105.361345,193.08913" id="Fill-486" fill="#F3B329"></path>
                    <path d="M106.354751,189.787167 L106.693623,187.995652 L105.375271,189.164837 L105.375271,190.498865 L106.354751,189.787167" id="Fill-487" fill="#E2D2C4"></path>
                    <path d="M91.7507592,203.73913 L87.0993926,207.139259 L82.276269,209.181743 L77.1931887,208.984024 L77.0585683,210.367598 L81.7517137,212.738843 L88.751974,211.289517 L94.3642516,210.828326 L93.9696746,205.62418 L92.5120607,204.023439 L91.7878959,205.887652 L91.7507592,203.73913" id="Fill-488" fill="#777776"></path>
                    <path d="M91.9132321,203.499274 L91.9503688,205.647796 L92.6745336,203.783583 L92.2149675,203.276087 L91.9132321,203.499274" id="Fill-489" fill="#4A4B4A"></path>
                    <path d="M104.827505,204.531398 L103.597354,204.378593 L103.504512,204.861085 L103.416312,204.355904 L102.186161,204.202174 L100.733189,209.669791 L109.650629,212.436939 L115.592495,211.514557 L115.592495,209.999478 L113.610325,209.538287 L104.827505,204.531398" id="Fill-490" fill="#777776"></path>
                    <path id="Fill-491" fill="#4A4B4A" d="M103.235271,204.224863 L103.05423,204.202174 L103.14243,204.707354 L103.235271,204.224863"></path>
                    <path d="M111.400694,160.036624 C111.3682,158.792426 111.382126,157.848743 111.382126,157.848743 C111.382126,157.848743 111.925249,158.361333 112.626204,159.11563 C112.291974,156.858757 111.52603,152.753413 110.059132,150.00988 C108.58295,147.251993 106.503297,145.36185 105.375271,144.469565 L107.213536,155.721985 C108.606161,158.016365 110.2541,159.331872 111.400694,160.036624" id="Fill-492" fill="#F3B329"></path>
                    <path d="M106.038779,153.2961 C106.410146,154.256915 106.837217,155.102433 107.287499,155.84608 L105.449235,144.593661 C104.961816,144.20702 104.650796,144.006522 104.650796,144.006522 C104.650796,144.006522 103.662033,147.169109 106.038779,153.2961" id="Fill-493" fill="#D79329"></path>
                    <path d="M111.409978,160.20795 C111.451757,161.696172 111.563167,163.615487 111.850976,164.871261 C112.180564,166.309937 112.821171,167.85002 113.252885,168.805741 L117.036182,166.340498 C116.581258,165.274572 115.815315,163.592335 115.021518,162.302296 C114.366985,161.234054 113.406074,160.114415 112.635488,159.286957 C112.779393,160.282037 112.844382,160.919185 112.844382,160.919185 C112.844382,160.919185 112.264121,160.730263 111.409978,160.20795" id="Fill-494" fill="#F3B329"></path>
                    <path d="M111.412945,157.897826 C111.412945,157.897826 111.399019,158.841509 111.431513,160.085707 C112.285656,160.60802 112.865917,160.796941 112.865917,160.796941 C112.865917,160.796941 112.800927,160.159793 112.657023,159.164713 C111.956068,158.410415 111.412945,157.897826 111.412945,157.897826" id="Fill-495" fill="#D79329"></path>
                    <path d="M118.809458,165.306522 L113.276095,168.911778 L112.338395,169.522996 L113.132191,173.475998 L113.484989,173.320415 L113.461779,172.158176 L120.392408,169.325276 L120.712711,170.162459 L121.121215,169.984187 L118.809458,165.306522" id="Fill-496" fill="#7E9EAA"></path>
                    <path d="M113.73102,171.84377 L113.75423,173.006009 L120.981952,169.848052 L120.661649,169.01087 L113.73102,171.84377" id="Fill-497" fill="#477484"></path>
                    <path d="M113.907419,177.83833 L113.805293,173.178261 L112.519436,173.4246 C112.519436,173.4246 111.530672,175.927813 110.871497,176.718228 C110.620824,177.016891 110.240174,177.37112 109.864165,177.697102 C109.237484,178.235159 108.624729,178.694961 108.624729,178.694961 L108.624729,180.275791 C108.624729,180.275791 109.344252,180.373957 110.263384,180.267457 C111.015401,180.179478 111.906681,179.954439 112.654056,179.419161 C113.262169,178.980196 113.791367,178.4514 114.218438,177.958722 L113.907419,177.83833" id="Fill-498" fill="#7E9EAA"></path>
                    <path d="M114.719783,178.492148 L114.617657,178.452789 L113.73102,184.420957 L115.378959,184.486709 L115.578568,185.80453 L118.749111,184.9479 L119.213319,183.564789 L120.73128,182.049711 L120.73128,176.906687 C120.624512,176.701096 120.540954,176.533937 120.485249,176.419565 L114.719783,178.492148" id="Fill-499" fill="#7E9EAA"></path>
                    <path d="M122.602039,174.232611 L120.958742,169.936957 L113.73102,173.094913 L113.735662,173.267628 L113.837787,177.927698 L114.148807,178.048089 L114.924035,178.34953 L115.026161,178.388889 L120.791627,176.316307 L121.037657,176.226476 L123.084816,175.490237 L122.602039,174.232611" id="Fill-500" fill="#96B1BB"></path>
                    <path d="M102.22779,156.912933 C102.22779,156.912933 102.919461,162.054567 99.665361,163.970178 C95.8449271,161.531791 95.9795475,157.770489 96.1652308,156.044263 C96.1652308,156.044263 98.3980724,156.412846 99.331131,155.119565 C100.17599,156.419791 101.29009,156.940715 102.22779,156.912933" id="Fill-501" fill="#4D4D4C"></path>
                    <path d="M34.4303254,120.431126 C34.4303254,128.63672 27.764295,135.289265 19.5385249,135.289265 C11.3127549,135.289265 4.64208243,128.63672 4.64208243,120.431126 C4.64208243,112.225996 11.3127549,105.573913 19.5385249,105.573913 C27.764295,105.573913 34.4303254,112.225996 34.4303254,120.431126" id="Fill-502" fill="#969796"></path>
                    <path d="M29.2497614,120.638107 C29.2497614,127.424009 23.9485033,132.924502 17.4124512,132.924502 C10.871757,132.924502 5.57049892,127.424009 5.57049892,120.638107 C5.57049892,113.85313 10.871757,108.352174 17.4124512,108.352174 C23.9485033,108.352174 29.2497614,113.85313 29.2497614,120.638107" id="Fill-503" fill="#B4B5B4"></path>
                    <path d="M13.5502386,79.2795261 C13.3042082,79.001237 13.0953145,78.8465804 12.9978308,78.9405783 C13.6477223,74.039263 15.1053362,70.5090196 16.6557918,67.1413043 L25.4757484,72.0032609 C23.484295,74.9412717 19.765987,80.6533761 19.765987,80.6533761 C19.765987,80.6533761 18.4383514,80.8631348 17.1246421,81.0659478 C17.2731887,80.2199674 17.3985249,79.5934696 17.3985249,79.5934696 L13.5502386,79.2795261" id="Fill-504" fill="#9B8877"></path>
                    <path d="M8.40228256,103.467528 C8.258378,103.545783 6.53152334,101.427359 5.10640403,102.971609 C5.09711987,97.4465739 5.64952767,86.4761478 9.94345392,81.0395543 C10.5190721,80.312113 11.8745602,79.1804348 11.8745602,79.1804348 L13.7081828,79.3295348 C14.1770331,79.8560152 14.7851459,80.833037 15.0451025,81.4539783 C15.5000266,81.3900783 16.3866643,81.2544065 17.2825862,81.1159565 C16.9715667,82.8750587 16.5630635,85.5871043 16.9390721,85.6209065 C15.2772066,88.3348043 9.67421314,97.7915413 8.67616542,103.72637 C8.4951242,103.63515 8.38835631,103.546246 8.40228256,103.467528" id="Fill-505" fill="#9B8877"></path>
                    <path d="M13.462039,79.1804348 L17.3103254,79.4943783 C17.3103254,79.4943783 17.1849892,80.1208761 17.0364425,80.9668565 C16.1405206,81.1053065 15.2538829,81.2409783 14.7989588,81.3048783 C14.5390022,80.683937 13.9308894,79.7069152 13.462039,79.1804348" id="Fill-506" fill="#9B8877"></path>
                    <path d="M5.2316269,102.959817 L5.11093275,102.988062 C5.11093275,102.958891 5.10629067,102.927404 5.10629067,102.897769 C6.53140998,101.353519 8.25826464,103.471943 8.4021692,103.393689 C8.38824295,103.472406 8.49501085,103.56131 8.67605206,103.65253 C8.58321041,104.198921 8.52750542,104.71753 8.51822126,105.195391 C6.88420824,104.276712 5.2316269,102.959817 5.2316269,102.959817" id="Fill-507" fill="#9B8877"></path>
                    <path d="M4.8602603,102.795652 C4.8602603,102.825287 4.86490239,102.856774 4.86490239,102.885946 L4.98559653,102.8577 C4.98559653,102.8577 6.63817787,104.174596 8.27219089,105.093274 C8.28147505,104.615413 8.33718004,104.096804 8.43002169,103.550413 C9.20060738,103.940759 11.3638178,104.386207 11.3638178,104.386207 L16.5350976,110.662761 L20.6990456,112.777017 L19.0093275,114.629191 L12.7610846,112.494561 L10.1475922,130.484726 L4.5167462,128.564022 L0,114.034643 L3.78329718,105.055767 C4.0943167,103.936128 4.4656833,103.224893 4.8602603,102.795652" id="Fill-508" fill="#9B8877"></path>
                    <path d="M190.492495,31.5388174 C190.88243,31.5388174 190.947419,28.9309565 190.914924,26.295313 C192.62321,26.071663 194.164382,25.9304348 194.164382,25.9304348 C194.164382,25.9304348 202.032711,28.4544848 205.180043,32.9413761 C208.322733,37.4278043 202.622256,53.7033196 208.652321,54.5451326 L200.607592,51.5094196 L194.424338,40.7932043 C194.424338,40.7932043 191.70872,35.4682043 189.396963,31.5758609 L189.4341,30.4409413 C190.088633,30.9840913 190.492495,31.5388174 190.492495,31.5388174" id="Fill-631" fill="#477484"></path>
                    <path d="M187.043427,12.5465234 C190.455358,17.0329516 190.43679,21.1294973 190.43679,21.1294973 C190.43679,21.1294973 190.57141,23.8503407 190.599262,26.5420125 C190.631757,29.177656 190.566768,31.7855168 190.176833,31.7855168 C190.176833,31.7855168 189.772972,31.2307907 189.118438,30.6876407 C188.779566,30.4079625 188.371063,30.1315255 187.916139,29.9347321 C186.98308,29.5341994 185.84577,29.465206 184.666681,30.3834212 C184.142126,27.2990886 180.994794,24.4948973 180.994794,24.4948973 L180.994794,21.1294973 C180.994794,21.1294973 173.915618,15.801256 171.292842,16.3624647 C174.440174,12.436319 183.636139,8.05963205 187.043427,12.5465234" id="Fill-632" fill="#477484"></path>
                    <path d="M172.077354,51.7965065 C176.621952,45.6320087 186.031453,49.0279696 185.799349,38.8956522 L194.596095,60.2100065 C194.596095,60.2100065 194.865336,83.5376739 194.865336,93.8232587 C195.427028,97.5132522 195.784469,101.072667 195.826247,104.303785 L195.306334,104.317213 C195.16243,102.826213 195.125293,101.842246 195.301692,101.779735 L175.108633,102.621085 C175.108633,102.621085 174.755835,103.569861 174.319479,104.858048 L174.059523,104.864067 L173.4282,100.479972 C173.521041,100.4508 173.31679,87.4906761 172.91757,73.9897174 C172.89436,73.208563 169.459219,70.8178696 169.436009,70.0538478 C171.292842,60.3299348 172.077354,51.7965065 172.077354,51.7965065" id="Fill-633" fill="#426C7B"></path>
                    <path d="M180.939089,51.6622239 L178.720174,47.3406391 L186.941302,40.7478261 L180.939089,51.6622239" id="Fill-634" fill="#32515C"></path>
                    <path d="M171.715271,16.2479344 C174.338048,15.6867257 181.417223,21.014967 181.417223,21.014967 L181.417223,24.380367 C181.417223,24.380367 184.564555,27.1845583 185.089111,30.2688909 C186.2682,29.3506757 187.40551,29.4196692 188.338568,29.8202018 C188.793492,30.0169953 189.201996,30.2934322 189.540868,30.5731105 L189.503731,31.70803 L189.285553,38.9620692 L178.938351,47.2598083 L175.907072,49.6926387 L175.800304,49.7755235 L175.647115,49.8986931 L175.633189,49.8903583 L172.499783,48.2164561 L170.902907,36.4634866 L168.043384,35.5971322 L171.715271,16.2479344" id="Fill-635" fill="#EEE9CB"></path>
                    <path d="M172.861866,52.7869565 L175.920998,63.1063435 C175.795662,63.6995022 175.623905,64.2898826 175.405727,64.8705391 L172.685466,52.8582652 C172.745813,52.8323348 172.806161,52.8114978 172.861866,52.7869565" id="Fill-636" fill="#426C7B"></path>
                    <path d="M172.950065,52.7869565 L178.144555,75.7270565 L176.218091,76.2030652 C175.763167,74.2823609 175.182907,70.7544326 174.607289,66.89265 C173.855271,61.8533478 173.11718,56.2495957 172.685466,52.9179978 C172.773666,52.8740087 172.861866,52.8277043 172.950065,52.7869565" id="Fill-637" fill="#32515C"></path>
                    <path d="M196.814581,120.996965 C196.72174,121.030304 196.331805,120.928435 195.714408,120.724696 L196.290026,116.229933 L186.323475,112.303787 L185.761783,116.893474 C184.225254,116.279015 182.660872,115.651591 181.170764,115.056117 L182.127032,111.742578 L173.469549,110.901691 L173.11675,111.934278 C172.750026,111.811109 172.508638,111.742578 172.420438,111.742578 C171.7102,111.742578 173.056403,107.463593 173.994104,104.725617 L194.980959,104.184783 C195.500872,109.383835 197.422694,120.779335 196.814581,120.996965" id="Fill-638" fill="#426C7B"></path>
                    <path d="M195.060304,101.869565 C194.883905,101.932076 194.921041,102.916043 195.064946,104.407043 L174.078091,104.947878 C174.514447,103.659691 174.867245,102.710915 174.867245,102.710915 L195.060304,101.869565" id="Fill-639" fill="#32515C"></path>
                    <path d="M196.638612,139.201057 C196.638612,139.201057 196.801085,152.313985 195.055662,157.25188 L192.962082,153.371113 L191.653015,158.693335 C191.058829,158.550717 190.603905,158.419213 190.603905,158.419213 L187.196616,131.909511 L185.683297,117.15 C189.819393,118.802602 193.774447,120.364911 195.635922,120.981222 L196.638612,139.201057" id="Fill-640" fill="#548596"></path>
                    <path d="M196.21154,116.445711 L195.635922,120.940474 C193.774447,120.324163 189.819393,118.761854 185.683297,117.109252 L186.244989,112.519565 L196.21154,116.445711" id="Fill-641" fill="#32515C"></path>
                    <path d="M178.706247,134.506259 L171.705987,152.28898 L170.786855,150.585907 L167.69987,156.085937 L167.114967,151.707861 L169.48243,126.41087 L173.210022,112.056522 C174.579436,112.516787 177.7082,113.756817 181.264035,115.178361 L178.706247,134.506259" id="Fill-642" fill="#548596"></path>
                    <path d="M182.159957,111.971322 L181.203688,115.284861 C177.647852,113.863317 174.519089,112.623287 173.149675,112.163022 L173.502473,111.130435 L182.159957,111.971322" id="Fill-643" fill="#32515C"></path>
                    <path d="M194.340781,158.699817 C194.475401,158.651661 194.753926,158.005715 195.120651,156.971739 L199.642039,169.836013 L199.1082,198.877174 L198.110152,197.810322 L196.225466,199.616191 L192.558221,171.798854 L191.718004,158.419213 L191.718004,158.413193 C192.62321,158.629435 193.862646,158.868828 194.340781,158.699817" id="Fill-644" fill="#548596"></path>
                    <path d="M195.120651,157.148159 C194.753926,158.182135 194.475401,158.82808 194.340781,158.876237 C193.862646,159.045248 192.62321,158.805854 191.718004,158.589613 L193.027072,153.267391 L195.120651,157.148159" id="Fill-645" fill="#426C7B"></path>
                    <path d="M169.993059,156.807822 L171.566725,152.601072 L171.701345,152.341304 L174.714056,157.929313 L174.918308,169.46743 L168.74898,191.835672 L166.650759,192.779354 L167.634881,156.246613 L167.695228,156.138261 L167.894837,157.649172 L169.993059,156.807822" id="Fill-646" fill="#548596"></path>
                    <path d="M171.585293,152.192204 L171.450672,152.451972 L169.877007,156.658722 L167.778785,157.500072 L167.579176,155.989161 L170.666161,150.48913 L171.585293,152.192204" id="Fill-647" fill="#426C7B"></path>
                    <path d="M199.419219,199.443939 L199.368156,199.108696 L203.351063,203.370085 L203.88026,207.856513 L190.766377,212.624009 L178.437007,210.941309 L176.863341,208.978467 L182.373492,208.13758 L193.389154,202.809339 L196.485423,199.847713 L196.796443,200.846035 L199.419219,199.443939" id="Fill-648" fill="#32515C"></path>
                    <path d="M199.24282,199.249461 L199.293883,199.584704 L196.671106,200.9868 L196.360087,199.988478 L198.244772,198.182609 L199.24282,199.249461" id="Fill-649" fill="#426C7B"></path>
                    <path d="M168.781475,193.943909 L168.953232,191.977363 L169.565987,191.7 L171.664208,199.832896 L157.501215,203.197833 L147.274707,202.637087 L146.225597,200.393641 L153.304772,198.991083 L164.585033,193.943909 L166.855011,192.921046 L166.94321,193.943909 L168.781475,193.943909" id="Fill-650" fill="#32515C"></path>
                    <path d="M168.577223,193.666546 L166.738959,193.666546 L166.650759,192.643683 L168.74898,191.7 L168.577223,193.666546" id="Fill-651" fill="#426C7B"></path>
                    <path d="M179.518612,76.1340717 C179.824989,75.3737543 180.200998,74.3981217 180.623427,73.2229174 C182.828416,67.1311174 186.263557,55.7615478 187.191974,42.1369565 L187.549414,42.4004283 C187.776876,52.5332087 186.518872,71.3596304 181.974273,77.5241283 C181.830369,77.7213848 181.681822,77.9015087 181.528633,78.0723717 C180.911236,78.7641587 180.238134,79.235537 179.504685,79.4314043 C179.244729,79.7120087 178.720174,78.0288457 178.720174,78.0288457 C178.720174,78.0288457 179.021909,77.361137 179.518612,76.1340717" id="Fill-652" fill="#32515C"></path>
                    <path d="M175.162408,76.6670348 L176.183666,76.4151391 L178.11013,75.9391304 L178.161193,76.1688 C178.124056,76.1938043 178.08692,76.2169565 178.045141,76.2465913 C177.840889,76.4040261 177.636638,76.8161348 177.46488,77.4083674 C176.879978,79.4564087 176.740716,83.6710304 178.569696,87.0433761 L176.99603,87.3235174 C176.341497,86.6229326 174.373254,83.1167674 174.113297,81.014087 C173.848698,78.9104804 175.162408,76.6670348 175.162408,76.6670348" id="Fill-653" fill="#777776"></path>
                    <path d="M177.254035,77.4118765 C177.425792,76.8196439 177.630044,76.4075352 177.834295,76.2501004 C177.876074,76.2204656 177.913211,76.1973134 177.950347,76.1723091 C178.084968,76.0889613 178.22423,76.0296917 178.358851,75.9931113 C178.744144,75.8907787 179.129436,75.9500482 179.421888,76.0375634 C178.925185,77.2646287 178.623449,77.9323374 178.623449,77.9323374 C178.623449,77.9323374 179.148005,79.6155004 179.407961,79.334896 C180.14141,79.1390287 180.814512,78.6676504 181.431909,77.9758634 L181.636161,78.2134047 L181.376204,80.176246 C181.376204,80.176246 180.58705,81.4380395 179.407961,81.4380395 C179.013384,82.9804374 180.062495,86.7662808 180.062495,86.7662808 C180.062495,86.7662808 179.407961,86.906583 178.358851,87.0468852 C176.52987,83.6745395 176.669133,79.4599178 177.254035,77.4118765" id="Fill-654" fill="#D7D8D7"></path>
                    <path d="M193.96013,121.02827 C193.96013,121.02827 196.132625,146.219224 194.786421,147.372666 C194.600738,141.962929 192.182213,120.881022 192.182213,120.881022 C192.182213,120.881022 194.42898,120.761557 193.96013,121.02827" id="Fill-655" fill="#F3B329"></path>
                    <path d="M213.97679,128.075511 L210.787679,149.426446 L177.791757,146.902859 L181.152625,125.021739 L213.97679,128.075511" id="Fill-656" fill="#F3B329"></path>
                    <path d="M194.415054,72.5177022 L189.396963,62.4678065 L190.269675,50.0086957 C190.269675,50.0086957 191.328069,51.4978435 192.832104,53.94225 C196.685033,60.1859283 203.494967,72.6959739 203.304642,82.8023609 C202.975054,82.4652652 202.60833,82.1837348 202.181258,81.952213 C200.909328,81.7656065 199.790586,82.1851239 198.903948,82.760687 C198.546508,82.047137 198.24013,81.0710413 198.026594,79.7518304 L194.415054,72.5177022" id="Fill-657" fill="#548596"></path>
                    <path d="M203.180842,83.507113 C203.204052,83.1630717 203.217979,82.813937 203.227263,82.463413 C204.531688,83.8136478 205.079454,86.0946 205.009822,90.045287 C204.995896,90.620387 205.330126,91.3075435 205.241927,92.06925 C204.592035,97.8133043 203.361883,108.523037 201.453987,115.659926 C201.101189,116.98423 200.771601,118.190459 200.488434,119.230454 C200.432729,119.140624 200.381666,119.059128 200.339888,118.995691 C199.931384,118.34882 199.56466,116.606387 198.682664,118.269639 L198.371645,118.73083 C198.390213,117.465333 198.408781,115.934511 198.418065,114.236993 C198.469128,105.704491 198.302013,93.0393261 196.960452,89.5539978 C196.797979,89.1321652 196.677284,88.725613 196.584443,88.3287848 C196.245571,86.904 196.319844,85.6491522 196.612295,84.5915609 C196.612295,84.5915609 197.443228,83.3163391 198.826569,82.4217391 C200.386308,85.5454304 202.944096,83.6525087 203.180842,83.507113" id="Fill-658" fill="#548596"></path>
                    <path d="M201.958438,82.0035844 C202.38551,82.2351062 202.752234,82.5166366 203.081822,82.8537322 C203.072538,83.2042562 203.058612,83.5533909 203.035401,83.8974322 C202.798655,84.0428279 200.240868,85.9357496 198.681128,82.8120583 C199.567766,82.2364953 200.686508,81.8169779 201.958438,82.0035844" id="Fill-659" fill="#426C7B"></path>
                    <path d="M190.32538,140.11603 L192.637137,127.626359 L196.053709,122.599096 L198.495445,119.002174 C198.486161,119.731467 198.472234,120.373709 198.46295,120.90482 L199.24282,120.192196 C199.24282,120.192196 199.539913,120.964089 199.91128,122.027237 C200.092321,121.380828 200.333709,120.52142 200.612234,119.501798 C201.127505,120.326015 202.241605,122.152722 202.766161,123.223741 C203.091106,123.878022 203.290716,124.410985 203.272148,124.681865 C203.244295,125.03702 202.190542,126.880859 200.742213,129.259976 C200.46833,129.706813 200.185163,130.17495 199.888069,130.654663 L197.088894,140.404043 L195.668416,140.656865 L197.037831,135.211474 C194.568243,139.119098 192.302907,142.610909 192.302907,142.610909 L190.32538,140.11603" id="Fill-660" fill="#EEE9CB"></path>
                    <path d="M198.99679,119.96341 L198.21692,120.676034 C198.226204,120.144923 198.24013,119.502682 198.249414,118.773389 L198.560434,118.312197 C199.44243,116.648945 199.809154,118.391378 200.217657,119.03825 C200.259436,119.101687 200.310499,119.183182 200.366204,119.273013 C200.087679,120.292634 199.846291,121.152043 199.665249,121.798452 C199.293883,120.735304 198.99679,119.96341 198.99679,119.96341" id="Fill-661" fill="#426C7B"></path>
                    <path d="M190.873145,54.218831 C190.873145,54.218831 201.693839,76.7171875 200.853623,78.3234853 C198.783254,73.3804962 190.789588,56.797057 190.789588,56.797057 C190.789588,56.797057 191.212017,53.7849592 190.873145,54.218831" id="Fill-662" fill="#F3B329"></path>
                    <path d="M160.616052,114.840802 L164.33436,91.2158609 L169.329241,86.5891304 C170.805423,87.0373565 172.722603,87.4707652 173.488547,87.9333457 L173.799566,88.4329696 L163.624121,116.259567 L163.210976,116.323004 L162.556443,113.560487 L160.616052,114.840802" id="Fill-663" fill="#548596"></path>
                    <path d="M152.724512,126.877617 L154.618482,124.095189 L158.220738,116.558693 L160.83423,114.834783 L160.532495,116.758728 L163.429154,116.316985 L164.403991,120.466317 L161.233449,129.281739 L162.324338,134.237693 L159.539089,136.912233 L156.865249,133.633885 L155.732581,129.96658 L156.920954,123.509439 L153.908243,128.395474 L152.724512,126.877617" id="Fill-664" fill="#EEE9CB"></path>
                    <path d="M160.917787,114.725967 L162.858178,113.445652 L163.512711,116.20817 L160.616052,116.649913 L160.917787,114.725967" id="Fill-665" fill="#426C7B"></path>
                </g>
            </g>
        </g>
    </g>
</svg>