<?xml version="1.0" encoding="UTF-8" standalone="no"?>
<svg width="398px" height="343px" viewBox="0 0 398 343" version="1.1" xmlns="http://www.w3.org/2000/svg" xmlns:xlink="http://www.w3.org/1999/xlink" xmlns:sketch="http://www.bohemiancoding.com/sketch/ns">
    <!-- Generator: Sketch 3.3.3 (12072) - http://www.bohemiancoding.com/sketch -->
    <title>user-phone</title>
    <desc>Created with Sketch.</desc>
    <defs></defs>
    <g id="Welcome" stroke="none" stroke-width="1" fill="none" fill-rule="evenodd" sketch:type="MSPage">
        <g id="Front" sketch:type="MSArtboardGroup" transform="translate(-898.000000, -4675.000000)">
            <g id="APP" sketch:type="MSLayerGroup" transform="translate(-2.000000, 4562.000000)">
                <g id="user-phone" transform="translate(1099.000000, 284.500000) scale(-1, 1) translate(-1099.000000, -284.500000) translate(900.000000, 113.000000)" sketch:type="MSShapeGroup">
                    <g id="Group">
                        <path d="M219.433036,193.164948 L204.863393,180.929897 C204.508036,181.993814 204.330357,183.057732 203.975,184.298969 C201.665179,192.45567 198.644643,202.740206 195.446429,213.734021 C184.075,252.212371 169.683036,299.379381 169.683036,299.379381 L153.691964,314.806186 L147.295536,319.061856 C148.361607,322.076289 147.295536,324.736082 134.147321,318.352577 C133.08125,317.820619 132.015179,317.11134 130.59375,316.224742 C128.283929,314.628866 125.441071,312.146392 122.420536,309.309278 C106.9625,294.946392 83.8642857,267.107216 65.0303571,243.701031 L65.0303571,244.23299 L81.7321429,328.105155 C92.5705357,328.459794 104.297321,328.814433 116.379464,329.169072 L117.090179,329.169072 C116.024107,333.424742 114.958036,337.325773 114.069643,340.340206 C122.242857,340.517526 130.416071,340.694845 138.766964,341.049485 C158.133929,341.581443 177.85625,342.113402 196.867857,342.645361 C197.578571,337.148454 198.644643,330.410309 199.888393,322.962887 C203.619643,300.265979 208.772321,271.008247 213.214286,246.360825 C215.16875,235.189691 217.123214,224.905155 218.544643,216.748454 C220.854464,204.336082 222.275893,196.179381 222.275893,196.179381 L219.433036,193.164948 L219.433036,193.164948 Z" id="Shape" fill="#548FA7"></path>
                        <path d="M89.7276786,71.3463918 C90.6160714,71.5237113 91.5044643,71.8783505 92.2151786,72.2329897 C92.0375,71.7010309 91.8598214,70.9917526 91.5044643,70.4597938 L89.7276786,71.3463918 L89.7276786,71.3463918 Z" id="Shape"></path>
                        <path d="M104.297321,125.960825 L87.7732143,162.48866 L112.292857,159.474227 C109.272321,147.948454 106.429464,135.713402 104.297321,125.960825 L104.297321,125.960825 Z" id="Shape"></path>
                        <path d="M137.167857,15.1360825 L157.067857,8.39793814 C157.067857,8.39793814 151.382143,-0.645360825 133.08125,0.950515464 C114.780357,2.54639175 79.6,17.4412371 76.0464286,33.9319588 C72.8482143,49.1814433 82.2651786,65.1402062 87.2401786,70.6371134 C88.1285714,70.814433 88.8392857,70.9917526 89.7276786,71.3463918 L91.6821429,70.2824742 L97.3678571,67.0907216 L113.18125,75.0701031 L110.871429,67.4453608 L112.648214,56.0969072 C112.648214,56.0969072 102.520536,46.3443299 104.297321,34.9958763 C106.074107,23.6474227 137.167857,15.1360825 137.167857,15.1360825 L137.167857,15.1360825 Z" id="Shape" fill="#595A59"></path>
                        <path d="M89.7276786,71.3463918 C89.0169643,71.1690722 88.1285714,70.814433 87.2401786,70.6371134 C87.5955357,71.1690722 88.1285714,71.5237113 88.4839286,71.8783505 L89.7276786,71.3463918 L89.7276786,71.3463918 Z" id="Shape" stroke="#000000"></path>
                        <path d="M180.166071,91.7381443 L194.380357,84.6453608 L171.282143,42.9752577 C171.282143,42.9752577 172.525893,17.9731959 157.067857,8.39793814 L137.167857,15.1360825 C137.167857,15.1360825 106.074107,23.6474227 104.297321,34.9958763 C102.520536,46.3443299 112.648214,56.0969072 112.648214,56.0969072 L110.871429,67.4453608 L113.18125,75.0701031 L97.3678571,67.0907216 L91.6821429,70.2824742 C91.8598214,70.9917526 92.0375,71.5237113 92.3928571,72.0556701 C98.25625,89.2556701 105.185714,102.37732 105.185714,102.37732 L111.759821,106.45567 L109.627679,114.612371 L111.759821,119.4 L140.366071,130.393814 L171.992857,137.841237 L189.760714,125.960825 L186.207143,113.016495 C186.207143,113.016495 157.778571,114.96701 145.341071,101.668041 C170.216071,109.647423 183.186607,102.37732 183.186607,102.37732 L180.166071,91.7381443 L180.166071,91.7381443 Z" id="Shape" fill="#E9DAD0"></path>
                        <path d="M140.010714,155.573196 C141.609821,146.884536 136.279464,139.082474 140.366071,130.393814 L111.404464,119.57732 L109.272321,114.789691 L104.119643,126.138144 C106.251786,135.713402 109.094643,148.125773 112.115179,159.651546 C116.201786,175.25567 136.634821,192.987629 139.833036,197.065979 C145.696429,204.158763 135.56875,179.334021 140.010714,155.573196 L140.010714,155.573196 Z" id="Shape" fill="#E9DAD0"></path>
                        <path d="M56.1464286,183.76701 L69.4723214,185.717526 L121.176786,256.113402 L106.251786,156.814433 C101.9875,153.268041 98.0785714,152.736082 94.7026786,149.898969 C93.9919643,150.430928 93.4589286,150.785567 92.7482143,151.317526 L87.9508929,162.134021 L56.1464286,183.76701 L56.1464286,183.76701 Z" id="Shape" fill="#548FA7"></path>
                        <path d="M193.491964,171.354639 L165.41875,147.593814 L153.158929,160.715464 C147.473214,181.284536 141.7875,231.997938 132.370536,271.540206 L137.878571,279.164948 L193.491964,171.354639 L193.491964,171.354639 Z" id="Shape" fill="#548FA7"></path>
                        <path d="M54.725,183.589691 C67.1625,172.950515 82.6205357,159.474227 92.7482143,151.672165 L104.119643,125.783505 L109.094643,114.435052 L111.404464,105.923711 L105.541071,102.37732 C105.541071,102.37732 97.7232143,89.0783505 91.6821429,71.8783505 C90.9714286,71.7010309 90.0830357,71.3463918 89.1946429,71.1690722 L88.1285714,71.7010309 C87.7732143,71.3463918 87.2401786,70.814433 86.8848214,70.4597938 C77.4678571,68.1546392 60.5883929,82.3402062 53.48125,97.7670103 C46.3741071,113.193814 47.7955357,147.239175 38.3785714,161.956701 C28.9616071,176.674227 0,177.560825 0,177.560825 L33.9366071,184.830928 L33.9366071,180.397938 L54.725,183.589691 L54.725,183.589691 Z" id="Shape" fill="#595A59"></path>
                        <path d="M56.1464286,183.76701 L87.9508929,162.48866 L92.7482143,151.672165 C82.4428571,159.474227 67.1625,172.950515 54.725,183.589691 L56.1464286,183.76701 L56.1464286,183.76701 Z" id="Shape" fill="#595A59"></path>
                        <path d="M291.570536,246.006186 C291.570536,245.296907 292.814286,243.523711 294.946429,240.863918 C286.0625,231.465979 246.617857,208.769072 219.255357,192.987629 L222.275893,195.647423 C222.275893,195.647423 220.854464,203.626804 218.544643,216.216495 C216.945536,224.550515 215.16875,234.657732 213.214286,245.828866 L295.657143,254.340206 C292.103571,253.098969 291.0375,252.56701 291.570536,246.006186 L291.570536,246.006186 Z" id="Shape" fill="#E9DAD0"></path>
                        <path d="M296.367857,242.459794 C296.0125,241.927835 295.657143,241.395876 295.124107,240.863918 C292.991964,243.346392 291.748214,245.119588 291.748214,246.006186 C291.215179,252.56701 292.28125,253.098969 295.834821,254.340206 C295.657143,254.340206 304.541071,254.872165 296.367857,242.459794 L296.367857,242.459794 Z" id="Shape" fill="#E9DAD0"></path>
                        <path d="M147.295536,318.884536 L135.924107,312.85567 L131.8375,291.045361 L138.05625,279.164948 L132.548214,271.540206 L121.354464,256.290722 L69.65,185.894845 L56.3241071,183.94433 L54.9026786,183.76701 L34.1142857,180.575258 L34.1142857,185.008247 L34.1142857,199.725773 C34.1142857,199.725773 34.1142857,199.725773 33.9366071,199.725773 L34.1142857,200.080412 L34.1142857,203.449485 C34.1142857,203.449485 34.4696429,203.981443 35.1803571,205.045361 C36.4241071,206.641237 38.3785714,209.301031 41.04375,212.670103 C46.7294643,220.117526 55.2580357,231.11134 65.0303571,243.523711 C83.6866071,266.929897 106.784821,294.769072 122.420536,309.131959 C125.441071,311.969072 128.283929,314.274227 130.59375,316.047423 C131.8375,316.934021 133.08125,317.643299 134.147321,318.175258 C147.117857,324.558763 148.361607,322.076289 147.295536,318.884536 L147.295536,318.884536 Z" id="Shape" fill="#E9DAD0"></path>
                        <path d="M205.751786,177.560825 L198.111607,169.226804 L197.045536,164.793814 L193.669643,171.354639 L138.05625,278.987629 L145.51875,289.094845 L145.51875,301.507216 L144.985714,314.451546 C144.985714,314.451546 146.7625,316.756701 147.473214,318.707216 L153.869643,314.451546 L169.860714,299.024742 C169.860714,299.024742 184.252679,251.680412 195.624107,213.379381 C198.822321,202.385567 201.842857,192.278351 204.152679,183.94433 C204.508036,182.703093 204.863393,181.639175 205.041071,180.575258 C205.041071,179.68866 205.396429,178.624742 205.751786,177.560825 L205.751786,177.560825 L205.751786,177.560825 Z" id="Shape" fill="#E9DAD0"></path>
                        <path d="M208.594643,165.148454 C208.95,165.148454 207.70625,169.936082 205.574107,177.560825 L247.683929,153.268041 L241.820536,127.202062 L277.889286,126.670103 L276.1125,116.030928 L224.585714,111.952577 L193.136607,150.962887 L196.690179,164.971134 L198.466964,161.602062 C198.644643,161.602062 206.817857,165.148454 208.594643,165.148454 L208.594643,165.148454 Z" id="Shape" fill="#E9DAD0"></path>
                        <path d="M205.751786,177.560825 L205.751786,177.560825 C207.883929,169.936082 209.127679,165.148454 208.772321,165.148454 C206.995536,165.148454 198.644643,161.602062 198.644643,161.602062 L196.867857,164.971134 L197.933929,169.404124 L205.751786,177.560825 L205.751786,177.560825 Z" id="Shape" fill="#E9DAD0"></path>
                        <path d="M320.532143,145.643299 L356.600893,111.952577 C356.600893,111.952577 359.266071,112.839175 363.175,113.903093 L363.708036,77.0206186 L320.532143,89.9649485 L316.445536,175.610309 L329.060714,172.241237 L319.466071,167.808247 L320.532143,145.643299 L320.532143,145.643299 Z" id="Shape" fill="#333333"></path>
                        <path d="M369.39375,166.921649 C352.691964,182.703093 307.739286,225.614433 294.946429,241.041237 C295.479464,241.573196 296.0125,242.105155 296.190179,242.637113 C304.541071,255.049485 295.657143,254.517526 295.657143,254.517526 C299.210714,255.758763 333.502679,256.290722 333.502679,256.290722 L385.917857,172.241237 L372.058929,167.630928 C372.058929,167.453608 371.170536,167.276289 369.39375,166.921649 L369.39375,166.921649 Z" id="Shape" fill="#E9DAD0"></path>
                        <path d="M390.182143,163.729897 L397.111607,148.480412 L387.516964,121.350515 C386.273214,120.995876 372.058929,116.562887 363.352679,113.903093 C359.44375,112.661856 356.778571,111.952577 356.778571,111.952577 L320.709821,145.643299 L319.466071,168.162887 L329.060714,172.595876 L332.436607,174.191753 C332.436607,174.191753 345.407143,167.630928 353.758036,166.56701 C359.44375,165.680412 365.840179,166.56701 369.39375,167.276289 C373.302679,163.552577 375.6125,161.247423 375.6125,161.247423 L390.182143,163.729897 L390.182143,163.729897 Z" id="Shape" fill="#E9DAD0"></path>
                        <path d="M386.273214,172.241237 L387.516964,169.758763 L385.917857,172.063918 L386.273214,172.241237 Z" id="Shape" fill="#333333"></path>
                        <path d="M390.182143,163.729897 L375.790179,160.892784 C375.790179,160.892784 373.480357,163.197938 369.571429,166.921649 C371.348214,167.276289 372.236607,167.453608 372.236607,167.453608 L386.095536,172.063918 L387.516964,169.758763 L391.070536,163.907216 L390.182143,163.729897 L390.182143,163.729897 Z" id="Shape" fill="#E9DAD0"></path>
                    </g>
                </g>
            </g>
        </g>
    </g>
</svg>